<?xml version="1.0" encoding="utf-8"?>
<!-- Generator: Adobe Illustrator 27.5.0, SVG Export Plug-In . SVG Version: 6.00 Build 0)  -->
<svg version="1.1" xmlns="http://www.w3.org/2000/svg" xmlns:xlink="http://www.w3.org/1999/xlink" x="0px" y="0px"
	 viewBox="0 0 500 500" style="enable-background:new 0 0 500 500;" xml:space="preserve">
<g id="BACKGROUND">
	<rect style="fill:#FFFFFF;" width="500" height="500"/>
	<g>
		<path style="fill:#D5F2F9;" d="M251.357,36.585C141.331,35.334,47.41,110.174,33.393,202.686
			c-14.017,92.512,7.008,224.972,122.648,255.809c115.64,30.837,278.237,8.41,301.365-74.991
			c23.128-83.401,25.23-187.126-28.735-261.416C374.706,47.798,313.032,37.285,251.357,36.585z"/>
		<path style="fill:#D5F2F9;" d="M441.226,104.933c4.363-0.372,7.795-4.37,8.647-8.665c0.852-4.295-0.405-8.749-2.258-12.716
			c-4.961-10.618-14.434-19.036-25.562-22.715c-5.255-1.737-11.74-2.177-15.656,1.735c-1.806,1.805-2.78,4.303-3.217,6.819
			c-1.664,9.57,4.552,18.393,12.584,22.903C422.767,96.228,433.076,105.629,441.226,104.933z"/>
		<path style="fill:#D5F2F9;" d="M63.002,102.278c-1.926-0.866-2.944-3.002-3.429-5.057c-1.435-6.09,0.689-12.887,5.336-17.076
			c2.916-2.629,6.611-4.198,10.242-5.691c1.414-0.581,2.896-1.169,4.42-1.04c8.373,0.71,5.018,12.435,1.672,16.404
			C78.002,93.663,68.478,104.741,63.002,102.278z"/>
	</g>
</g>
<g id="OBJECTS">
	<path style="fill:#9DC9DD;" d="M35.258,314.634c12.648,64.686,47.94,124.436,120.784,143.861
		c115.64,30.837,278.237,8.41,301.365-74.991c6.062-21.859,10.675-45.115,13.217-68.87H35.258z"/>
	<path style="fill:#74A7CB;" d="M35.483,315.802h435.013c0.817-7.435,1.433-14.919,1.826-22.427H31.912
		C32.819,300.883,33.998,308.376,35.483,315.802z"/>
	<g>
		<ellipse style="fill:#74A7CB;" cx="261.789" cy="383.317" rx="170.941" ry="62.908"/>
		<ellipse style="fill:#FFCE5E;" cx="261.789" cy="377.71" rx="166.802" ry="62.908"/>
		<ellipse style="fill:#FF8F3D;" cx="257.117" cy="355.935" rx="108.027" ry="39.695"/>
		<path style="fill:#FF8F3D;" d="M111.779,355.382c-0.168-0.097-0.348-0.146-0.542-0.147c-0.194,0.001-0.374,0.049-0.542,0.147
			c-0.269,0.115-0.535,0.233-0.742,0.448c-0.202,0.209-0.366,0.492-0.534,0.732c-0.118,0.168-0.19,0.35-0.271,0.538
			c-0.042,0.096-0.083,0.192-0.125,0.288c-0.052,0.12-0.13,0.267-0.16,0.376c-0.059,0.214-0.047,0.412,0.002,0.606
			c-0.003,0.031-0.006,0.061-0.008,0.092c-0.029,0.323,0.2,0.659,0.468,0.815c0.283,0.166,0.605,0.155,0.894,0.023
			c0.305-0.044,0.567-0.204,0.791-0.435c0.071-0.073,0.142-0.147,0.213-0.22c0.211-0.219,0.406-0.436,0.57-0.696
			c0.107-0.169,0.223-0.335,0.317-0.511c0.134-0.252,0.172-0.436,0.186-0.72c0.003-0.05,0.004-0.099,0.006-0.148
			c0.004-0.087,0.009-0.173,0.009-0.26C112.313,355.932,112.104,355.573,111.779,355.382z"/>
		<path style="fill:#FF8F3D;" d="M117.521,353.775c-0.212-0.212-0.503-0.273-0.79-0.209c-0.071,0.016-0.142,0.032-0.213,0.048
			c-0.239,0.053-0.42,0.201-0.594,0.363c-0.126,0.117-0.252,0.235-0.379,0.352c-0.061,0.057-0.123,0.114-0.184,0.171
			c-0.118,0.109-0.217,0.236-0.296,0.375c-0.084,0.149-0.168,0.298-0.252,0.447c-0.028,0.068-0.057,0.135-0.086,0.203
			c-0.035,0.113-0.041,0.226-0.015,0.339c0,0.077,0.02,0.148,0.058,0.214c0.034,0.106,0.093,0.197,0.176,0.274
			c0.109,0.1,0.235,0.173,0.375,0.219c0.207,0.067,0.469,0.019,0.655-0.086c0.145-0.082,0.29-0.164,0.435-0.246
			c0.14-0.079,0.268-0.175,0.378-0.293c0.06-0.065,0.12-0.13,0.181-0.194c0.114-0.123,0.228-0.246,0.342-0.368
			c0.161-0.174,0.316-0.355,0.37-0.593l0.05-0.225C117.794,354.278,117.734,353.987,117.521,353.775z"/>
		<path style="fill:#FF8F3D;" d="M119.674,348.275c-0.004-0.017-0.009-0.033-0.014-0.05c-0.018-0.066-0.036-0.132-0.055-0.198
			c-0.029-0.068-0.057-0.135-0.086-0.203c-0.053-0.099-0.126-0.178-0.219-0.238c-0.141-0.109-0.331-0.194-0.515-0.183
			c-0.063,0.004-0.126,0.008-0.19,0.012c-0.016,0.001-0.032,0.002-0.047,0.003c-0.111,0.007-0.222,0.021-0.331,0.043
			c-0.094,0.04-0.189,0.08-0.283,0.12c-0.127,0.067-0.242,0.185-0.355,0.279c-0.169,0.141-0.337,0.282-0.505,0.423
			c-0.173,0.174-0.292,0.379-0.358,0.615c-0.066,0.247-0.066,0.494,0,0.741c0.112,0.346,0.321,0.646,0.641,0.833
			c0.16,0.102,0.333,0.157,0.518,0.165c0.185,0.042,0.371,0.033,0.556-0.025c0.236-0.066,0.441-0.186,0.615-0.358
			c0.173-0.174,0.292-0.379,0.358-0.615c0.074-0.191,0.147-0.383,0.221-0.574c0.018-0.048,0.039-0.095,0.054-0.144
			c0.014-0.105,0.028-0.21,0.042-0.316C119.72,348.493,119.704,348.383,119.674,348.275z"/>
		<path style="fill:#FF8F3D;" d="M406.921,352.575c-0.065-0.317-0.192-0.608-0.357-0.884c-0.066-0.11-0.132-0.221-0.198-0.331
			c-0.108-0.18-0.246-0.334-0.387-0.488c-0.172-0.186-0.346-0.367-0.525-0.547c-0.089-0.089-0.178-0.179-0.267-0.269
			c-0.134-0.135-0.286-0.22-0.451-0.275c-0.055-0.036-0.111-0.072-0.166-0.109c-0.183-0.12-0.443-0.085-0.608,0.043
			c-0.183,0.141-0.238,0.353-0.196,0.576c0.004,0.024,0.009,0.047,0.013,0.07c-0.009,0.049-0.023,0.096-0.022,0.152
			c0.003,0.143,0.03,0.213,0.079,0.33l0.153,0.366c0.122,0.293,0.246,0.585,0.379,0.874c0.055,0.119,0.104,0.234,0.182,0.34
			c0.077,0.104,0.154,0.208,0.231,0.312c0.115,0.155,0.223,0.338,0.366,0.464c0.15,0.131,0.316,0.263,0.479,0.374
			c0.291,0.197,0.719,0.133,0.98-0.069C406.897,353.278,406.994,352.931,406.921,352.575z"/>
		<path style="fill:#FF8F3D;" d="M407.625,356.76c0-0.114-0.029-0.221-0.086-0.319c-0.051-0.157-0.138-0.293-0.262-0.407
			c-0.177-0.143-0.353-0.287-0.53-0.431c-0.124-0.101-0.249-0.202-0.375-0.299c-0.155-0.12-0.137-0.11-0.318-0.186
			c-0.073-0.031-0.146-0.062-0.22-0.091c-0.054-0.021-0.108-0.042-0.161-0.063c-0.218-0.059-0.435-0.059-0.653,0
			c-0.112,0.031-0.214,0.079-0.31,0.137c-0.171,0.029-0.316,0.086-0.43,0.234c-0.115,0.149-0.135,0.309-0.116,0.485
			c-0.029,0.105-0.045,0.215-0.045,0.328c0.001,0.222,0.057,0.428,0.168,0.62c0.123,0.16,0.237,0.336,0.377,0.479
			c0.14,0.144,0.352,0.265,0.521,0.383c0.187,0.13,0.374,0.26,0.561,0.391c0.101,0.042,0.201,0.085,0.302,0.127
			c0.168,0.053,0.336,0.06,0.505,0.023c0.114,0,0.221-0.029,0.319-0.086c0.021-0.007,0.035-0.027,0.055-0.036
			c0.07-0.029,0.14-0.059,0.21-0.089c0.112-0.06,0.202-0.143,0.27-0.248c0.083-0.108,0.145-0.253,0.177-0.399
			c0.007-0.016,0.014-0.032,0.02-0.048C407.655,357.096,407.662,356.928,407.625,356.76z"/>
		<path style="fill:#FF8F3D;" d="M412.259,355.598c-0.011-0.063-0.029-0.123-0.053-0.182c-0.056-0.14-0.112-0.299-0.2-0.426
			c-0.089-0.129-0.185-0.264-0.3-0.372c-0.021-0.02-0.044-0.039-0.067-0.057c-0.179-0.142-0.345-0.295-0.582-0.333
			c-0.154-0.025-0.331-0.063-0.494-0.049c-0.156,0.013-0.327,0.026-0.479,0.081c-0.14,0.033-0.262,0.098-0.366,0.193
			c-0.117,0.076-0.21,0.177-0.277,0.302c-0.036,0.086-0.073,0.172-0.109,0.257c-0.045,0.143-0.051,0.286-0.019,0.429
			c0,0.097,0.025,0.188,0.073,0.272c0.043,0.133,0.118,0.249,0.223,0.346c0.073,0.056,0.145,0.112,0.218,0.169
			c0.092,0.053,0.188,0.089,0.288,0.113c0.013,0.002,0.024,0.008,0.036,0.01c0.003,0.002,0.006,0.003,0.008,0.005
			c0.072,0.051,0.151,0.082,0.232,0.109c0.045,0.061,0.091,0.121,0.139,0.18c0.07,0.054,0.14,0.108,0.21,0.162
			c0.217,0.14,0.179,0.092,0.244,0.105c0.066,0.029,0.131,0.062,0.204,0.065c0.068,0.018,0.137,0.018,0.206,0
			c0.103-0.005,0.199-0.035,0.288-0.092c0.101-0.048,0.188-0.127,0.271-0.198c0.014-0.012,0.027-0.025,0.04-0.038
			c0.193-0.206,0.306-0.452,0.308-0.737C412.3,355.806,412.277,355.701,412.259,355.598z"/>
		<path style="fill:#FF8F3D;" d="M413.602,360.044c-0.04-0.122-0.107-0.227-0.203-0.316c-0.089-0.096-0.194-0.163-0.316-0.203
			c-0.117-0.061-0.243-0.09-0.378-0.085c-0.087,0.012-0.174,0.023-0.261,0.035c-0.166,0.046-0.311,0.131-0.433,0.252
			c-0.051,0.066-0.102,0.133-0.154,0.199c-0.089,0.153-0.134,0.319-0.134,0.496c0.007,0.061,0.013,0.122,0.02,0.183
			c0.003,0.029,0.006,0.058,0.009,0.087c0.002,0.015,0.003,0.03,0.005,0.046c0.001,0.007,0.002,0.015,0.003,0.023
			c0.011,0.084,0.022,0.167,0.034,0.251c0.031,0.078,0.064,0.156,0.099,0.233c0.084,0.141,0.196,0.254,0.338,0.338
			c0.147,0.085,0.305,0.128,0.475,0.129c0.17-0.001,0.328-0.044,0.475-0.129c0.141-0.084,0.254-0.196,0.338-0.338
			c0.018-0.04,0.035-0.08,0.051-0.12c0.043-0.074,0.064-0.153,0.065-0.238c0.007-0.048,0.014-0.096,0.019-0.144
			c0.002-0.015,0.003-0.03,0.005-0.046c0.003-0.03,0.007-0.061,0.01-0.092c0.007-0.061,0.013-0.122,0.02-0.183
			C413.692,360.288,413.664,360.161,413.602,360.044z"/>
		<path style="fill:#FF8F3D;" d="M185.328,427.817c-0.084-0.169-0.167-0.338-0.251-0.506c-0.04-0.082-0.079-0.165-0.121-0.245
			c-0.091-0.174-0.232-0.305-0.374-0.434c-0.073-0.066-0.145-0.132-0.218-0.198c-0.141-0.128-0.283-0.272-0.446-0.37
			c-0.12-0.073-0.266-0.119-0.399-0.167c-0.049-0.018-0.098-0.035-0.147-0.053l-0.277-0.1c-0.097-0.013-0.194-0.026-0.291-0.039
			c-0.097,0.013-0.194,0.026-0.291,0.039c-0.23,0.064-0.425,0.206-0.569,0.393c-0.068,0.068-0.115,0.149-0.141,0.241
			c-0.049,0.086-0.074,0.178-0.075,0.277c-0.03,0.222-0.009,0.51,0.13,0.698c0.054,0.074,0.109,0.147,0.163,0.221
			c0.113,0.153,0.22,0.328,0.352,0.461c0.204,0.206,0.493,0.348,0.74,0.499c0.159,0.097,0.323,0.203,0.507,0.243
			c0.09,0.02,0.182,0.032,0.273,0.048c0.194,0.034,0.387,0.068,0.581,0.102c0.133,0.023,0.269,0.037,0.402,0
			c0.159-0.044,0.293-0.142,0.393-0.27C185.463,428.405,185.466,428.095,185.328,427.817z"/>
		<path style="fill:#FF8F3D;" d="M190.291,425.927c-0.021-0.226-0.036-0.432-0.163-0.629c-0.059-0.076-0.118-0.153-0.177-0.229
			l-0.027-0.023c-0.011-0.01-0.022-0.02-0.033-0.03c-0.051-0.045-0.102-0.09-0.153-0.135c-0.069-0.053-0.137-0.106-0.206-0.159
			c-0.081-0.034-0.162-0.068-0.244-0.103c-0.09-0.012-0.181-0.024-0.271-0.036c-0.14-0.005-0.271,0.024-0.393,0.088
			c-0.086,0.024-0.161,0.068-0.225,0.131c-0.077,0.045-0.138,0.106-0.183,0.183c-0.063,0.064-0.107,0.139-0.131,0.225
			c-0.064,0.122-0.093,0.252-0.088,0.393c0.005,0.064,0.01,0.128,0.016,0.192c0.001,0.017,0.003,0.034,0.004,0.05
			c0.001,0.009,0.001,0.017,0.002,0.025l0.04,0.301c0.046,0.203,0.19,0.412,0.341,0.549c0.048,0.044,0.096,0.088,0.144,0.131
			c0.113,0.102,0.226,0.18,0.356,0.252c0.291,0.162,0.644,0.17,0.934,0c0.139-0.082,0.25-0.193,0.332-0.332
			c0.084-0.145,0.126-0.3,0.126-0.467c0.008-0.06,0.022-0.123,0.016-0.184C190.304,426.055,190.298,425.991,190.291,425.927z"/>
		<path style="fill:#FF8F3D;" d="M192.652,428.625c-0.044-0.042-0.087-0.084-0.13-0.126c-0.127-0.123-0.285-0.222-0.46-0.259
			c-0.038-0.008-0.075-0.016-0.113-0.024c-0.233-0.049-0.474-0.111-0.711-0.034c-0.078,0.025-0.155,0.057-0.233,0.086
			c-0.069,0.029-0.138,0.058-0.208,0.088c-0.101,0.055-0.182,0.129-0.244,0.224c-0.054,0.054-0.091,0.118-0.112,0.192
			c-0.054,0.103-0.079,0.215-0.075,0.335c0.01,0.077,0.021,0.154,0.031,0.231c0.029,0.069,0.058,0.138,0.088,0.207
			c0.055,0.101,0.129,0.182,0.224,0.244c0.084,0.077,0.182,0.128,0.295,0.155c0.077,0.029,0.154,0.061,0.233,0.086
			c0.236,0.077,0.477,0.015,0.711-0.035c0.038-0.008,0.075-0.016,0.113-0.024c0.175-0.037,0.332-0.136,0.46-0.259
			c0.043-0.042,0.087-0.084,0.13-0.126c0.066-0.061,0.113-0.135,0.141-0.219c0.043-0.081,0.062-0.169,0.059-0.262
			C192.843,428.928,192.784,428.752,192.652,428.625z"/>
		<path style="fill:#FF8F3D;" d="M329.807,427.053c-0.045-0.159-0.105-0.308-0.226-0.428c-0.122-0.122-0.273-0.18-0.432-0.23
			c-0.104-0.033-0.174-0.049-0.312-0.049c-0.21,0-0.381,0.068-0.563,0.164c-0.122,0.064-0.242,0.132-0.362,0.197
			c-0.032,0.018-0.065,0.035-0.097,0.053c-0.206,0.117-0.343,0.262-0.47,0.458c-0.09,0.139-0.142,0.277-0.208,0.436
			c-0.05,0.121-0.099,0.242-0.149,0.364c-0.045,0.168-0.045,0.336,0,0.504c0.045,0.16,0.126,0.3,0.244,0.418
			c0.118,0.117,0.258,0.199,0.418,0.244c0.168,0.045,0.336,0.045,0.504,0c0.125-0.047,0.249-0.092,0.374-0.139
			c0.153-0.058,0.302-0.118,0.44-0.204c0.229-0.141,0.382-0.336,0.515-0.563c0.069-0.118,0.14-0.234,0.207-0.353
			C329.846,427.647,329.894,427.362,329.807,427.053z"/>
		<path style="fill:#FF8F3D;" d="M333.906,427.517c-0.001-0.005-0.001-0.009-0.002-0.014c-0.04-0.095-0.08-0.191-0.121-0.286
			c-0.003-0.008-0.007-0.016-0.01-0.023c-0.006-0.014-0.012-0.028-0.019-0.042c-0.057-0.074-0.114-0.148-0.171-0.222
			c-0.099-0.107-0.217-0.182-0.353-0.226c-0.085-0.05-0.178-0.075-0.276-0.075c-0.146-0.033-0.291-0.026-0.437,0.02
			c-0.018,0.004-0.037,0.008-0.055,0.012c-0.008,0.002-0.016,0.004-0.024,0.006c-0.053,0.011-0.102,0.032-0.149,0.061
			c-0.055,0.017-0.107,0.04-0.157,0.068c-0.181,0.107-0.326,0.252-0.433,0.433c-0.109,0.189-0.164,0.391-0.165,0.61
			c0.01,0.167,0.021,0.333,0.031,0.5c0,0.167,0.043,0.323,0.126,0.467c0.082,0.139,0.193,0.25,0.332,0.332
			c0.274,0.161,0.662,0.179,0.935,0l0.392-0.258c0.081-0.063,0.163-0.126,0.244-0.189c0.118-0.109,0.201-0.239,0.25-0.388
			c0.055-0.094,0.082-0.196,0.082-0.305C333.963,427.838,333.956,427.677,333.906,427.517z"/>
	</g>
	<g>
		<path style="fill:#EBBA9D;" d="M230.24,335.114c0,0-26.632,3.738-33.173,6.541c-6.541,2.803-21.493,25.464-24.296,30.37
			c-2.803,4.906,2.803,6.775,5.84,6.074c0,0,1.168,1.869,5.14,1.402c0,0,0,1.635,3.738,0.934c0,0,0.467,0.234,4.439-0.701
			c3.971-0.935,11.214-17.521,14.017-18.923c2.803-1.402,28.501-0.234,28.501-0.234L230.24,335.114z"/>
		<path style="fill:#697BAE;" d="M302.546,299.994c9.656-2.18,41.932-3.271,44.502,26.399c2.57,29.669-43.675,34.497-61.664,38.235
			c-17.989,3.738-73.589,0.934-73.589,0.934s-2.347-17.21-0.946-26.788c0,0,43.219-5.607,53.965-9.111
			c10.746-3.504,11.214-25.464,11.214-25.464L302.546,299.994z"/>
		<path style="fill:#EBBA9D;" d="M278.951,337.606c0,0,26.632,3.738,33.173,6.541c6.541,2.803,21.493,25.464,24.296,30.37
			c2.803,4.906-2.803,6.775-5.84,6.074c0,0-1.168,1.869-5.14,1.402c0,0,0,1.635-3.738,0.934c0,0-0.467,0.234-4.439-0.701
			c-3.971-0.934-11.214-17.521-14.017-18.923c-2.803-1.402-28.501-0.234-28.501-0.234L278.951,337.606z"/>
		<path style="fill:#EB977D;" d="M284.154,362.744c3.687-0.096,7.868-0.162,11.399-0.113c-0.246-7.991-2.034-15.924-5.199-23.266
			c-0.362-0.06-0.716-0.118-1.069-0.175L284.154,362.744z"/>
		<rect x="220.157" y="295.166" style="fill:#697BAE;" width="63.855" height="41.428"/>
		<path style="fill:#697BAE;" d="M205.05,300.306c-9.5-3.193-49.449-5.295-52.019,24.374c-2.57,29.669,43.92,37.145,61.908,40.883
			c17.988,3.738,73.793-1.012,73.793-1.012s1.899-17.911,0.497-27.489c0,0-43.219-5.607-53.965-9.111
			c-10.746-3.504-11.214-25.464-11.214-25.464L205.05,300.306z"/>
		<path style="fill:#222859;" d="M228.526,178.887c0,0-19.921-4.404-22.162-28.626c-2.241-24.222,13.198-43.061,30.13-44.285
			c0,0,15.688-14.435,22.162-11.744c6.474,2.691,4.98,10.521,4.98,10.521s9.462-5.138,15.19-0.489
			c5.727,4.649,0.498,11.01,0.498,11.01s8.466-0.734,11.953,5.138c3.486,5.872-7.719,14.68-7.719,14.68s7.968,28.871-11.703,40.859
			C252.182,187.94,228.526,178.887,228.526,178.887z"/>
		<path style="fill:#222859;" d="M231.371,190.195c0,0-17.288,3.582-28.501,11.681c-11.214,8.099-24.43,42.216-28.968,54.822
			c-7.009,19.468,6.23,31.928,14.017,32.862c7.787,0.935,18.689-13.55,18.689-13.55l-1.557,24.296c0,0,52.018,29.903,97.496-0.311
			l-0.467-21.648c0,0,16.042,11.214,23.517,7.476c10.473-5.236,13.706-20.091,10.279-31.928
			c-3.426-11.837-27.722-50.15-35.51-55.445s-33.018-10.279-33.018-10.279l-22.427-1.869L231.371,190.195z"/>
		<polygon style="fill:#FFFFFF;" points="222.96,287.69 224.674,289.248 287.439,233.492 285.725,231.934 		"/>
		<polygon style="fill:#FFFFFF;" points="270.307,287.69 222.96,287.69 238.379,231.934 285.725,231.934 		"/>
		<polygon style="fill:#FFFFFF;" points="272.098,286.444 224.752,286.444 240.17,230.688 287.516,230.688 		"/>
		<polygon style="fill:#D5F2F9;" points="272.02,289.248 224.674,289.248 240.092,233.492 287.439,233.492 		"/>
		<path style="fill:#697BAE;" d="M249.161,223.966l-33.264-26.881c0,0-0.247-1.128,0.482-2.004c0.73-0.876,1.865-0.9,1.865-0.9
			l33.264,26.88l2.445,4.721L249.161,223.966z"/>
		<path style="fill:#EBBA9D;" d="M233.084,174.932l-1.713,15.263c0,0,19.935,8.099,35.977-2.025l-3.582-13.238H233.084z"/>
		<path style="fill:#EBBA9D;" d="M180.91,257.476c0,0,21.96-23.985,26.788-30.059c4.828-6.074,7.943-11.214,11.369-15.107
			c3.426-3.894,13.082-5.14,16.353-5.295c3.271-0.156,9.033,4.049,10.123,5.451c1.09,1.402,0.934,2.492-1.557,2.803
			c0,0,2.18,2.18-0.779,3.738c0,0,0.935,1.713-2.18,2.336c-3.115,0.623-4.897-0.428-7.856,1.129
			c-2.959,1.558-28.277,47.619-31.08,51.668C202.091,274.141,182.934,275.075,180.91,257.476z"/>
		<path style="fill:#EBBA9D;" d="M332.879,261.938c-6.017-2.326-48.111-7.447-55.373-10.117c-5.353-1.968-13.421-9.944-16.149-9.648
			c-4.498,0.488,2.974,8.452,2.974,8.452s-9.107-4.827-12.214-6.599c-3.107-1.772-4.754,1.347-2.771,3.093
			c1.983,1.746,9.287,6.774,9.287,6.774s-7.326-4.057-11.338-5.607c-4.012-1.551-3.67,3.072-1.226,4.343
			c0,0-1.849,2.143,0.134,3.889c0,0-0.708,3.352,1.466,4.648c2.174,1.297,15.331,7.724,19.833,7.748
			c13.491,0.072,41.124,13.75,51.365,15.283C332.313,286.211,332.879,261.938,332.879,261.938z"/>
		<path style="fill:#EB977D;" d="M263.765,174.932h-30.681l-1.525,13.59c1.151,0.603,2.403,1.035,3.675,1.283
			c2.837,0.554,5.766,0.331,8.634-0.022c4.458-0.549,8.878-1.409,13.216-2.571c2.359-0.632,5.058-1.493,7.082-3.03
			c0.579-0.44,1.133-0.935,1.746-1.318L263.765,174.932z"/>
		<path style="fill:#EBBA9D;" d="M276.415,147.393c0.863,8.803,2.353,36.806-24.201,39.495
			c-26.554,2.689-30.924-23.865-30.924-23.865s-6.891,1.176-7.059-5.714c-0.168-6.891,6.372-6.764,6.372-6.764
			s11.779-7.521,17.662-19.286c0,0,3.193,4.706,8.235,5.546c5.042,0.84,5.714-3.866,5.714-3.866s3.529,4.538,7.731,4.874
			s4.034-3.529,4.034-3.529S275.575,138.822,276.415,147.393z"/>
		<g>
			<path style="fill:#EB977D;" d="M217.527,155.732c0.006,0.005,0.011,0.009,0.017,0.014c-0.004-0.004-0.009-0.007-0.013-0.011
				C217.53,155.734,217.528,155.733,217.527,155.732z"/>
			<path style="fill:#EB977D;" d="M221.027,157.236c-0.272-0.835-0.763-1.624-1.4-2.228c-0.344-0.325-0.736-0.618-1.156-0.839
				c-0.221-0.116-0.458-0.238-0.704-0.288c-0.314-0.064-0.724-0.123-1.007,0.072c-0.235,0.163-0.407,0.463-0.308,0.757
				c0.096,0.286,0.3,0.467,0.535,0.637c-0.002-0.002-0.005-0.004-0.007-0.005c0.004,0.003,0.007,0.005,0.011,0.008
				c0.008,0.006,0.015,0.014,0.023,0.02c0.012,0.008,0.014,0.01,0.02,0.014c0.056,0.044,0.11,0.091,0.168,0.131
				c0.073,0.051,0.151,0.095,0.224,0.145c0.034,0.023,0.067,0.047,0.1,0.071c-0.009-0.007-0.018-0.015-0.024-0.021
				c0.008,0.009,0.019,0.016,0.028,0.024c0.006,0.004,0.011,0.008,0.017,0.012c0.07,0.049,0.034,0.028-0.004-0.001
				c0.052,0.047,0.11,0.091,0.161,0.137c0.132,0.119,0.256,0.247,0.372,0.382c0.01,0.012,0.034,0.04,0.058,0.07
				c0.014,0.018,0.033,0.044,0.047,0.063c-0.041,0.036-0.083,0.069-0.121,0.107c-0.406,0.407-0.628,1.117-0.611,1.688
				c0.026,0.858,0.501,1.592,1.349,1.826c0.779,0.215,1.625-0.213,2.052-0.861C221.216,158.605,221.227,157.849,221.027,157.236z"/>
		</g>
		<path style="fill:#EB977D;" d="M263.979,134.284c0,0,0.168,3.866-4.034,3.53c-4.202-0.336-7.731-4.874-7.731-4.874
			s-0.672,4.706-5.714,3.866c-5.042-0.84-8.235-5.546-8.235-5.546c-4.656,9.311-13,15.96-16.28,18.33
			c3.277-1.52,11.964-6.018,17.377-13.204c0,0,3.738,3.037,7.359,3.154c3.621,0.117,5.607-2.336,5.607-2.336s4.789,3.037,8.06,2.803
			c3.271-0.234,5.023-2.453,5.023-2.453s5.347,1.765,9.81,5.936C272.064,137.452,263.979,134.284,263.979,134.284z"/>
		<path style="fill:#EB977D;" d="M251.508,221.061c0,0-2.437,0.348-2.347,2.904l4.792,1.816L251.508,221.061z"/>
		<path style="fill:#697BAE;" d="M253.954,225.782l-0.895-1.729c-0.347,0.219-0.703,0.546-0.977,1.019L253.954,225.782z"/>
		<path style="fill:#EB977D;" d="M181.249,257.105c-0.214,0.234-0.34,0.372-0.34,0.372c2.025,17.599,21.181,16.665,21.181,16.665
			c0.563-0.813,2.03-3.227,4.038-6.577c-3.732,0.01-7.448-0.227-11.064-1.111C189.517,265.097,184.15,261.984,181.249,257.105z"/>
		<path style="fill:#EB977D;" d="M332.879,261.938c-0.32-0.124-0.748-0.256-1.262-0.395c-0.652,2.095-1.332,4.185-2.268,6.167
			c-2.004,4.245-5.134,7.889-8.701,10.941c-1.932,1.653-3.998,3.133-6.129,4.523c1.658,0.483,3.129,0.842,4.348,1.024
			C332.313,286.211,332.879,261.938,332.879,261.938z"/>
		<path style="fill:#EB977D;" d="M265.048,250.465c-1.097-0.845-2.077-1.871-2.867-3.008c-0.447-0.644-0.841-1.325-1.175-2.035
			c-0.331-0.705-0.522-1.472-0.867-2.167c-0.124-0.249-0.541-0.132-0.526,0.143c0.037,0.675,0.306,1.354,0.559,1.973
			c0.254,0.623,0.547,1.229,0.886,1.811c0.689,1.185,1.552,2.291,2.559,3.224c0.242,0.224,0.492,0.44,0.75,0.646
			c0.246,0.197,0.575,0.549,0.921,0.47c0.183-0.042,0.289-0.159,0.308-0.339C265.634,250.83,265.29,250.651,265.048,250.465z"/>
		<path style="fill:#EB977D;" d="M259.695,253.926c-0.254-0.497-0.891-0.748-1.349-1.029c-0.547-0.335-1.091-0.676-1.631-1.022
			c-1.08-0.69-2.158-1.387-3.221-2.104c-1.014-0.683-2.042-1.353-3.025-2.081c-0.476-0.352-0.948-0.758-1.252-1.273
			c-0.343-0.583-0.322-1.114-0.218-1.755c0.051-0.312-0.308-0.458-0.497-0.21c-0.679,0.889-0.086,2.222,0.543,2.959
			c0.842,0.986,2.046,1.736,3.08,2.501c1.167,0.863,2.367,1.69,3.588,2.474c0.625,0.402,1.254,0.796,1.888,1.184
			c0.524,0.321,1.165,0.881,1.805,0.861C259.668,254.424,259.812,254.155,259.695,253.926z"/>
		<path style="fill:#EB977D;" d="M258.301,256.933c-1.332-0.534-2.753-0.902-4.111-1.373c-1.399-0.485-2.784-1.008-4.15-1.579
			c-1.271-0.531-2.627-1.029-3.798-1.763c-0.575-0.361-1.105-0.82-1.42-1.431c-0.363-0.704-0.274-1.348-0.165-2.097
			c0.019-0.134-0.129-0.249-0.24-0.14c-0.863,0.85-0.314,2.412,0.341,3.223c0.311,0.384,0.696,0.698,1.105,0.986
			c-0.76,0.636-0.887,1.96-0.595,2.841c0.132,0.398,0.343,0.722,0.603,0.997c-0.148,0.302-0.182,0.714-0.209,0.999
			c-0.052,0.557,0.009,1.127,0.167,1.663c0.339,1.148,1.097,2.095,2.138,2.682c1.313,0.741,2.826,1.199,4.225,1.751
			c0.749,0.295,1.496,0.596,2.248,0.883c0.651,0.248,1.442,0.73,2.153,0.585c0.15-0.03,0.244-0.244,0.151-0.372
			c-0.369-0.506-1.042-0.655-1.603-0.877c-0.624-0.247-1.249-0.488-1.876-0.728c-1.331-0.51-2.67-1.001-3.994-1.528
			c-1.13-0.45-2.09-1.085-2.579-2.24c-0.205-0.483-0.312-1.009-0.319-1.533c-0.003-0.255,0.017-0.51,0.068-0.76
			c0.003-0.013,0.007-0.025,0.01-0.038c0.375,0.254,0.797,0.457,1.23,0.634c2.874,1.173,5.73,2.394,8.609,3.557
			c0.199,0.081,0.401-0.059,0.512-0.208c0.051-0.069,0.052-0.147,0.062-0.229c0.026-0.211-0.162-0.368-0.333-0.437
			c-2.413-0.975-4.849-1.896-7.268-2.854c-0.989-0.392-2.376-0.745-3-1.682c-0.263-0.395-0.366-0.876-0.339-1.347
			c0.032-0.54,0.285-0.902,0.548-1.348c0.653,0.381,1.353,0.695,2.006,1.003c1.513,0.711,3.051,1.369,4.609,1.973
			c1.598,0.62,3.297,1.305,4.985,1.625C258.627,257.876,258.816,257.14,258.301,256.933z"/>
		<path style="fill:#EB977D;" d="M246.264,214.507c0.07-0.275-0.226-0.498-0.472-0.363c-0.491,0.271-0.873,0.579-1.463,0.596
			c-0.684,0.02-1.33-0.288-1.918-0.604c-1.248-0.672-2.456-1.413-3.755-1.987c-1.188-0.525-2.424-0.908-3.724-1.013
			c-1.13-0.091-2.636-0.038-3.505,0.794c-0.107,0.103-0.029,0.312,0.126,0.303c0.679-0.04,1.332-0.258,2.013-0.299
			c0.737-0.044,1.474,0.013,2.196,0.167c1.487,0.319,2.866,0.995,4.19,1.725c1.176,0.649,2.393,1.549,3.743,1.777
			c0.109,0.018,0.226,0.031,0.347,0.038c0.004,0.018,0.001,0.036,0.008,0.053c0.23,0.532,0.438,1.018,0.158,1.592
			c-0.264,0.54-0.881,0.847-1.449,0.943c-1.373,0.232-2.879-0.48-4.111-1.001c-1.19-0.503-2.371-1.027-3.645-1.28
			c-0.906-0.18-2.436-0.449-3.187,0.246c-0.054,0.05-0.026,0.146,0.043,0.164c0.35,0.09,0.702,0.028,1.06,0.021
			c0.43-0.008,0.853,0.024,1.276,0.1c0.81,0.147,1.592,0.424,2.345,0.752c1.476,0.642,2.935,1.44,4.517,1.791
			c0.498,0.111,1.029,0.161,1.545,0.121c0.007,2.037-2.459,2.47-4.021,2.435c-2.008-0.045-4.127-0.232-6.094,0.289
			c-0.294,0.078-0.231,0.524,0.071,0.527c1.248,0.013,2.49-0.135,3.74-0.113c1.168,0.02,2.35,0.185,3.517,0.076
			c1.716-0.161,3.71-1.279,3.537-3.267c-0.003-0.03-0.015-0.052-0.023-0.079c0.531-0.15,1.02-0.423,1.398-0.879
			c0.536-0.647,0.717-1.914,0.072-2.532C245.466,215.493,246.094,215.171,246.264,214.507z"/>
		<path style="fill:#222859;" d="M245.395,147.735c-0.387-0.385-0.884-0.729-1.368-0.987c-1.011-0.54-2.188-0.826-3.334-0.811
			c-1.113,0.014-2.198,0.303-3.161,0.861c-0.932,0.539-2.002,1.517-2.016,2.659c-0.008,0.62,0.581,0.986,1.144,0.872
			c0.422-0.086,0.74-0.293,1.095-0.522c0.322-0.207,0.665-0.361,1.01-0.524c0.021-0.01,0.038-0.017,0.053-0.024
			c0.086-0.032,0.171-0.064,0.258-0.093c0.18-0.059,0.364-0.108,0.548-0.154c0.082-0.02,0.164-0.041,0.247-0.058
			c0.02-0.004,0.12-0.021,0.185-0.033c0.047-0.005,0.104-0.011,0.117-0.012c0.108-0.008,0.217-0.013,0.325-0.015
			c0.174-0.002,0.347,0.008,0.521,0.019c0.022,0.001,0.031,0.002,0.048,0.002c0.004,0.001,0.004,0.001,0.008,0.002
			c0.084,0.019,0.171,0.031,0.255,0.05c0.191,0.042,0.38,0.093,0.565,0.154c-0.002-0.001,0.094,0.033,0.165,0.057
			c0.045,0.019,0.121,0.05,0.137,0.058c0.348,0.166,0.67,0.36,0.987,0.576c0.018,0.015,0.039,0.033,0.073,0.061
			c0.087,0.071,0.18,0.137,0.272,0.204c0.004,0.008,0.008,0.017,0.029,0.045c0.151,0.199,0.435,0.291,0.659,0.377
			c0.445,0.171,0.975-0.041,1.301-0.344C246.231,149.494,246.027,148.365,245.395,147.735z"/>
		<path style="fill:#222859;" d="M266.731,147.423c-0.387-0.385-0.884-0.729-1.368-0.987c-1.011-0.54-2.188-0.826-3.334-0.811
			c-1.113,0.014-2.198,0.303-3.162,0.86c-0.932,0.539-2.002,1.517-2.016,2.659c-0.008,0.62,0.582,0.986,1.144,0.872
			c0.422-0.086,0.74-0.293,1.095-0.522c0.322-0.207,0.665-0.361,1.01-0.524c0.021-0.01,0.038-0.017,0.053-0.024
			c0.086-0.032,0.171-0.064,0.259-0.093c0.18-0.059,0.364-0.108,0.548-0.154c0.082-0.02,0.164-0.041,0.247-0.058
			c0.02-0.004,0.119-0.021,0.185-0.033c0.047-0.005,0.103-0.011,0.117-0.012c0.108-0.008,0.216-0.013,0.325-0.015
			c0.174-0.002,0.347,0.008,0.521,0.019c0.022,0.002,0.031,0.002,0.048,0.002c0.004,0.001,0.003,0.001,0.008,0.002
			c0.084,0.019,0.171,0.031,0.255,0.05c0.191,0.042,0.38,0.093,0.565,0.154c-0.002-0.001,0.095,0.033,0.165,0.057
			c0.045,0.019,0.121,0.05,0.137,0.058c0.348,0.166,0.67,0.359,0.987,0.576c0.018,0.015,0.039,0.033,0.073,0.061
			c0.087,0.071,0.18,0.137,0.272,0.204c0.004,0.008,0.008,0.016,0.029,0.045c0.151,0.199,0.436,0.291,0.659,0.377
			c0.446,0.172,0.975-0.041,1.302-0.344C267.568,149.183,267.364,148.053,266.731,147.423z"/>
		<path style="fill:#222859;" d="M243.276,155.919c-0.334-0.686-0.926-1.251-1.648-1.503c-0.857-0.3-1.768-0.001-2.439,0.559
			c-0.58,0.483-0.933,1.225-1.062,1.96c-0.114,0.653-0.186,1.346-0.116,2.008c0.129,1.224,0.582,2.876,1.636,3.612
			C243.214,165.043,244.276,157.974,243.276,155.919z"/>
		<path style="fill:#222859;" d="M264.302,155.141c-0.334-0.686-0.926-1.251-1.648-1.503c-0.857-0.299-1.768-0.001-2.439,0.559
			c-0.58,0.483-0.933,1.225-1.062,1.96c-0.114,0.653-0.186,1.346-0.116,2.008c0.129,1.224,0.582,2.876,1.636,3.612
			C264.282,164.294,265.301,157.193,264.302,155.141z"/>
		<path style="fill:#EB977D;" d="M252.814,163.157c-0.364,0.004-0.626,0.143-0.941,0.298c-0.022,0.011-0.043,0.021-0.066,0.031
			c-0.064,0.029-0.044,0.021,0.063-0.024c-0.026,0.025-0.101,0.04-0.135,0.052c-0.102,0.038-0.205,0.074-0.307,0.111
			c-0.216,0.08-0.438,0.142-0.664,0.186c-0.01,0.002-0.045,0.008-0.077,0.014c-0.027,0.004-0.063,0.009-0.074,0.01
			c-0.121,0.012-0.243,0.018-0.365,0.019c-0.109,0.001-0.218-0.002-0.327-0.009c-0.048-0.003-0.096-0.008-0.145-0.012
			c-0.013-0.001-0.009,0-0.019-0.001c-0.003-0.001,0.001,0-0.003-0.001c-0.226-0.047-0.456-0.071-0.682-0.122
			c-0.21-0.047-0.408-0.122-0.612-0.188c-0.107-0.035-0.218-0.08-0.327-0.109c-0.146-0.039-0.287,0.002-0.431,0.023
			c-0.171,0.025-0.303,0.231-0.299,0.394c0.007,0.338,0.168,0.584,0.403,0.818c0.19,0.189,0.436,0.351,0.666,0.488
			c0.548,0.325,1.147,0.456,1.776,0.511c0.563,0.049,1.149-0.01,1.695-0.153c0.299-0.079,0.592-0.219,0.861-0.372
			c0.385-0.22,0.666-0.484,0.809-0.914C253.783,163.695,253.331,163.15,252.814,163.157z"/>
		<path style="fill:#EB977D;" d="M256.101,170.483c-0.814-0.127-1.661,0.468-2.383,0.786c-0.705,0.311-1.503,0.541-2.275,0.584
			c-0.814,0.045-1.617-0.069-2.4-0.284c-0.408-0.112-0.792-0.26-1.188-0.404c-0.339-0.124-0.778-0.306-1.136-0.187
			c-0.149,0.05-0.213,0.158-0.233,0.305c-0.058,0.429,0.336,0.882,0.625,1.159c0.357,0.342,0.836,0.646,1.282,0.859
			c0.957,0.458,1.988,0.69,3.05,0.677c1.08-0.013,2.118-0.255,3.088-0.725c0.473-0.229,0.958-0.525,1.298-0.931
			c0.322-0.384,0.711-0.805,0.649-1.344C256.454,170.773,256.337,170.52,256.101,170.483z"/>
		<path style="fill:#FFFFFF;" d="M244.11,155.145c-0.065-0.233-0.183-0.434-0.353-0.605c-0.092-0.072-0.185-0.143-0.277-0.214
			c-0.214-0.124-0.445-0.186-0.692-0.187c-0.189-0.007-0.365,0.032-0.528,0.118c-0.17,0.055-0.317,0.15-0.441,0.284
			c-0.134,0.124-0.228,0.271-0.284,0.441c-0.086,0.163-0.125,0.339-0.118,0.528c0.016,0.121,0.033,0.243,0.049,0.365
			c0.065,0.232,0.183,0.434,0.353,0.605c0.092,0.071,0.185,0.143,0.277,0.214c0.214,0.124,0.445,0.186,0.692,0.187
			c0.189,0.007,0.365-0.032,0.528-0.118c0.17-0.055,0.317-0.15,0.441-0.283c0.134-0.124,0.228-0.271,0.283-0.441
			c0.086-0.163,0.125-0.339,0.118-0.528C244.143,155.388,244.127,155.266,244.11,155.145z"/>
		<path style="fill:#FFFFFF;" d="M265.136,154.366c-0.065-0.232-0.183-0.434-0.353-0.605c-0.092-0.071-0.185-0.143-0.277-0.214
			c-0.214-0.124-0.445-0.187-0.692-0.188c-0.189-0.007-0.365,0.032-0.528,0.118c-0.17,0.055-0.317,0.15-0.441,0.283
			c-0.134,0.124-0.228,0.271-0.284,0.441c-0.086,0.163-0.125,0.34-0.118,0.528c0.016,0.121,0.033,0.243,0.049,0.365
			c0.065,0.232,0.183,0.434,0.353,0.605c0.092,0.071,0.185,0.143,0.277,0.214c0.214,0.124,0.445,0.187,0.692,0.187
			c0.189,0.007,0.365-0.032,0.528-0.118c0.17-0.055,0.317-0.15,0.441-0.283c0.134-0.124,0.228-0.271,0.284-0.441
			c0.086-0.163,0.125-0.339,0.118-0.528C265.168,154.609,265.152,154.488,265.136,154.366z"/>
		<path style="fill:#697BAE;" d="M272.806,189.344c-0.729-0.165-1.403-0.315-2.012-0.448c-0.378,0.443-0.767,0.879-1.176,1.296
			c-2.447,2.496-5.389,4.502-8.545,5.992c-7.139,3.37-15.86,3.989-23.26,1.108c-1.94-0.756-3.791-1.774-5.468-3.009
			c-1.377-1.014-2.513-2.27-3.743-3.428c-0.386,0.099-0.808,0.21-1.259,0.332c1.675,3.002,5.224,5.265,8.161,6.701
			c3.984,1.947,8.411,2.805,12.831,2.79c7.852-0.027,15.776-2.87,21.584-8.21C270.963,191.506,271.926,190.458,272.806,189.344z"/>
		<path style="fill:#697BAE;" d="M304.322,249.68c-0.352-1.727-0.72-3.45-1.125-5.165c-0.81-3.432-1.694-6.845-2.658-10.236
			c-0.964-3.395-2.007-6.766-3.123-10.113c-0.309-0.927-0.637-1.847-0.971-2.766c0.035-0.009,0.068-0.007,0.103-0.025
			c0.389-0.202,0.592-0.677,0.766-1.058c0.173-0.378,0.277-0.588,0.473-0.956c0.191-0.357,0.424-0.701,0.59-1.07
			c0.084-0.186,0.194-0.38,0.197-0.587c0.004-0.226-0.131-0.491-0.374-0.521c-0.22-0.028-0.409,0.033-0.566,0.19
			c-0.146,0.145-0.298,0.32-0.408,0.495c-0.196,0.308-0.377,0.627-0.552,0.947c-0.185,0.339-0.36,0.684-0.529,1.032
			c-0.049,0.102-0.1,0.217-0.147,0.335c-0.064-0.173-0.126-0.346-0.19-0.519c-0.591-1.587-1.071-3.237-2.103-4.597
			c-0.084-0.11-0.295-0.042-0.29,0.1c0.057,1.634,0.655,3.146,1.119,4.703c0.502,1.684,0.983,3.374,1.478,5.061
			c0.968,3.304,1.874,6.628,2.716,9.967c0.843,3.341,1.627,6.698,2.344,10.068c0.35,1.648,0.702,3.297,1.035,4.949
			c0.322,1.595,0.462,3.398,1.432,4.749c0.302,0.42,1.063,0.247,1.191-0.238C305.14,252.878,304.634,251.208,304.322,249.68z"/>
		<path style="fill:#697BAE;" d="M333.911,262.548c-0.348-2.954-3.062-5.346-5.974-5.747c-0.468-0.065-0.975,0.5-0.522,0.896
			c0.973,0.851,2.18,1.362,3.177,2.178c1.328,1.087,1.67,2.38,1.655,4.049c-0.029,3.275-0.41,6.617-1.396,9.748
			c-0.905,2.874-2.378,5.596-4.476,7.775c-0.964,1-2.055,1.865-3.252,2.57c-0.68,0.401-1.381,0.739-2.111,1.041
			c-0.531,0.22-0.867,0.252-1.098,0.764c-0.061,0.135-0.032,0.265,0.092,0.352c0.954,0.664,2.894-0.527,3.784-1.015
			c1.316-0.721,2.525-1.653,3.605-2.691c2.501-2.404,4.217-5.451,5.254-8.744C333.748,270.242,334.341,266.194,333.911,262.548z"/>
		<path style="fill:#697BAE;" d="M208.14,271.269c0.061-0.738,0.113-1.484,0.131-2.224c0.019-0.793-0.177-1.472-0.328-2.236
			c-0.01-0.049-0.072-0.036-0.087,0c-0.295,0.703-0.619,1.313-0.761,2.077c-0.141,0.758-0.242,1.533-0.336,2.298
			c-0.081,0.664-0.167,1.327-0.243,1.992c-1.019,0.081-2.145,0.515-3.042,0.649c-1.602,0.239-3.25,0.297-4.863,0.155
			c-3.271-0.288-6.518-1.391-9.237-3.239c-2.487-1.69-4.476-4.075-5.791-6.771c-0.653-1.337-1.133-2.778-1.432-4.236
			c-0.319-1.552-0.225-3.075-0.337-4.64c-0.041-0.57-0.829-0.706-1.009-0.137c-0.926,2.929-0.017,6.602,1.19,9.314
			c1.36,3.057,3.543,5.721,6.255,7.678c2.868,2.069,6.278,3.224,9.777,3.596c1.823,0.194,3.659,0.188,5.478-0.038
			c0.827-0.103,1.941-0.193,2.89-0.512c0.029,0.233,0.088,0.451,0.208,0.626c0.179,0.261,0.527,0.328,0.767,0.099
			c0.402-0.385,0.49-1.094,0.542-1.711c0.005-0.007,0.013-0.012,0.019-0.02c0.1-0.139,0.089-0.299,0.02-0.434
			c0.002-0.019,0.003-0.044,0.005-0.063C208.033,272.754,208.078,272.01,208.14,271.269z"/>
		<path style="fill:#222859;" d="M318.829,312.181c-1.625,0.266-3.2,1.314-4.679,2.232c-0.349-0.114-0.701-0.222-1.049-0.332
			c-0.462-0.146-0.916-0.276-1.391-0.378c-0.52-0.112-1.094-0.241-1.542,0.12c-0.095,0.077-0.117,0.227-0.089,0.338
			c0.13,0.521,0.691,0.76,1.136,0.962c0.33,0.151,0.668,0.272,1.006,0.396c-1.732,0.948-3.469,1.881-5.25,2.735
			c-4.084,1.958-8.345,3.555-12.656,4.938c-9.164,2.938-18.696,4.737-28.242,5.863c-5.365,0.633-10.779,0.907-16.128,1.641
			c-10.839-2.753-21.423-6.574-31.447-11.531c-3.625-1.792-7.16-3.742-10.675-5.73c0.115-0.013,0.233-0.014,0.345-0.035
			c0.453-0.085,1.178-0.36,1.306-0.872c0.168-0.667-0.849-0.886-1.256-0.927c-0.49-0.049-0.996-0.023-1.488-0.015
			c-0.496,0.008-0.992-0.007-1.486-0.046c-0.23-0.018-0.459-0.022-0.689-0.029c-0.042-0.001-0.085-0.003-0.128-0.006
			c-1.332-0.762-2.663-1.526-3.998-2.284c-0.487-0.277-1.096,0.436-0.622,0.807c1.166,0.914,2.36,1.793,3.574,2.646
			c0.044,0.049,0.095,0.092,0.154,0.128c0.014,0.008,0.028,0.017,0.041,0.025c0.078,0.064,0.164,0.114,0.255,0.156
			c8.756,6.075,18.661,10.668,28.542,14.465c11.627,4.467,23.791,7.544,36.14,9.17c6.663,0.877,13.274,1.15,19.972,1.236
			c0.12,4.25,0.148,8.511,0.041,12.759c-0.109,4.297-0.562,8.543-0.999,12.811c-7.984-0.198-15.8,2.091-23.772,2.316
			c-8.403,0.237-16.865,0.149-25.269-0.009c-16.457-0.308-33.04-1.671-48.818-6.645c-4.37-1.378-8.689-3.006-12.849-4.93
			c-1.949-0.901-3.877-1.853-5.744-2.915c-1.919-1.092-3.711-2.382-5.629-3.471c-0.253-0.144-0.486,0.182-0.302,0.392
			c2.48,2.827,6.056,4.837,9.332,6.611c3.498,1.894,7.155,3.527,10.887,4.902c7.604,2.802,15.502,4.697,23.502,5.944
			c16.921,2.639,34.152,2.549,51.228,2.208c4.707-0.094,9.309-0.546,13.951-1.323c4.569-0.765,9.156-1.54,13.802-1.392
			c0.511,0.299,1.323,0.186,1.428-0.506c0.687-4.545,0.972-9.17,1.243-13.756c0.276-4.683,0.294-9.348,0.041-14.031
			c-0.03-0.561-0.456-1.056-1.048-1.048c-6.141,0.074-12.392-0.453-18.487-1.166c-5.163-0.604-10.292-1.471-15.372-2.57
			c3.101-0.159,6.203-0.467,9.271-0.784c4.949-0.512,9.887-1.18,14.78-2.085c9.24-1.709,18.25-4.454,26.797-8.362
			c2.322-1.061,4.625-2.199,6.835-3.478c0.604-0.35,1.209-0.709,1.804-1.084c0.01-0.002,0.02,0,0.03-0.002
			c0.082-0.012,0.158-0.039,0.23-0.081c0.136-0.108,0.17-0.134,0.102-0.077c0.088-0.05,0.14-0.123,0.177-0.203
			c0.362-0.238,0.729-0.47,1.077-0.724c0.939-0.688,1.948-1.356,2.543-2.374C319.484,312.447,319.165,312.126,318.829,312.181z"/>
	</g>
	<g>
		<polygon style="fill:#FF8F3D;" points="270.628,433.837 314.859,412.655 271.367,376.484 225.462,393.188 		"/>
		<polygon style="fill:#FF8F3D;" points="255.968,434.693 300.199,413.512 256.708,377.341 210.802,394.044 		"/>
		<polygon style="fill:#FFFFFF;" points="257.701,434.538 301.932,413.356 258.441,377.185 212.535,393.888 		"/>
		<polygon style="fill:#FFFFFF;" points="270.744,432.61 314.976,411.429 271.484,375.257 225.579,391.961 		"/>
		<g>
			<path style="fill:#9DC9DD;" d="M270.55,424.446c-0.136,0-0.266-0.076-0.328-0.208c-0.086-0.181-0.009-0.397,0.173-0.482
				l29.669-14.017c0.182-0.085,0.397-0.008,0.482,0.173c0.086,0.181,0.009,0.397-0.173,0.482l-29.669,14.016
				C270.655,424.434,270.602,424.446,270.55,424.446z"/>
		</g>
		<g>
			<path style="fill:#9DC9DD;" d="M263.775,418.605c-0.138,0-0.27-0.079-0.331-0.214c-0.082-0.182-0.001-0.396,0.182-0.479
				l34.341-15.419c0.181-0.081,0.397-0.002,0.479,0.182c0.082,0.182,0.001,0.397-0.182,0.479l-34.341,15.419
				C263.875,418.595,263.825,418.605,263.775,418.605z"/>
		</g>
		<g>
			<path style="fill:#9DC9DD;" d="M257.935,413.466c-0.138,0-0.27-0.079-0.331-0.214c-0.082-0.182-0.001-0.396,0.182-0.479
				l34.341-15.419c0.18-0.081,0.396-0.002,0.479,0.182c0.082,0.182,0.001,0.396-0.182,0.479l-34.341,15.419
				C258.035,413.455,257.985,413.466,257.935,413.466z"/>
		</g>
		<g>
			<path style="fill:#9DC9DD;" d="M252.094,408.326c-0.138,0-0.27-0.079-0.331-0.214c-0.082-0.182,0-0.397,0.182-0.479
				l34.342-15.419c0.18-0.082,0.397-0.002,0.479,0.182c0.082,0.182,0.001,0.397-0.182,0.479l-34.34,15.419
				C252.195,408.316,252.144,408.326,252.094,408.326z"/>
		</g>
		<g>
			<path style="fill:#9DC9DD;" d="M246.253,403.187c-0.138,0-0.27-0.079-0.331-0.214c-0.082-0.182,0-0.397,0.182-0.479
				l34.342-15.419c0.18-0.081,0.397-0.002,0.479,0.182c0.082,0.182,0.001,0.397-0.182,0.479l-34.341,15.419
				C246.353,403.176,246.303,403.187,246.253,403.187z"/>
		</g>
		<g>
			<path style="fill:#9DC9DD;" d="M261.672,388.235c-0.141,0-0.275-0.082-0.333-0.22c-0.078-0.184,0.007-0.397,0.191-0.476
				l13.082-5.607c0.182-0.077,0.398,0.006,0.476,0.191c0.078,0.184-0.007,0.396-0.191,0.476l-13.083,5.607
				C261.768,388.226,261.72,388.235,261.672,388.235z"/>
		</g>
		<polygon style="fill:#D5F2F9;" points="267.612,429.791 225.579,391.961 260.798,379.146 222.833,391.552 		"/>
	</g>
	<g>
		<polygon style="fill:#FF8F3D;" points="366.901,398.211 341.115,376.302 385.911,358.407 413.645,377.908 		"/>
		<polygon style="fill:#FFFFFF;" points="366.959,397.101 341.174,375.193 385.969,357.298 413.703,376.798 		"/>
		<g>
			<path style="fill:#9DC9DD;" d="M352.944,374.959c-0.042-0.091-0.031-0.203,0.038-0.284c0.095-0.114,0.264-0.129,0.378-0.033
				l18.586,15.599c0.113,0.096,0.129,0.264,0.033,0.378c-0.095,0.114-0.265,0.129-0.378,0.033l-18.586-15.599
				C352.985,375.026,352.961,374.993,352.944,374.959z"/>
		</g>
		<g>
			<path style="fill:#9DC9DD;" d="M358.612,372.148c-0.042-0.091-0.031-0.203,0.038-0.284c0.095-0.114,0.264-0.129,0.378-0.033
				l18.586,15.599c0.113,0.096,0.129,0.264,0.033,0.378c-0.095,0.114-0.264,0.129-0.377,0.033l-18.586-15.599
				C358.652,372.215,358.628,372.183,358.612,372.148z"/>
		</g>
		<g>
			<path style="fill:#9DC9DD;" d="M364.625,369.764c-0.042-0.091-0.031-0.203,0.038-0.284c0.095-0.114,0.264-0.129,0.378-0.033
				l18.586,15.599c0.113,0.096,0.129,0.264,0.033,0.378c-0.095,0.114-0.265,0.129-0.378,0.033l-18.586-15.599
				C364.665,369.831,364.641,369.799,364.625,369.764z"/>
		</g>
		<g>
			<path style="fill:#9DC9DD;" d="M371.062,367.315c-0.042-0.091-0.031-0.203,0.038-0.284c0.095-0.114,0.264-0.129,0.377-0.033
				l18.586,15.599c0.113,0.096,0.129,0.264,0.033,0.378c-0.095,0.114-0.264,0.129-0.378,0.033l-18.586-15.599
				C371.102,367.382,371.078,367.35,371.062,367.315z"/>
		</g>
		<g>
			<path style="fill:#9DC9DD;" d="M376.157,365.2c-0.042-0.091-0.031-0.202,0.038-0.284c0.095-0.114,0.264-0.129,0.378-0.033
				l18.586,15.599c0.113,0.096,0.129,0.264,0.033,0.378c-0.095,0.114-0.264,0.129-0.378,0.033l-18.586-15.599
				C376.197,365.267,376.173,365.235,376.157,365.2z"/>
		</g>
		<g>
			<path style="fill:#9DC9DD;" d="M380.623,362.726c-0.042-0.091-0.031-0.203,0.038-0.284c0.095-0.114,0.264-0.129,0.378-0.033
				l18.586,15.599c0.113,0.096,0.129,0.264,0.033,0.378c-0.095,0.114-0.264,0.128-0.378,0.033l-18.586-15.599
				C380.663,362.793,380.639,362.76,380.623,362.726z"/>
		</g>
	</g>
	<g>
		<polygon style="fill:#FF8F3D;" points="145.369,409.656 169.669,390.276 129.05,372.568 103.03,389.681 		"/>
		<polygon style="fill:#FFFFFF;" points="145.018,408.371 169.318,388.992 128.7,371.283 102.679,388.396 		"/>
		<g>
			<path style="fill:#9DC9DD;" d="M158.518,388.441c0.041-0.083,0.034-0.185-0.027-0.262c-0.084-0.107-0.239-0.126-0.346-0.041
				l-17.51,13.792c-0.107,0.085-0.126,0.239-0.041,0.346c0.084,0.107,0.239,0.126,0.346,0.041l17.51-13.792
				C158.479,388.501,158.502,388.472,158.518,388.441z"/>
		</g>
		<g>
			<path style="fill:#9DC9DD;" d="M153.395,385.698c0.041-0.083,0.034-0.185-0.027-0.262c-0.084-0.107-0.239-0.125-0.346-0.041
				l-17.51,13.792c-0.107,0.085-0.126,0.239-0.041,0.346c0.084,0.107,0.239,0.126,0.346,0.041l17.51-13.792
				C153.356,385.759,153.379,385.73,153.395,385.698z"/>
		</g>
		<g>
			<path style="fill:#9DC9DD;" d="M147.941,383.338c0.041-0.083,0.034-0.185-0.027-0.262c-0.084-0.107-0.239-0.126-0.346-0.041
				l-17.51,13.792c-0.107,0.085-0.126,0.239-0.041,0.346c0.084,0.107,0.239,0.126,0.346,0.041l17.51-13.792
				C147.903,383.398,147.926,383.37,147.941,383.338z"/>
		</g>
		<g>
			<path style="fill:#9DC9DD;" d="M142.101,380.906c0.041-0.083,0.034-0.185-0.027-0.262c-0.084-0.107-0.239-0.126-0.346-0.041
				l-17.51,13.792c-0.107,0.085-0.126,0.239-0.041,0.346c0.084,0.107,0.239,0.126,0.346,0.041l17.51-13.792
				C142.063,380.966,142.086,380.938,142.101,380.906z"/>
		</g>
		<g>
			<path style="fill:#9DC9DD;" d="M137.484,378.819c0.041-0.083,0.034-0.185-0.027-0.262c-0.084-0.107-0.239-0.126-0.346-0.041
				l-17.51,13.792c-0.107,0.085-0.126,0.239-0.041,0.346c0.084,0.107,0.239,0.125,0.346,0.041l17.51-13.792
				C137.445,378.879,137.468,378.851,137.484,378.819z"/>
		</g>
		<g>
			<path style="fill:#9DC9DD;" d="M133.454,376.419c0.041-0.083,0.034-0.185-0.027-0.262c-0.084-0.107-0.239-0.126-0.346-0.041
				l-17.51,13.792c-0.107,0.085-0.126,0.239-0.041,0.346c0.084,0.107,0.239,0.126,0.346,0.041l17.51-13.792
				C133.415,376.48,133.438,376.451,133.454,376.419z"/>
		</g>
	</g>
	<g>
		<ellipse style="fill:#74A7CB;" cx="97.702" cy="329.298" rx="25.536" ry="7.499"/>
		<g>
			<path style="fill:#4D867E;" d="M123.302,161.463c-3.571-0.565-6.645,2.425-8.986,4.696c-2.656,2.577-4.959,5.493-7.008,8.57
				c-4.276,6.421-7.443,13.587-10.054,20.825c-2.792,7.743-4.85,15.747-6.124,23.879c-1.556,9.932-1.971,20.041-1.211,30.066
				c0.419,5.539,1.046,11.152,2.283,16.571c1.622,7.104,5.677,10.069,8.971,1.657c1.615-4.124,3.101-8.299,4.514-12.497
				c2.89-8.585,5.362-17.295,7.867-25.999c2.549-8.855,5.098-17.711,7.647-26.567c2.493-8.663,5.546-17.386,7.161-26.266
				C129.217,171.696,129.912,162.509,123.302,161.463z"/>
			<path style="fill:#83BAA8;" d="M114.868,179.786c-4.044,6.365-6.845,13.423-9.241,20.548c-2.432,7.234-4.342,14.628-5.796,22.119
				c-2.919,15.037-4.207,30.368-4.497,45.671c-0.08,4.228-0.093,8.458-0.055,12.686c0.038,4.24-0.118,8.582,0.478,12.786
				c0.095,0.669,1.035,0.423,1.094-0.148c0.388-3.77,0.16-7.614,0.191-11.402c0.032-3.816,0.104-7.632,0.228-11.446
				c0.245-7.53,0.68-15.051,1.376-22.553c1.385-14.936,3.992-29.812,8.472-44.146c2.516-8.051,5.857-15.773,8.968-23.601
				C116.374,179.573,115.255,179.176,114.868,179.786z"/>
			<path style="fill:#4D867E;" d="M42.559,195.296c2.748-1.243,5.882,0.484,8.267,1.796c2.706,1.487,5.203,3.326,7.531,5.349
				c4.858,4.223,8.988,9.289,12.686,14.538c3.956,5.614,7.378,11.6,10.198,17.862c3.445,7.648,6.009,15.691,7.611,23.925
				c0.885,4.549,1.62,9.204,1.821,13.838c0.263,6.074-2.346,9.355-6.853,3.313c-2.21-2.962-4.327-5.994-6.39-9.059
				c-4.22-6.27-8.132-12.733-12.069-19.183c-4.005-6.563-8.011-13.126-12.017-19.689c-3.918-6.42-8.3-12.766-11.56-19.555
				C40.058,204.836,37.471,197.596,42.559,195.296z"/>
			<path style="fill:#83BAA8;" d="M53.39,208.178c4.659,4.229,8.471,9.29,11.971,14.494c3.553,5.284,6.722,10.813,9.546,16.519
				c5.668,11.455,10.088,23.507,13.699,35.756c0.998,3.385,1.942,6.785,2.845,10.196c0.905,3.42,1.99,6.88,2.437,10.394
				c0.071,0.559-0.74,0.569-0.913,0.122c-1.144-2.948-1.809-6.091-2.67-9.133c-0.868-3.063-1.768-6.118-2.71-9.159
				c-1.859-6.005-3.869-11.961-6.085-17.844c-4.411-11.713-9.792-23.107-16.561-33.652c-3.801-5.923-8.194-11.399-12.425-17.011
				C52.131,208.339,52.943,207.773,53.39,208.178z"/>
			<path style="fill:#4D867E;" d="M148.47,197.78c-2.672-1.084-5.6,0.684-7.83,2.025c-2.529,1.522-4.846,3.372-6.993,5.392
				c-4.482,4.216-8.237,9.211-11.573,14.363c-3.568,5.511-6.613,11.358-9.072,17.445c-3.004,7.435-5.152,15.214-6.373,23.14
				c-0.675,4.379-1.202,8.853-1.22,13.287c-0.023,5.812,2.592,8.849,6.67,2.908c2-2.912,3.909-5.888,5.765-8.893
				c3.797-6.148,7.291-12.468,10.809-18.777c3.58-6.42,7.16-12.839,10.741-19.259c3.502-6.28,7.45-12.506,10.309-19.113
				C151.217,206.799,153.417,199.787,148.47,197.78z"/>
			<path style="fill:#83BAA8;" d="M138.607,210.492c-4.291,4.214-7.744,9.192-10.892,14.294c-3.196,5.181-6.016,10.581-8.499,16.137
				c-4.985,11.156-8.755,22.833-11.745,34.67c-0.826,3.271-1.6,6.554-2.335,9.846c-0.736,3.301-1.643,6.646-1.938,10.02
				c-0.047,0.537,0.728,0.516,0.877,0.083c0.982-2.859,1.5-5.887,2.208-8.824c0.714-2.959,1.459-5.91,2.245-8.851
				c1.551-5.806,3.248-11.57,5.144-17.273c3.774-11.354,8.487-22.44,14.558-32.767c3.409-5.8,7.4-11.196,11.231-16.716
				C139.816,210.598,139.018,210.088,138.607,210.492z"/>
			<path style="fill:#ED6C6B;" d="M114.885,329.868H79.994c-1.524,0-2.795-1.165-2.928-2.683l-3.541-40.466
				c-0.15-1.718,1.204-3.195,2.928-3.195h41.973c1.724,0,3.078,1.478,2.928,3.195l-3.541,40.466
				C117.68,328.703,116.409,329.868,114.885,329.868z"/>
			<g>
				<path style="fill:#FFCE5E;" d="M74.656,299.642l0.173,1.975c3.167,0.001,6.333-0.002,9.5-0.005
					c10.431-0.009,20.86-0.044,31.291-0.104c1.48-0.008,2.961-0.005,4.441-0.004l0.153-1.75
					C105.028,299.714,89.842,299.594,74.656,299.642z"/>
				<path style="fill:#FFCE5E;" d="M89.488,294.965c9.782,0.069,19.563,0.099,29.345,0.118c0.596,0.001,1.193,0.001,1.789,0.002
					l0.271-3.098c-14.685,0.029-29.37,0.09-44.054,0.193c-0.944,0.007-1.889,0.014-2.834,0.021l0.24,2.737
					C79.331,294.986,84.422,294.93,89.488,294.965z"/>
			</g>
		</g>
	</g>
	<g>
		<ellipse style="fill:#FFFFFF;" cx="334.096" cy="134.732" rx="35.779" ry="25.915"/>
		<path style="fill:#FFFFFF;" d="M302.765,142.73l-4.827,9.227c-0.626,1.197,0.464,2.569,1.771,2.229l11.219-2.914L302.765,142.73z"
			/>
		<g>
			<circle style="fill:#74A7CB;" cx="313.351" cy="140.499" r="3.557"/>
			<circle style="fill:#74A7CB;" cx="333.854" cy="140.499" r="3.557"/>
			<circle style="fill:#74A7CB;" cx="354.356" cy="140.499" r="3.557"/>
		</g>
	</g>
	<g>
		<ellipse style="fill:#74A7CB;" cx="412.085" cy="325.888" rx="29.594" ry="8.604"/>
		
			<ellipse transform="matrix(0.2721 -0.9623 0.9623 0.2721 62.5855 493.5799)" style="fill:#FFFFFF;" cx="357.56" cy="205.42" rx="14.72" ry="14.72"/>
		<polygon style="fill:#ED6C6B;" points="389.184,169.205 337.367,180.064 368.524,233.613 401.856,187.723 410.008,185.046 
			395.872,160.592 		"/>
		<path style="fill:#FF8F3D;" d="M438.861,324.458c0-2.212-1.622-5.734-2.505-6.769l-48.275,0.06
			c-1.346,2.511-2.466,4.891-2.466,6.709h0.029c-0.016,0.099-0.029,0.199-0.029,0.299c0,3.871,11.92,7.008,26.623,7.008
			c14.704,0,26.623-3.138,26.623-7.008c0-0.1-0.013-0.2-0.029-0.299H438.861z"/>
		<ellipse style="fill:#FFCE5E;" cx="412.238" cy="318.839" rx="24.452" ry="7.009"/>
		<ellipse style="fill:#FF8F3D;" cx="412.082" cy="317.749" rx="9.059" ry="2.632"/>
		<g>
			<path style="fill:#222859;" d="M412.241,318.297c-0.091,0-0.181-0.005-0.273-0.015c-1.327-0.149-2.281-1.346-2.132-2.672
				l10.497-93.238l-33.511-54.11c-0.704-1.135-0.353-2.625,0.782-3.327c1.137-0.702,2.625-0.352,3.328,0.782l33.952,54.822
				c0.286,0.461,0.408,1.005,0.347,1.543L414.64,316.15C414.501,317.385,413.455,318.297,412.241,318.297z"/>
		</g>
		<circle style="fill:#FFCE5E;" cx="422.361" cy="221.811" r="4.672"/>
		<path style="fill:#FF8F3D;" d="M424.701,221.811c0,1.292-1.048,2.34-2.34,2.34c-1.292,0-2.34-1.048-2.34-2.34
			c0-1.292,1.048-2.34,2.34-2.34C423.653,219.471,424.701,220.518,424.701,221.811z"/>
		<path style="fill:#FFCE5E;" d="M375.254,224.347c-1.904-3.217-3.819-6.427-5.7-9.657c-6.064-10.412-12.055-20.869-17.937-31.385
			c-1.042-1.863-2.109-3.711-3.169-5.563l-2.693,0.565c0.671,1.328,1.35,2.652,2.049,3.966c2.906,5.458,5.845,10.899,8.815,16.323
			c5.312,9.699,10.809,19.298,16.385,28.848L375.254,224.347z"/>
		<path style="fill:#FFFFFF;" d="M338.541,195.184c-0.248-1.162-1.586-1.572-2.609-1.7c-0.206-0.026-0.413-0.046-0.618-0.071
			c-0.103-0.013-0.206-0.026-0.309-0.039c0.08,0.011,0.161,0.022,0.241,0.032c-0.379-0.025-0.765-0.114-1.139-0.18
			c-0.494-0.087-0.99-0.147-1.487-0.207c-0.138-0.017-0.717-0.033-0.125-0.014c-0.177-0.006-0.363-0.053-0.538-0.08
			c-1.029-0.162-2.238-0.497-3.177,0.147c-0.797,0.546-1.095,1.5-0.624,2.38c0.544,1.016,1.72,1.315,2.759,1.541
			c0.917,0.199,1.841,0.372,2.779,0.43c0.82,0.05,1.688,0.133,2.504,0.024c0.613-0.082,1.316-0.228,1.77-0.673
			C338.408,196.341,338.675,195.809,338.541,195.184z"/>
		<path style="fill:#FFFFFF;" d="M337.731,208.081c-0.131-0.475-0.558-0.981-1.068-1.068c-0.338-0.058-0.675-0.139-1.019-0.117
			c-0.375,0.024-0.745,0.057-1.116,0.128c-0.49,0.093-0.98,0.177-1.472,0.259c-0.488,0.081-0.971,0.197-1.459,0.277
			c-0.758,0.125-1.587,0.517-2.002,1.167c-0.384,0.601-0.21,1.385,0.243,1.884c0.307,0.339,0.715,0.505,1.155,0.572
			c0.368,0.056,0.736,0.137,1.108,0.102c0.644-0.06,1.303-0.117,1.935-0.248c0.484-0.1,0.965-0.241,1.438-0.382
			c0.714-0.212,1.33-0.573,1.864-1.086C337.729,209.193,337.874,208.599,337.731,208.081z"/>
		<path style="fill:#FFFFFF;" d="M341.753,218.76c-0.323-0.323-0.751-0.402-1.186-0.314c-0.212,0.043-0.431,0.072-0.642,0.123
			c-0.327,0.08-0.628,0.282-0.925,0.439c-0.419,0.222-0.857,0.411-1.272,0.639c-0.418,0.228-0.835,0.456-1.262,0.666
			c-0.79,0.389-1.597,0.848-1.785,1.804c-0.093,0.472-0.085,1.005,0.187,1.427c0.096,0.125,0.193,0.25,0.289,0.375
			c0.231,0.23,0.503,0.388,0.817,0.476c0.884,0.37,1.831-0.14,2.553-0.644c0.512-0.357,1.013-0.733,1.501-1.123
			c0.363-0.291,0.686-0.647,1.007-0.983c0.24-0.251,0.515-0.509,0.67-0.821c0.139-0.28,0.248-0.586,0.362-0.878
			C342.22,219.552,342.036,219.042,341.753,218.76z"/>
		<path style="fill:#FFFFFF;" d="M353.646,225.362c-0.359-0.372-0.855-0.356-1.29-0.167c-0.664,0.289-1.108,1.218-1.358,1.856
			c-0.225,0.574-0.403,1.147-0.553,1.744c-0.323,1.283-0.783,2.614-0.74,3.951c0.025,0.781,0.551,1.592,1.351,1.775
			c0.743,0.169,1.732-0.093,2.079-0.846c0.311-0.676,0.517-1.336,0.631-2.068c0.098-0.629,0.197-1.259,0.295-1.888
			c0.112-0.717,0.209-1.427,0.223-2.154C354.296,226.87,354.148,225.882,353.646,225.362z"/>
	</g>
	<g>
		<path style="fill:#FFFFFF;" d="M194.11,162.854l1.498,4.601c0.061,0.186,0.206,0.332,0.392,0.392l4.601,1.498
			c0.563,0.183,0.563,0.98,0,1.163L196,172.008c-0.186,0.061-0.332,0.206-0.392,0.392l-1.498,4.601c-0.184,0.563-0.98,0.563-1.163,0
			l-1.498-4.601c-0.061-0.186-0.206-0.332-0.392-0.392l-4.601-1.498c-0.563-0.183-0.563-0.98,0-1.163l4.601-1.498
			c0.186-0.061,0.332-0.206,0.392-0.392l1.498-4.601C193.129,162.291,193.926,162.291,194.11,162.854z"/>
		<path style="fill:#FFFFFF;" d="M390.347,256.768l1.498,4.601c0.061,0.186,0.206,0.332,0.392,0.392l4.601,1.498
			c0.563,0.183,0.563,0.98,0,1.163l-4.601,1.498c-0.186,0.061-0.332,0.206-0.392,0.392l-1.498,4.601
			c-0.183,0.563-0.98,0.563-1.163,0l-1.498-4.601c-0.06-0.186-0.206-0.332-0.392-0.392l-4.601-1.498
			c-0.563-0.183-0.563-0.98,0-1.163l4.601-1.498c0.186-0.061,0.332-0.206,0.392-0.392l1.498-4.601
			C389.367,256.205,390.164,256.205,390.347,256.768z"/>
		<path style="fill:#FFFFFF;" d="M287.556,73.769l1.498,4.601c0.06,0.186,0.206,0.332,0.392,0.392l4.601,1.498
			c0.563,0.183,0.563,0.98,0,1.164l-4.601,1.498c-0.186,0.061-0.332,0.206-0.392,0.392l-1.498,4.601
			c-0.183,0.563-0.98,0.563-1.163,0l-1.498-4.601c-0.06-0.186-0.206-0.332-0.392-0.392l-4.601-1.498
			c-0.563-0.183-0.563-0.98,0-1.164l4.601-1.498c0.186-0.061,0.332-0.206,0.392-0.392l1.498-4.601
			C286.576,73.206,287.373,73.206,287.556,73.769z"/>
		<path style="fill:#FFFFFF;" d="M179.362,150.878l0.86,2.64c0.035,0.107,0.118,0.19,0.225,0.225l2.64,0.86
			c0.323,0.105,0.323,0.562,0,0.668l-2.64,0.86c-0.107,0.035-0.19,0.118-0.225,0.225l-0.86,2.64c-0.105,0.323-0.562,0.323-0.667,0
			l-0.86-2.64c-0.035-0.107-0.118-0.19-0.225-0.225l-2.64-0.86c-0.323-0.105-0.323-0.562,0-0.668l2.64-0.86
			c0.107-0.035,0.19-0.118,0.225-0.225l0.86-2.64C178.8,150.555,179.257,150.555,179.362,150.878z"/>
		<path style="fill:#FFFFFF;" d="M413.112,151.731l0.86,2.64c0.035,0.107,0.118,0.19,0.225,0.225l2.64,0.86
			c0.323,0.105,0.323,0.562,0,0.668l-2.64,0.86c-0.107,0.035-0.19,0.118-0.225,0.225l-0.86,2.64c-0.105,0.323-0.562,0.323-0.667,0
			l-0.86-2.64c-0.035-0.107-0.118-0.19-0.225-0.225l-2.64-0.86c-0.323-0.105-0.323-0.562,0-0.668l2.64-0.86
			c0.107-0.035,0.19-0.118,0.225-0.225l0.86-2.64C412.55,151.408,413.007,151.408,413.112,151.731z"/>
		<path style="fill:#FFFFFF;" d="M57.033,262.667l0.86,2.64c0.035,0.107,0.118,0.19,0.225,0.225l2.64,0.86
			c0.323,0.105,0.323,0.562,0,0.668l-2.64,0.86c-0.107,0.035-0.19,0.118-0.225,0.225l-0.86,2.64c-0.105,0.323-0.562,0.323-0.668,0
			l-0.86-2.64c-0.035-0.107-0.118-0.19-0.225-0.225l-2.64-0.86c-0.323-0.105-0.323-0.562,0-0.668l2.64-0.86
			c0.107-0.035,0.19-0.118,0.225-0.225l0.86-2.64C56.471,262.344,56.928,262.344,57.033,262.667z"/>
		<path style="fill:#FFFFFF;" d="M312.723,177.934l0.86,2.64c0.035,0.107,0.118,0.19,0.225,0.225l2.64,0.86
			c0.323,0.105,0.323,0.562,0,0.668l-2.64,0.86c-0.107,0.035-0.19,0.118-0.225,0.225l-0.86,2.64c-0.105,0.323-0.562,0.323-0.668,0
			l-0.86-2.64c-0.035-0.107-0.118-0.19-0.225-0.225l-2.64-0.86c-0.323-0.105-0.323-0.562,0-0.668l2.64-0.86
			c0.107-0.035,0.19-0.118,0.225-0.225l0.86-2.64C312.16,177.611,312.617,177.611,312.723,177.934z"/>
	</g>
</g>
</svg>
