<?xml version="1.0" standalone="no"?><svg xmlns="http://www.w3.org/2000/svg" viewBox="0 0 1410 620"><path fill="#000000" fill-opacity="1" d="M0,0L34.3,32C68.6,64,137,128,206,165.3C274.3,203,343,213,411,213.3C480,213,549,203,617,192C685.7,181,754,171,823,154.7C891.4,139,960,117,1029,90.7C1097.1,64,1166,32,1234,32C1302.9,32,1371,64,1406,80L1440,96L1440,320L1405.7,320C1371.4,320,1303,320,1234,320C1165.7,320,1097,320,1029,320C960,320,891,320,823,320C754.3,320,686,320,617,320C548.6,320,480,320,411,320C342.9,320,274,320,206,320C137.1,320,69,320,34,320L0,320Z"></path></svg>