<?xml version="1.0" standalone="no"?><svg xmlns="http://www.w3.org/2000/svg" viewBox="0 0 1440 320"><path fill="#000000" fill-opacity="1" d="M0,160L26.7,133.3C53.3,107,107,53,160,32C213.3,11,267,21,320,42.7C373.3,64,427,96,480,101.3C533.3,107,587,85,640,64C693.3,43,747,21,800,64C853.3,107,907,213,960,240C1013.3,267,1067,213,1120,192C1173.3,171,1227,181,1280,197.3C1333.3,213,1387,235,1413,245.3L1440,256L1440,320L1413.3,320C1386.7,320,1333,320,1280,320C1226.7,320,1173,320,1120,320C1066.7,320,1013,320,960,320C906.7,320,853,320,800,320C746.7,320,693,320,640,320C586.7,320,533,320,480,320C426.7,320,373,320,320,320C266.7,320,213,320,160,320C106.7,320,53,320,27,320L0,320Z"></path></svg>