<?xml version="1.0" encoding="utf-8"?>
<!-- Generator: Adobe Illustrator 27.5.0, SVG Export Plug-In . SVG Version: 6.00 Build 0)  -->
<svg version="1.1" id="Layer_1" xmlns="http://www.w3.org/2000/svg" xmlns:xlink="http://www.w3.org/1999/xlink" x="0px" y="0px"
	 viewBox="0 0 900 900" style="enable-background:new 0 0 900 900;" xml:space="preserve">
<g>
	<g id="XMLID_10863_">
		
			<rect id="XMLID_10987_" x="605.129" y="265.493" transform="matrix(-1 -1.224647e-16 1.224647e-16 -1 1385.377 842.5222)" style="fill:#F7F0ED;" width="175.119" height="311.536"/>
		<g id="XMLID_10974_">
			<polygon id="XMLID_10910_" style="opacity:0.27;fill:#640917;" points="119.752,595.029 784.5,595.029 769.361,567.333 
				119.752,538 			"/>
			
				<polygon id="XMLID_10893_" style="fill:#E25959;stroke:#640917;stroke-width:3;stroke-linecap:round;stroke-linejoin:round;stroke-miterlimit:10;" points="
				119.752,583.696 769.361,583.696 769.361,556 119.752,576.667 			"/>
			
				<rect id="XMLID_10986_" x="119.752" y="266.741" transform="matrix(-1 -1.224647e-16 1.224647e-16 -1 889.1127 843.7704)" style="fill:#E25959;stroke:#640917;stroke-width:3;stroke-linecap:round;stroke-linejoin:round;stroke-miterlimit:10;" width="649.609" height="310.288"/>
			
				<path id="XMLID_10985_" style="fill:#FFFFFF;stroke:#640917;stroke-width:3;stroke-linecap:round;stroke-linejoin:round;stroke-miterlimit:10;" d="
				M151.198,235.533V549.45c0,0,91.526-1.796,208.419-21.92c16.349-2.813,33.17-1.633,48.757,4.01
				c20.16,7.295,36.182,17.91,36.182,17.91l1.815,0.309V235.841l-1.815-0.309c0,0-16.022-10.615-36.182-17.91
				c-15.587-5.643-32.408-6.823-48.757-4.01C242.724,233.736,151.198,235.533,151.198,235.533z"/>
			
				<path id="XMLID_10984_" style="fill:#F7F0ED;stroke:#640917;stroke-width:3;stroke-linecap:round;stroke-linejoin:round;stroke-miterlimit:10;" d="
				M151.198,548.697l-13.754,14.415h308.927v-14.106l-1.815-0.309c0,0-16.022-10.615-36.182-17.91
				c-15.587-5.643-32.408-6.823-48.757-4.01C242.724,546.9,151.198,548.697,151.198,548.697z"/>
			<path style="fill:#FFFFFF;stroke:#640917;stroke-width:3;stroke-linecap:round;stroke-linejoin:round;stroke-miterlimit:10;" d="
				M741.54,235.53v313.92c0,0-11.57-0.23-31.73-1.42c-36.55-2.18-101.35-7.53-176.69-20.5c-16.34-2.81-33.17-1.63-48.75,4.01
				c-20.16,7.29-36.18,17.91-36.18,17.91l-1.82,0.31V235.84l1.82-0.31c0,0,16.02-10.61,36.18-17.91
				c15.58-5.64,32.41-6.82,48.75-4.01C650.02,233.74,741.54,235.53,741.54,235.53z"/>
			
				<path id="XMLID_10982_" style="fill:#F7F0ED;stroke:#640917;stroke-width:3;stroke-linecap:round;stroke-linejoin:round;stroke-miterlimit:10;" d="
				M741.544,548.697l13.754,14.415H446.371v-14.106l1.815-0.309c0,0,16.023-10.615,36.182-17.91
				c15.587-5.643,32.408-6.823,48.757-4.01C650.018,546.9,741.544,548.697,741.544,548.697z"/>
			<path id="XMLID_10981_" style="opacity:0.16;fill:#640917;" d="M151.198,548.697l-13.754,14.415h308.927v-14.106l-1.815-0.309
				c0,0-16.022-10.615-36.182-17.91c-15.587-5.643-32.408-6.823-48.757-4.01C242.724,546.9,151.198,548.697,151.198,548.697z"/>
			<path id="XMLID_10980_" style="opacity:0.16;fill:#640917;" d="M741.544,548.697l13.754,14.415H446.371v-14.106l1.815-0.309
				c0,0,16.023-10.615,36.182-17.91c15.587-5.643,32.408-6.823,48.757-4.01C650.018,546.9,741.544,548.697,741.544,548.697z"/>
			
				<polygon id="XMLID_10979_" style="fill:#F7F0ED;stroke:#640917;stroke-width:3;stroke-linecap:round;stroke-linejoin:round;stroke-miterlimit:10;" points="
				741.544,235.533 755.298,266.741 755.298,563.112 741.544,548.697 			"/>
			
				<polygon id="XMLID_10978_" style="fill:#F7F0ED;stroke:#640917;stroke-width:3;stroke-linecap:round;stroke-linejoin:round;stroke-miterlimit:10;" points="
				151.198,235.533 137.444,266.741 137.444,563.112 151.198,548.697 			"/>
			
				<path id="XMLID_10977_" style="fill:#640917;stroke:#640917;stroke-width:3;stroke-linecap:round;stroke-linejoin:round;stroke-miterlimit:10;" d="
				M427.772,563.112h37.198l0,0c0-7.375-5.978-13.353-13.353-13.353h-10.492C433.75,549.758,427.772,555.737,427.772,563.112
				L427.772,563.112z"/>
			<polyline id="XMLID_10976_" style="opacity:0.1;fill:#640917;" points="427.772,226.037 446.371,235.841 446.371,549.758 
				427.772,539.201 			"/>
			<polyline id="XMLID_10975_" style="opacity:0.1;fill:#640917;" points="464.97,226.037 446.371,235.841 446.371,549.758 
				464.97,539.201 			"/>
		</g>
		<path id="XMLID_10973_" style="fill:#E25959;" d="M668.962,258.993v36.164c14.625,1.288,27.545,2.232,38.341,2.921v-36.164
			C696.506,261.225,683.587,260.3,668.962,258.993z"/>
		<path id="XMLID_10972_" style="fill:none;stroke:#F7F0ED;stroke-width:4.306;stroke-linecap:round;stroke-miterlimit:10;" d="
			M702.071,269.155c-10.797-0.69-11.359-0.488-25.984-1.795"/>
		<path id="XMLID_10971_" style="fill:none;stroke:#F7F0ED;stroke-width:4.306;stroke-linecap:round;stroke-miterlimit:10;" d="
			M702.071,277.332c-10.797-0.69-11.359-0.488-25.984-1.795"/>
		<path id="XMLID_10970_" style="fill:#E25959;" d="M633.868,255.509v36.164c12.539,1.379,24.297,2.522,35.093,3.484v-36.164
			C658.165,258.031,646.407,256.888,633.868,255.509z"/>
		<path id="XMLID_10969_" style="fill:#E25959;" d="M598.194,251.191v36.182c12.466,1.633,24.388,3.067,35.674,4.3v-36.164
			C622.582,254.275,610.66,252.842,598.194,251.191z"/>
		<path id="XMLID_10968_" style="fill:none;stroke:#F7F0ED;stroke-width:4.306;stroke-linecap:round;stroke-miterlimit:10;" d="
			M628.26,263.06c-11.286-1.234-10.665-1.13-23.131-2.781"/>
		<path id="XMLID_10967_" style="fill:#E25959;" d="M563.101,246.182v36.164c12.085,1.869,23.807,3.538,35.093,5.026v-36.182
			C586.908,249.703,575.186,248.051,563.101,246.182z"/>
		<path id="XMLID_10966_" style="fill:none;stroke:#F7F0ED;stroke-width:4.306;stroke-linecap:round;stroke-miterlimit:10;" d="
			M592.446,259.451c-11.286-1.488-11.067-1.419-23.152-3.288"/>
		<path id="XMLID_10965_" style="fill:#E25959;" d="M528.026,240.702v36.164c2.577,0.236,5.153,0.581,7.73,1.034
			c9.29,1.597,18.418,3.085,27.345,4.446v-36.164c-8.928-1.361-18.055-2.849-27.345-4.446
			C533.179,241.283,530.602,240.938,528.026,240.702z"/>
		<path id="XMLID_10964_" style="fill:none;stroke:#F7F0ED;stroke-width:4.306;stroke-linecap:round;stroke-miterlimit:10;" d="
			M557.487,254.877c-8.928-1.361-19.155-3.341-21.732-3.577"/>
		<path id="XMLID_10963_" style="fill:none;stroke:#F7F0ED;stroke-width:4.306;stroke-linecap:round;stroke-miterlimit:10;" d="
			M557.487,263.313c-8.928-1.361-19.155-3.341-21.732-3.577"/>
		<path id="XMLID_10962_" style="fill:#E25959;" d="M494.366,243.442v36.164c10.942-2.939,22.355-3.792,33.66-2.74v-36.164
			C516.721,239.65,505.307,240.503,494.366,243.442z"/>
		<path id="XMLID_10961_" style="fill:none;stroke:#F7F0ED;stroke-width:4.306;stroke-linecap:round;stroke-miterlimit:10;" d="
			M523.338,250.037c-11.305-1.052-14.072-0.484-25.453,1.834"/>
		<path id="XMLID_10960_" style="opacity:0.1;fill:#640917;" d="M494.366,279.606v222.736c13.446-3.611,27.581-4.083,41.39-1.706
			c68.372,11.758,128.089,17.274,165.868,19.815h5.68V298.078c-10.797-0.689-23.716-1.633-38.341-2.921
			c-10.797-0.962-22.555-2.105-35.093-3.484c-11.287-1.234-23.208-2.667-35.674-4.3c-11.286-1.488-23.008-3.157-35.093-5.026
			c-8.928-1.361-18.055-2.849-27.345-4.446c-2.577-0.454-5.153-0.798-7.73-1.034C516.721,275.814,505.307,276.667,494.366,279.606z"
			/>
		
			<path id="XMLID_10959_" style="opacity:0.27;fill:none;stroke:#640917;stroke-width:4.306;stroke-linecap:round;stroke-miterlimit:10;" d="
			M189.225,271.41c10.797-0.689,23.716-1.633,38.341-2.921c10.797-0.962,22.555-2.105,35.093-3.484
			c11.286-1.234,23.208-2.667,35.674-4.3c11.286-1.488,23.008-3.157,35.093-5.026c8.928-1.361,18.055-2.849,27.345-4.446
			c2.577-0.454,5.153-0.798,7.73-1.034c11.305-1.052,22.718-0.2,33.66,2.74"/>
		
			<path id="XMLID_10958_" style="opacity:0.27;fill:none;stroke:#640917;stroke-width:4.306;stroke-linecap:round;stroke-miterlimit:10;" d="
			M189.225,284.564c10.797-0.689,23.716-1.633,38.341-2.921c10.797-0.962,22.555-2.105,35.093-3.484
			c11.286-1.234,23.208-2.667,35.674-4.3c11.286-1.488,23.008-3.157,35.093-5.026c8.928-1.361,18.058-2.83,27.345-4.446
			c2.577-0.448,5.153-0.798,7.73-1.034c11.305-1.052,22.718-0.2,33.66,2.74"/>
		
			<path id="XMLID_10957_" style="opacity:0.27;fill:none;stroke:#640917;stroke-width:4.306;stroke-linecap:round;stroke-miterlimit:10;" d="
			M189.225,298.195c10.797-0.689,23.716-1.633,38.341-2.921c10.797-0.962,22.555-2.105,35.093-3.484
			c11.286-1.234,23.208-2.667,35.674-4.3c11.286-1.488,23.008-3.157,35.093-5.026c8.928-1.361,18.058-2.83,27.345-4.446
			c2.577-0.448,5.153-0.798,7.73-1.034c11.305-1.052,22.718-0.199,33.66,2.74"/>
		
			<path id="XMLID_10956_" style="opacity:0.27;fill:none;stroke:#640917;stroke-width:4.306;stroke-linecap:round;stroke-miterlimit:10;" d="
			M338.202,408.213c7.399-1.156,14.929-2.395,22.57-3.709c2.577-0.454,5.153-0.799,7.73-1.034c11.305-1.052,22.718-0.2,33.66,2.74"
			/>
		
			<path id="XMLID_10955_" style="opacity:0.27;fill:none;stroke:#640917;stroke-width:4.306;stroke-linecap:round;stroke-miterlimit:10;" d="
			M189.225,424.682c10.797-0.689,23.716-1.633,38.341-2.921c6.111-0.544,12.529-1.147,19.223-1.817"/>
		
			<path id="XMLID_10954_" style="opacity:0.27;fill:none;stroke:#640917;stroke-width:4.306;stroke-linecap:round;stroke-miterlimit:10;" d="
			M338.203,421.368c7.4-1.152,14.932-2.381,22.569-3.71c2.577-0.448,5.153-0.798,7.73-1.034c11.305-1.052,22.718-0.2,33.66,2.74"/>
		
			<path id="XMLID_10953_" style="opacity:0.27;fill:none;stroke:#640917;stroke-width:4.306;stroke-linecap:round;stroke-miterlimit:10;" d="
			M189.225,437.836c10.797-0.689,23.716-1.633,38.341-2.921c6.46-0.575,13.264-1.216,20.373-1.933"/>
		
			<path id="XMLID_10952_" style="opacity:0.27;fill:none;stroke:#640917;stroke-width:4.306;stroke-linecap:round;stroke-miterlimit:10;" d="
			M338.203,434.999c7.4-1.152,14.932-2.381,22.569-3.71c2.577-0.448,5.153-0.798,7.73-1.034c11.305-1.052,22.718-0.199,33.66,2.74"
			/>
		<path id="XMLID_10951_" style="fill:none;stroke:#E25959;stroke-width:4.306;stroke-linecap:round;stroke-miterlimit:10;" d="
			M382.252,461.631c6.722,0.31,13.399,1.32,19.91,3.069"/>
		<path id="XMLID_10950_" style="fill:none;stroke:#E25959;stroke-width:4.306;stroke-linecap:round;stroke-miterlimit:10;" d="
			M338.202,466.703c7.399-1.156,14.929-2.395,22.57-3.709"/>
		
			<path id="XMLID_10949_" style="opacity:0.27;fill:none;stroke:#640917;stroke-width:4.306;stroke-linecap:round;stroke-miterlimit:10;" d="
			M380.746,474.727c7.23,0.221,14.419,1.247,21.415,3.127"/>
		
			<path id="XMLID_10948_" style="opacity:0.27;fill:none;stroke:#640917;stroke-width:4.306;stroke-linecap:round;stroke-miterlimit:10;" d="
			M338.203,479.858c7.4-1.152,14.932-2.381,22.569-3.71"/>
		
			<path id="XMLID_10947_" style="opacity:0.1;fill:none;stroke:#640917;stroke-width:4.306;stroke-linecap:round;stroke-miterlimit:10;" d="
			M380.746,488.358c7.23,0.221,14.419,1.247,21.415,3.127"/>
		
			<path id="XMLID_10946_" style="opacity:0.27;fill:none;stroke:#640917;stroke-width:4.306;stroke-linecap:round;stroke-miterlimit:10;" d="
			M338.203,493.489c7.4-1.152,14.932-2.381,22.569-3.71"/>
		
			<path id="XMLID_10945_" style="opacity:0.27;fill:none;stroke:#640917;stroke-width:4.306;stroke-linecap:round;stroke-miterlimit:10;" d="
			M189.225,451.467c10.797-0.689,23.716-1.633,38.341-2.921c6.46-0.575,13.264-1.216,20.374-1.933"/>
		<path id="XMLID_10943_" style="fill:none;stroke:#E25959;stroke-width:4.306;stroke-linecap:round;stroke-miterlimit:10;" d="
			M355.32,335.779c1.811-0.305,3.628-0.614,5.452-0.928c2.577-0.454,5.153-0.798,7.73-1.034c11.305-1.052,22.718-0.2,33.66,2.74"/>
		<path id="XMLID_10942_" style="fill:none;stroke:#E25959;stroke-width:4.306;stroke-linecap:round;stroke-miterlimit:10;" d="
			M355.32,323.52c1.811-0.305,3.628-0.614,5.452-0.928c2.577-0.454,5.153-0.798,7.73-1.034c11.305-1.052,22.718-0.2,33.66,2.74"/>
		<path id="XMLID_10941_" style="fill:none;stroke:#E25959;stroke-width:4.306;stroke-linecap:round;stroke-miterlimit:10;" d="
			M355.372,348.931c1.794-0.303,3.594-0.612,5.4-0.926c2.577-0.448,5.153-0.798,7.73-1.034c11.305-1.052,22.718-0.2,33.66,2.74"/>
		<path id="XMLID_10940_" style="fill:none;stroke:#E25959;stroke-width:4.306;stroke-linecap:round;stroke-miterlimit:10;" d="
			M355.372,362.562c1.794-0.303,3.594-0.612,5.4-0.926c2.577-0.449,5.153-0.798,7.73-1.034c11.305-1.052,22.718-0.199,33.66,2.74"/>
		<path id="XMLID_10939_" style="fill:none;stroke:#E25959;stroke-width:4.306;stroke-linecap:round;stroke-miterlimit:10;" d="
			M355.316,375.055c1.812-0.306,3.631-0.618,5.456-0.936c2.577-0.448,5.153-0.798,7.73-1.034c11.305-1.052,22.718-0.2,33.66,2.74"/>
		
			<line id="XMLID_10938_" style="fill:none;stroke:#FFFFFF;stroke-width:4.306;stroke-linecap:round;stroke-miterlimit:10;" x1="668.962" y1="522.219" x2="668.962" y2="295.157"/>
		
			<line id="XMLID_10937_" style="fill:none;stroke:#FFFFFF;stroke-width:4.306;stroke-linecap:round;stroke-miterlimit:10;" x1="668.962" y1="301.218" x2="668.962" y2="255.092"/>
		<path id="XMLID_10936_" style="fill:none;stroke:#F7F0ED;stroke-width:4.306;stroke-linecap:round;stroke-miterlimit:10;" d="
			M662.139,266.637c-5.767-0.267-13.143-1.143-21.13-2.287"/>
		<path id="XMLID_10935_" style="fill:none;stroke:#FFFFFF;stroke-width:4.306;stroke-linecap:round;stroke-miterlimit:10;" d="
			M628.26,313.388c-11.286-1.234-10.665-1.13-23.131-2.781"/>
		<path id="XMLID_10934_" style="fill:none;stroke:#FFFFFF;stroke-width:4.306;stroke-linecap:round;stroke-miterlimit:10;" d="
			M592.446,309.779c-11.286-1.488-11.067-1.419-23.152-3.288"/>
		
			<path id="XMLID_10933_" style="fill:#F7F0ED;stroke:#640917;stroke-width:3;stroke-linecap:round;stroke-linejoin:round;stroke-miterlimit:10;" d="
			M557.487,305.205c-8.928-1.361-19.155-3.341-21.732-3.577"/>
		
			<path id="XMLID_10932_" style="fill:#F7F0ED;stroke:#640917;stroke-width:3;stroke-linecap:round;stroke-linejoin:round;stroke-miterlimit:10;" d="
			M523.338,300.365c-11.305-1.052-14.072-0.484-25.453,1.834"/>
		<path id="XMLID_10931_" style="fill:none;stroke:#FFFFFF;stroke-width:4.306;stroke-linecap:round;stroke-miterlimit:10;" d="
			M662.139,316.965c-5.767-0.267-13.143-1.143-21.13-2.287"/>
		
			<path id="XMLID_10930_" style="fill:#F7F0ED;stroke:#640917;stroke-width:3;stroke-linecap:round;stroke-linejoin:round;stroke-miterlimit:10;" d="
			M628.26,347.288c-11.286-1.234-10.665-1.13-23.131-2.781"/>
		
			<path id="XMLID_10929_" style="fill:#F7F0ED;stroke:#640917;stroke-width:3;stroke-linecap:round;stroke-linejoin:round;stroke-miterlimit:10;" d="
			M592.446,343.679c-11.286-1.488-11.067-1.419-23.152-3.288"/>
		<path id="XMLID_10928_" style="fill:none;stroke:#FFFFFF;stroke-width:4.306;stroke-linecap:round;stroke-miterlimit:10;" d="
			M557.487,339.105c-8.928-1.361-19.155-3.341-21.732-3.577"/>
		<path id="XMLID_10927_" style="fill:none;stroke:#FFFFFF;stroke-width:4.306;stroke-linecap:round;stroke-miterlimit:10;" d="
			M662.139,350.865c-5.767-0.267-13.143-1.143-21.13-2.287"/>
		<path id="XMLID_10926_" style="fill:none;stroke:#E25959;stroke-width:4.306;stroke-linecap:round;stroke-miterlimit:10;" d="
			M628.26,405.832c-11.286-1.234-10.665-1.13-23.131-2.781"/>
		<path id="XMLID_10925_" style="fill:none;stroke:#E25959;stroke-width:4.306;stroke-linecap:round;stroke-miterlimit:10;" d="
			M557.487,397.649c-8.928-1.361-19.155-3.341-21.732-3.577"/>
		
			<path id="XMLID_10924_" style="fill:#F7F0ED;stroke:#640917;stroke-width:3;stroke-linecap:round;stroke-linejoin:round;stroke-miterlimit:10;" d="
			M523.338,392.809c-11.305-1.052-14.072-0.484-25.453,1.834"/>
		<path id="XMLID_10923_" style="fill:none;stroke:#FFFFFF;stroke-width:4.306;stroke-linecap:round;stroke-miterlimit:10;" d="
			M662.139,409.409c-5.767-0.267-13.143-1.143-21.13-2.287"/>
		<path id="XMLID_10922_" style="fill:none;stroke:#E25959;stroke-width:4.306;stroke-linecap:round;stroke-miterlimit:10;" d="
			M592.446,371.775c-11.286-1.488-11.067-1.419-23.152-3.288"/>
		<path id="XMLID_10921_" style="fill:none;stroke:#FFFFFF;stroke-width:4.306;stroke-linecap:round;stroke-miterlimit:10;" d="
			M557.487,367.201c-8.928-1.361-19.155-3.341-21.732-3.577"/>
		
			<path id="XMLID_10920_" style="fill:#F7F0ED;stroke:#640917;stroke-width:3;stroke-linecap:round;stroke-linejoin:round;stroke-miterlimit:10;" d="
			M523.338,362.361c-11.305-1.052-14.072-0.484-25.453,1.834"/>
		
			<path id="XMLID_10919_" style="fill:#F7F0ED;stroke:#640917;stroke-width:3;stroke-linecap:round;stroke-linejoin:round;stroke-miterlimit:10;" d="
			M662.139,378.961c-5.767-0.267-13.143-1.143-21.13-2.287"/>
		<path id="XMLID_10918_" style="fill:none;stroke:#FFFFFF;stroke-width:4.306;stroke-linecap:round;stroke-miterlimit:10;" d="
			M628.26,440.784c-11.286-1.234-10.665-1.13-23.131-2.781"/>
		<path id="XMLID_10916_" style="fill:none;stroke:#FFFFFF;stroke-width:4.306;stroke-linecap:round;stroke-miterlimit:10;" d="
			M557.487,432.6c-8.928-1.361-19.155-3.341-21.732-3.577"/>
		
			<path id="XMLID_10915_" style="fill:#F7F0ED;stroke:#640917;stroke-width:3;stroke-linecap:round;stroke-linejoin:round;stroke-miterlimit:10;" d="
			M523.338,427.761c-11.305-1.052-14.072-0.484-25.453,1.834"/>
		<path id="XMLID_10914_" style="fill:none;stroke:#E25959;stroke-width:4.306;stroke-linecap:round;stroke-miterlimit:10;" d="
			M662.139,444.36c-5.767-0.267-13.143-1.143-21.13-2.287"/>
		
			<line id="XMLID_10909_" style="fill:none;stroke:#FFFFFF;stroke-width:4.306;stroke-linecap:round;stroke-miterlimit:10;" x1="633.868" y1="517.375" x2="633.868" y2="291.673"/>
		
			<line id="XMLID_10908_" style="fill:none;stroke:#FFFFFF;stroke-width:4.306;stroke-linecap:round;stroke-miterlimit:10;" x1="633.868" y1="299.857" x2="633.868" y2="250.265"/>
		
			<line id="XMLID_10907_" style="fill:none;stroke:#FFFFFF;stroke-width:4.306;stroke-linecap:round;stroke-miterlimit:10;" x1="598.194" y1="515.76" x2="598.194" y2="287.373"/>
		
			<line id="XMLID_10906_" style="fill:none;stroke:#FFFFFF;stroke-width:4.306;stroke-linecap:round;stroke-miterlimit:10;" x1="598.194" y1="291.673" x2="598.194" y2="246.636"/>
		
			<line id="XMLID_10905_" style="fill:none;stroke:#FFFFFF;stroke-width:4.306;stroke-linecap:round;stroke-miterlimit:10;" x1="563.101" y1="510.451" x2="563.101" y2="282.346"/>
		<path id="XMLID_10904_" style="fill:none;stroke:#FFFFFF;stroke-width:4.306;stroke-linecap:round;stroke-miterlimit:10;" d="
			M702.071,315.202c-10.797-0.69-11.359-0.488-25.984-1.795"/>
		<path id="XMLID_10903_" style="fill:none;stroke:#FFFFFF;stroke-width:4.306;stroke-linecap:round;stroke-miterlimit:10;" d="
			M702.071,323.379c-10.797-0.689-11.359-0.488-25.984-1.795"/>
		<path id="XMLID_10902_" style="fill:none;stroke:#FFFFFF;stroke-width:4.306;stroke-linecap:round;stroke-miterlimit:10;" d="
			M702.071,347.935c-10.797-0.69-11.359-0.488-25.984-1.795"/>
		<path id="XMLID_10901_" style="fill:none;stroke:#FFFFFF;stroke-width:4.306;stroke-linecap:round;stroke-miterlimit:10;" d="
			M702.071,356.112c-10.797-0.689-11.359-0.488-25.984-1.795"/>
		<path id="XMLID_10900_" style="fill:none;stroke:#FFFFFF;stroke-width:4.306;stroke-linecap:round;stroke-miterlimit:10;" d="
			M702.071,376.425c-10.797-0.69-11.359-0.488-25.984-1.795"/>
		<path id="XMLID_10899_" style="fill:none;stroke:#FFFFFF;stroke-width:4.306;stroke-linecap:round;stroke-miterlimit:10;" d="
			M702.071,384.602c-10.797-0.69-11.359-0.488-25.984-1.795"/>
		<path id="XMLID_10898_" style="fill:none;stroke:#FFFFFF;stroke-width:4.306;stroke-linecap:round;stroke-miterlimit:10;" d="
			M702.071,409.158c-10.797-0.69-11.359-0.488-25.984-1.795"/>
		<path id="XMLID_10897_" style="fill:none;stroke:#FFFFFF;stroke-width:4.306;stroke-linecap:round;stroke-miterlimit:10;" d="
			M702.071,417.335c-10.797-0.69-11.359-0.488-25.984-1.795"/>
		<path id="XMLID_10896_" style="fill:none;stroke:#FFFFFF;stroke-width:4.306;stroke-linecap:round;stroke-miterlimit:10;" d="
			M702.071,441.818c-10.797-0.689-11.359-0.488-25.984-1.795"/>
		<path id="XMLID_10895_" style="fill:none;stroke:#FFFFFF;stroke-width:4.306;stroke-linecap:round;stroke-miterlimit:10;" d="
			M702.071,449.995c-10.797-0.689-11.359-0.488-25.984-1.795"/>
		
			<line id="XMLID_10892_" style="fill:none;stroke:#FFFFFF;stroke-width:4.306;stroke-linecap:round;stroke-miterlimit:10;" x1="563.101" y1="284.433" x2="563.101" y2="240.267"/>
		
			<line id="XMLID_10891_" style="fill:none;stroke:#FFFFFF;stroke-width:4.306;stroke-linecap:round;stroke-miterlimit:10;" x1="528.026" y1="502.727" x2="528.026" y2="276.866"/>
		
			<line id="XMLID_10890_" style="fill:none;stroke:#FFFFFF;stroke-width:4.306;stroke-linecap:round;stroke-miterlimit:10;" x1="528.026" y1="279.897" x2="528.026" y2="235.531"/>
		<g id="XMLID_10879_">
			
				<path id="XMLID_10889_" style="opacity:0.27;fill:none;stroke:#640917;stroke-width:4.306;stroke-linecap:round;stroke-miterlimit:10;" d="
				M243.141,376.334c-5.378,0.527-10.59,1.014-15.575,1.459c-14.625,1.288-27.545,2.232-38.341,2.921"/>
			<path id="XMLID_10888_" style="fill:none;stroke:#E25959;stroke-width:4.306;stroke-linecap:round;stroke-miterlimit:10;" d="
				M243.141,336.729c-5.378,0.527-10.59,1.014-15.575,1.459c-14.625,1.288-27.545,2.232-38.341,2.921"/>
			
				<path id="XMLID_10887_" style="opacity:0.27;fill:none;stroke:#640917;stroke-width:4.306;stroke-linecap:round;stroke-miterlimit:10;" d="
				M243.141,349.882c-5.378,0.527-10.59,1.015-15.575,1.459c-14.625,1.288-27.545,2.232-38.341,2.921"/>
			
				<path id="XMLID_10886_" style="opacity:0.27;fill:none;stroke:#640917;stroke-width:4.306;stroke-linecap:round;stroke-miterlimit:10;" d="
				M243.141,363.513c-5.378,0.527-10.59,1.014-15.575,1.459c-14.625,1.288-27.545,2.232-38.341,2.921"/>
			
				<path id="XMLID_10885_" style="opacity:0.27;fill:none;stroke:#640917;stroke-width:4.306;stroke-linecap:round;stroke-miterlimit:10;" d="
				M243.141,389.965c-5.378,0.527-10.59,1.014-15.575,1.459c-14.625,1.288-27.545,2.232-38.341,2.921"/>
			
				<path id="XMLID_10884_" style="opacity:0.27;fill:none;stroke:#640917;stroke-width:4.306;stroke-linecap:round;stroke-miterlimit:10;" d="
				M328.18,365.778c-10.231,1.547-20.206,2.959-29.846,4.23c-8.281,1.085-16.297,2.073-24.07,2.982"/>
			
				<path id="XMLID_10883_" style="opacity:0.27;fill:none;stroke:#640917;stroke-width:4.306;stroke-linecap:round;stroke-miterlimit:10;" d="
				M328.18,352.957c-10.231,1.547-20.206,2.959-29.846,4.23c-8.281,1.085-16.297,2.073-24.07,2.982"/>
			<path id="XMLID_10882_" style="fill:none;stroke:#E25959;stroke-width:4.306;stroke-linecap:round;stroke-miterlimit:10;" d="
				M328.18,326.173c-10.231,1.547-20.206,2.959-29.846,4.23c-8.281,1.085-16.297,2.073-24.07,2.982"/>
			
				<path id="XMLID_10881_" style="opacity:0.27;fill:none;stroke:#640917;stroke-width:4.306;stroke-linecap:round;stroke-miterlimit:10;" d="
				M328.18,379.409c-10.231,1.547-20.206,2.959-29.846,4.23c-8.281,1.085-16.297,2.073-24.07,2.982"/>
			
				<path id="XMLID_10880_" style="opacity:0.27;fill:none;stroke:#640917;stroke-width:4.306;stroke-linecap:round;stroke-miterlimit:10;" d="
				M328.18,339.326c-10.231,1.547-20.206,2.959-29.846,4.23c-8.281,1.085-16.297,2.073-24.07,2.982"/>
		</g>
		<g id="XMLID_10867_">
			
				<path id="XMLID_10878_" style="opacity:0.27;fill:none;stroke:#640917;stroke-width:4.306;stroke-linecap:round;stroke-miterlimit:10;" d="
				M238.161,492.44c-5.378,0.527-10.59,1.014-15.575,1.459c-14.625,1.288-27.545,2.232-38.341,2.921"/>
			
				<path id="XMLID_10877_" style="opacity:0.27;fill:none;stroke:#640917;stroke-width:4.306;stroke-linecap:round;stroke-miterlimit:10;" d="
				M184.244,470.368"/>
			
				<path id="XMLID_10876_" style="opacity:0.1;fill:none;stroke:#640917;stroke-width:3;stroke-linecap:round;stroke-miterlimit:10;" d="
				M238.161,465.988"/>
			
				<path id="XMLID_10875_" style="opacity:0.27;fill:none;stroke:#640917;stroke-width:4.306;stroke-linecap:round;stroke-miterlimit:10;" d="
				M238.161,479.619c-5.378,0.527-10.59,1.014-15.575,1.459c-14.625,1.288-27.545,2.232-38.341,2.921"/>
			
				<path id="XMLID_10874_" style="opacity:0.27;fill:none;stroke:#640917;stroke-width:4.306;stroke-linecap:round;stroke-miterlimit:10;" d="
				M238.161,506.071c-5.378,0.527-10.59,1.014-15.575,1.459c-14.625,1.288-27.545,2.232-38.341,2.921"/>
			
				<path id="XMLID_10873_" style="opacity:0.27;fill:none;stroke:#640917;stroke-width:4.306;stroke-linecap:round;stroke-miterlimit:10;" d="
				M287.212,486.908c-6.12,0.779-12.093,1.506-17.93,2.189"/>
			
				<path id="XMLID_10872_" style="opacity:0.27;fill:none;stroke:#640917;stroke-width:4.306;stroke-linecap:round;stroke-miterlimit:10;" d="
				M323.199,481.884c-6.126,0.926-12.16,1.804-18.085,2.633"/>
			<path id="XMLID_10871_" style="fill:none;stroke:#E25959;stroke-width:4.306;stroke-linecap:round;stroke-miterlimit:10;" d="
				M285.819,474.263c-5.634,0.713-11.144,1.382-16.537,2.012"/>
			<path id="XMLID_10870_" style="fill:none;stroke:#E25959;stroke-width:4.306;stroke-linecap:round;stroke-miterlimit:10;" d="
				M323.199,469.063c-6.126,0.926-12.16,1.804-18.085,2.633"/>
			
				<path id="XMLID_10869_" style="opacity:0.27;fill:none;stroke:#640917;stroke-width:4.306;stroke-linecap:round;stroke-miterlimit:10;" d="
				M288.004,500.438c-6.396,0.818-12.633,1.578-18.722,2.29"/>
			
				<path id="XMLID_10868_" style="opacity:0.27;fill:none;stroke:#640917;stroke-width:4.306;stroke-linecap:round;stroke-miterlimit:10;" d="
				M323.199,495.515c-6.126,0.926-12.16,1.804-18.085,2.633"/>
		</g>
		<path id="XMLID_10866_" style="opacity:0.1;fill:#640917;" d="M261.741,418.002v26.892c5.843-0.581,11.904-1.216,18.145-1.905
			c11.286-1.234,23.208-2.667,35.674-4.301c2.522-0.327,5.063-0.671,7.639-1.016V410.78c-2.577,0.345-5.117,0.689-7.639,1.016
			c-12.466,1.633-24.388,3.067-35.674,4.301C273.644,416.786,267.583,417.421,261.741,418.002z"/>
		<polygon id="XMLID_10864_" style="fill:#FFD671;stroke:#640917;stroke-width:3;stroke-miterlimit:10;" points="413.938,339.229 
			422.33,330.974 430.722,343.229 430.722,227.411 413.938,219.943 		"/>
	</g>
</g>
<path style="opacity:0.27;fill:#640917;" d="M900,700.28v-90.69l-132.72-111.9L748.67,482l-7.13,10.64v35.91v20.9
	c0,0-5.04-0.1-14.25-0.51c-4.76-0.21-10.62-0.51-17.48-0.91c-1.32-0.08-2.68-0.16-4.08-0.25l5.6,15.55l16,14
	c0,0,120.21,135.69,172.67,193.95V700.28z"/>
<path id="XMLID_7470_" style="opacity:0.27;fill:none;stroke:#640917;stroke-width:4.306;stroke-linecap:round;stroke-miterlimit:10;" d="
	M189.225,312.196c10.797-0.689,23.716-1.633,38.341-2.921c10.797-0.962,22.555-2.105,35.093-3.484
	c11.286-1.234,23.208-2.667,35.674-4.301"/>
<path style="opacity:0.27;fill:#640917;" d="M741.54,438.86v110.59c0,0-11.57-0.23-31.73-1.42c-4.84-1.66-7.81-2.7-7.81-2.7
	s-40.801-9.408-70.667-28.33c-43.667-27.667-78-67-123.333-87.333c-1.72-0.772-0.9-1.017-0.9-1.017l43.73-9.62L696,399.33
	L741.54,438.86z"/>
<g id="XMLID_13345_">
	<path id="XMLID_13377_" style="fill:#E25959;stroke:#640917;stroke-width:3;stroke-linecap:round;stroke-miterlimit:10;" d="
		M511.692,429.581l-5.518-0.845c-0.783-0.121-1.001-1.156-0.327-1.579l4.304-2.725c-0.563,0.648-0.766,1.752-0.447,2.862
		C510.015,428.384,510.892,429.311,511.692,429.581z"/>
	<path id="XMLID_13376_" style="fill:#B1C9C7;stroke:#640917;stroke-width:3;stroke-miterlimit:10;" d="M547.181,435.029
		l-35.489-5.448c-0.8-0.269-1.677-1.197-1.989-2.287c-0.318-1.11-0.115-2.214,0.447-2.862c0.003-0.004,0.003-0.004,0.005-0.007
		l29.566-18.725L547.181,435.029z"/>
	<g id="XMLID_13373_">
		
			<line id="XMLID_13375_" style="fill:#FCD3B6;stroke:#640917;stroke-width:3;stroke-linecap:round;stroke-miterlimit:10;" x1="624.492" y1="399.018" x2="604.974" y2="440.648"/>
		<path id="XMLID_13374_" style="fill:#EDB19B;stroke:#640917;stroke-width:3;stroke-linecap:round;stroke-miterlimit:10;" d="
			M595.874,453.654c-6.217-4.339-8.598-12.646-5.27-19.744l19.518-41.63c3.721-7.937,13.172-11.353,21.108-7.633
			c7.933,3.72,11.354,13.17,7.633,21.108l-19.518,41.63c-3.721,7.937-13.172,11.353-21.108,7.633
			C597.398,454.624,596.609,454.167,595.874,453.654z"/>
	</g>
	<g id="XMLID_13370_">
		
			<line id="XMLID_13372_" style="fill:#FCD3B6;stroke:#640917;stroke-width:3;stroke-linecap:round;stroke-miterlimit:10;" x1="630.832" y1="394.675" x2="627.269" y2="445.289"/>
		<path id="XMLID_13371_" style="fill:#EDB19B;stroke:#640917;stroke-width:3;stroke-linecap:round;stroke-miterlimit:10;" d="
			M618.197,458.315c-4.428-3.09-7.167-8.362-6.76-14.141L615,393.56c0.616-8.743,8.203-15.333,16.948-14.718
			c8.745,0.616,15.334,8.203,14.718,16.948l-3.563,50.615c-0.616,8.743-8.204,15.333-16.947,14.718
			C623.188,460.913,620.47,459.901,618.197,458.315z"/>
	</g>
	
		<line id="XMLID_13369_" style="fill:#FCD3B6;stroke:#640917;stroke-width:3;stroke-linecap:round;stroke-miterlimit:10;" x1="620.099" y1="412.939" x2="650.048" y2="449.473"/>
	<path id="XMLID_13368_" style="fill:#EDB19B;stroke:#640917;stroke-width:3;stroke-linecap:round;stroke-miterlimit:10;" d="
		M642.907,459.719c-1.169-0.816-2.247-1.804-3.196-2.961l-29.949-36.535c-5.557-6.779-4.566-16.779,2.213-22.336
		c6.78-5.557,16.78-4.569,22.337,2.212l29.949,36.535c5.557,6.779,4.566,16.779-2.213,22.336
		C656.427,463.579,648.589,463.684,642.907,459.719z"/>
	<path id="XMLID_13367_" style="fill:#EDB19B;stroke:#640917;stroke-width:3;stroke-linecap:round;stroke-miterlimit:10;" d="
		M618.694,375.613c-0.932,0.582-1.071,40.079-1.071,40.079l57.096,25.161c0,0,22.824-24.219,22.488-25.243
		c-0.337-1.023-13.312-40.298-14.181-41.431S618.694,375.613,618.694,375.613z"/>
	<g id="XMLID_13365_">
		<path id="XMLID_13366_" style="fill:#FCD3B6;stroke:#640917;stroke-width:3;stroke-linecap:round;stroke-miterlimit:10;" d="
			M568.01,425.442c-1.272-0.888-2.432-1.977-3.436-3.264c-5.389-6.914-4.154-16.886,2.759-22.275l46.783-36.47
			c5.998-4.677,13.487-7.02,21.086-6.597l54.094,3.022c9.392,0.526,17.978,5.168,23.559,12.739l37.698,72.278
			c5.202,7.056,12.122,7.29,5.066,12.491c-7.056,5.202-16.99,3.699-22.193-3.359l-46.041-62.462l-53.841-3.008l-46.696,36.402
			C581.223,429.324,573.568,429.321,568.01,425.442z"/>
	</g>
	
		<polyline id="XMLID_13364_" style="fill:#FCD3B6;stroke:#640917;stroke-width:3;stroke-linecap:round;stroke-miterlimit:10;" points="
		750.185,495.682 782.486,466.72 724.683,388.012 696.274,371.864 673.913,411.66 	"/>
	<g style="opacity:0.83;">
		<path style="fill:#EAAA96;" d="M673.879,411.837c0.047,0,0.093,0,0.14,0l-0.08-0.081
			C673.92,411.784,673.898,411.809,673.879,411.837z"/>
		<path style="fill:#EAAA96;" d="M724.684,388.013l-14.089-8.009l-32.156,23.6l-4.526,8.056l0.161,0.177
			C711.75,405,737,409,755.008,429.303L724.684,388.013z"/>
	</g>
	<g id="XMLID_13362_">
		<path id="XMLID_13363_" style="fill:#CDE0DF;stroke:#640917;stroke-width:3;stroke-miterlimit:10;" d="M542.44,404.68
			c66.649-14.632,190.303-42.425,203.74-46.405c7.529-3.472,18.456,27.755,8.317,30.305c-5.11,1.285-12.539,3.065-22.081,5.292
			c-15.967,3.725-67.7,15.944-95.48,22.172c-47.257,10.592-85.376,18.804-85.853,18.908
			C546.579,435.941,533.878,406.559,542.44,404.68z"/>
	</g>
	<path id="XMLID_13361_" style="fill:#CDE0DF;stroke:#640917;stroke-width:3;stroke-miterlimit:10;" d="M550.86,434.796
		c-6.136,1.752-13.045-3.604-15.432-11.963c-2.387-8.359,0.652-16.556,6.788-18.308"/>
	
		<line id="XMLID_13360_" style="fill:#FCD3B6;stroke:#640917;stroke-width:3;stroke-linecap:round;stroke-miterlimit:10;" x1="595.284" y1="419.925" x2="669.811" y2="437.428"/>
	<polygon id="XMLID_13359_" style="opacity:0.13;fill:#640917;" points="505.103,428.099 535.972,426.617 741.379,381.52 
		745.141,385.988 751.216,389.184 549.267,435.091 	"/>
	<path id="XMLID_13358_" style="fill:#FCD3B6;stroke:#640917;stroke-width:3;stroke-linecap:round;stroke-miterlimit:10;" d="
		M673.939,411.756c-3.365,4.858-9.074,7.428-14.841,6.853l-60.185-14.134c-8.533-2.004-17.075,3.289-19.079,11.823
		c-1.531,6.516,1.195,13.038,6.369,16.65c1.601,1.117,3.437,1.957,5.454,2.43l48.483,11.386c5.426,1.274,10.363,4.105,14.204,8.144
		l27.081,28.477c9.745,10.247,21.287,18.62,34.054,24.702l19.301,9.195l17.896-25.642"/>
	<path id="XMLID_13357_" style="opacity:0.83;fill:#EAAA96;" d="M779.198,463.431l-44.418,53.848l-19.301-9.192
		c-12.767-6.083-24.31-14.454-34.055-24.703l-27.081-28.476c-3.842-4.043-8.779-6.873-14.205-8.142l-48.482-11.389
		c-2.019-0.473-3.855-1.314-5.456-2.431c-5.174-3.611-7.897-10.131-6.37-16.65c1.016-4.31,3.696-7.795,7.205-9.924
		c-4.711,7.838-2.955,18.551,2.067,22.056c1.601,1.117,3.437,1.957,5.456,2.431l60.535,13.964c5.424,1.273,10.36,4.103,14.205,8.142
		l19.453,19.919c9.747,10.245,21.288,18.62,34.055,24.703l6.466,3.199L779.198,463.431z"/>
	
		<polygon id="XMLID_13356_" style="fill:#FFFFFF;stroke:#640917;stroke-width:3;stroke-linecap:round;stroke-miterlimit:10;" points="
		737.156,538.973 721.738,524.585 779.657,462.52 789.324,471.349 	"/>
	<polygon style="fill:#E25959;stroke:#640917;stroke-width:3;stroke-linecap:round;stroke-miterlimit:10;" points="900,568.05 
		900,700.28 727.29,548.94 725.69,547.54 741.54,528.55 767.28,497.69 789.26,471.36 	"/>
	
		<ellipse id="XMLID_13354_" transform="matrix(0.9616 -0.2746 0.2746 0.9616 -73.6495 220.3504)" style="fill:#B1C9C7;stroke:#640917;stroke-width:3;stroke-miterlimit:10;" cx="750.278" cy="373.255" rx="11.554" ry="15.741"/>
	<path id="XMLID_13353_" style="fill:#FFD671;stroke:#640917;stroke-width:3;stroke-miterlimit:10;" d="M755.15,382.131
		c-3.818,1.09-8.116-2.242-9.602-7.443c-1.485-5.201,0.406-10.301,4.224-11.391c3.818-1.09,8.116,2.242,9.601,7.443
		C760.859,375.941,758.968,381.041,755.15,382.131z"/>
	<polyline id="XMLID_13352_" style="fill:#FFD671;stroke:#640917;stroke-width:3;stroke-miterlimit:10;" points="750.287,363.181 
		762.398,359.89 767.776,378.724 755.15,382.131 	"/>
	
		<line id="XMLID_13351_" style="fill:#FCD3B6;stroke:#66321E;stroke-width:13.2951;stroke-linecap:round;stroke-miterlimit:10;" x1="729.087" y1="383.299" x2="729.442" y2="384.636"/>
	<path id="XMLID_13350_" style="fill:#FFD671;stroke:#640917;stroke-width:3;stroke-miterlimit:10;" d="M767.776,378.724
		c-3.818,1.09-8.116-2.242-9.601-7.443c-1.485-5.201,0.406-10.301,4.224-11.391c3.818-1.09,8.116,2.242,9.602,7.443
		C773.485,372.534,771.594,377.634,767.776,378.724z"/>
	<g id="XMLID_13347_">
		<path id="XMLID_13349_" style="fill:#FFD671;stroke:#640917;stroke-width:3;stroke-miterlimit:10;" d="M730.627,385.463
			c0,0-44.454,9.969-43.911,9.823"/>
		<path id="XMLID_13348_" style="fill:#FFD671;stroke:#640917;stroke-width:3;stroke-miterlimit:10;" d="M684.14,399.01
			c-1.389-0.969-1.796-2.533-1.822-2.64c-0.589-2.39,0.845-4.815,3.223-5.455c0.117-0.031,0.233-0.058,0.349-0.079
			c1.915-0.412,32.106-7.178,43.747-9.789c2.439-0.547,4.859,0.987,5.406,3.426c0.547,2.439-0.987,4.859-3.426,5.406
			c0,0-10.978,2.462-21.957,4.921c-5.49,1.229-10.98,2.458-15.098,3.378c-2.06,0.461-3.778,0.844-4.98,1.111l-1.404,0.311
			C686.323,400.009,685.03,399.632,684.14,399.01z"/>
	</g>
</g>
</svg>
