<?xml version="1.0" encoding="utf-8"?>
<!-- Generator: Adobe Illustrator 27.5.0, SVG Export Plug-In . SVG Version: 6.00 Build 0)  -->
<svg version="1.1" xmlns="http://www.w3.org/2000/svg" xmlns:xlink="http://www.w3.org/1999/xlink" x="0px" y="0px"
	 viewBox="0 0 500 500" style="enable-background:new 0 0 500 500;" xml:space="preserve">
<g id="BACKGROUND">
	<rect style="fill:#FFFFFF;" width="500" height="500"/>
</g>
<g id="OBJECTS">
	<g>
		<g>
			<path style="fill:#D8EDFB;" d="M467.645,289.97c-0.24,2.84-0.56,5.67-0.94,8.47c-2.41,17.62-7.63,34.51-15.32,50.08
				c-0.44,0.9-0.89,1.79-1.36,2.67l-0.39,0.75c-2.25,4.32-4.71,8.54-7.35,12.62c-13.36,20.69-31.51,38.27-52.74,50.78
				c-0.25,0.14-0.49,0.29-0.74,0.43c-5.67,3.3-11.58,6.3-17.66,9.01c-8.31,3.71-16.92,6.89-25.66,9.62c-1.13,0.35-2.27,0.7-3.4,1.03
				c-1.48,0.45-2.96,0.87-4.44,1.29c-7.94,2.23-15.94,4.11-23.85,5.69l-0.75,0.15c-2.24,0.44-4.49,0.86-6.75,1.25
				c-1.54,0.27-3.08,0.53-4.63,0.76c-1.33,0.22-2.67,0.42-4.01,0.61c-2.45,0.36-4.91,0.69-7.38,0.98c-0.1,0.01-0.21,0.03-0.31,0.03
				c-0.02,0.01-0.05,0.01-0.08,0.01c-19.39,2.31-39.01,2.78-58.47,1.49c-7.2-0.48-14.38-1.21-21.52-2.2
				c-10.44-1.45-20.78-3.6-30.88-6.49c-0.54-0.16-1.08-0.31-1.62-0.48c-9.37-2.75-18.51-6.13-27.36-10.17
				c-18.99-8.66-36.56-20.33-51.69-35.18c-9.52-9.34-17.74-18.92-24.81-28.61c-6.81-9.32-12.57-18.76-17.39-28.19
				c-6.26-12.19-10.98-24.36-14.48-36.29c-1.09-3.68-2.05-7.33-2.9-10.95v-0.01c-13.78-58.13-0.08-108.31,3.38-121.47
				c5.93-22.52,16.34-43.92,31.2-61.92c0.48-0.58,0.96-1.16,1.46-1.74c4.05-4.76,8.41-9.24,13.03-13.43
				c6.75-6.11,14.06-11.59,21.84-16.33c0.01-0.01,0.02-0.01,0.03-0.02c1.78-1.08,3.58-2.13,5.41-3.13
				c4.48-2.46,9.09-4.68,13.84-6.65c0,0,0,0,0.01,0c21.88-9.14,46.01-12.91,69.64-10.96c29.34,2.42,56.13,9.17,79.74,27.34
				c9.37,7.22,17.47,16.07,27.31,22.63c9.81,6.54,20.79,11.16,31.84,15.13c12.28,4.41,24.69,9.05,36.68,14.52h0.01
				c19.56,8.9,37.98,19.98,52.89,35.76c25.14,26.61,38.72,60.58,40.87,97.24C468.415,274.14,468.305,282.12,467.645,289.97z"/>
		</g>
		<g>
			<defs>
				<path id="SVGID_1_" d="M467.645,289.97c-0.24,2.84-0.56,5.67-0.94,8.47c-2.41,17.62-7.63,34.51-15.32,50.08
					c-0.44,0.9-0.89,1.79-1.36,2.67l-0.39,0.75c-2.25,4.32-4.71,8.54-7.35,12.62c-13.36,20.69-31.51,38.27-52.74,50.78
					c-0.25,0.14-0.49,0.29-0.74,0.43c-5.67,3.3-11.58,6.3-17.66,9.01c-8.31,3.71-16.92,6.89-25.66,9.62
					c-1.13,0.35-2.27,0.7-3.4,1.03c-1.48,0.45-2.96,0.87-4.44,1.29c-7.94,2.23-15.94,4.11-23.85,5.69l-0.75,0.15
					c-2.24,0.44-4.49,0.86-6.75,1.25c-1.54,0.27-3.08,0.53-4.63,0.76c-1.33,0.22-2.67,0.42-4.01,0.61
					c-2.45,0.36-4.91,0.69-7.38,0.98c-0.1,0.01-0.21,0.03-0.31,0.03c-0.02,0.01-0.05,0.01-0.08,0.01
					c-19.39,2.31-39.01,2.78-58.47,1.49c-7.2-0.48-14.38-1.21-21.52-2.2c-10.44-1.45-20.78-3.6-30.88-6.49
					c-0.54-0.16-1.08-0.31-1.62-0.48c-9.37-2.75-18.51-6.13-27.36-10.17c-18.99-8.66-36.56-20.33-51.69-35.18
					c-9.52-9.34-17.74-18.92-24.81-28.61c-6.81-9.32-12.57-18.76-17.39-28.19c-6.26-12.19-10.98-24.36-14.48-36.29
					c-1.09-3.68-2.05-7.33-2.9-10.95v-0.01c-13.78-58.13-0.08-108.31,3.38-121.47c5.93-22.52,16.34-43.92,31.2-61.92
					c0.48-0.58,0.96-1.16,1.46-1.74c4.05-4.76,8.41-9.24,13.03-13.43c6.75-6.11,14.06-11.59,21.84-16.33
					c0.01-0.01,0.02-0.01,0.03-0.02c1.78-1.08,3.58-2.13,5.41-3.13c4.48-2.46,9.09-4.68,13.84-6.65c0,0,0,0,0.01,0
					c21.88-9.14,46.01-12.91,69.64-10.96c29.34,2.42,56.13,9.17,79.74,27.34c9.37,7.22,17.47,16.07,27.31,22.63
					c9.81,6.54,20.79,11.16,31.84,15.13c12.28,4.41,24.69,9.05,36.68,14.52h0.01c19.56,8.9,37.98,19.98,52.89,35.76
					c25.14,26.61,38.72,60.58,40.87,97.24C468.415,274.14,468.305,282.12,467.645,289.97z"/>
			</defs>
			<clipPath id="SVGID_00000087400705270467075920000006214075855537335737_">
				<use xlink:href="#SVGID_1_"  style="overflow:visible;"/>
			</clipPath>
			<g style="clip-path:url(#SVGID_00000087400705270467075920000006214075855537335737_);">
				<path style="fill:#F2D578;" d="M521.387,334.734c-2.942,5.374-6.159,10.624-9.611,15.7
					c-17.47,25.739-41.203,47.61-68.964,63.173c-0.327,0.174-0.641,3.361-0.968,3.535H150.035v-82.408H521.387z"/>
				<path style="fill:#E6B964;" d="M441.844,414.142c-7.414,4.105-15.142,7.837-23.093,11.209H150.035v-11.209H441.844z"/>
			</g>
			<g style="clip-path:url(#SVGID_00000087400705270467075920000006214075855537335737_);">
				
					<line style="fill:none;stroke:#43434D;stroke-width:1.2855;stroke-linecap:round;stroke-miterlimit:10;" x1="455.287" y1="334.734" x2="425.198" y2="334.734"/>
				
					<line style="fill:none;stroke:#43434D;stroke-width:1.2855;stroke-linecap:round;stroke-miterlimit:10;" x1="384.619" y1="414.142" x2="282.862" y2="414.142"/>
				
					<line style="fill:none;stroke:#43434D;stroke-width:1.2855;stroke-linecap:round;stroke-miterlimit:10;" x1="360.409" y1="424.744" x2="258.652" y2="424.744"/>
			</g>
		</g>
		<path style="fill:#FFFFFF;" d="M173.244,95.233c0.088-0.717,0.147-1.442,0.147-2.182c0-9.857-7.991-17.848-17.848-17.848
			c-2.663,0-5.181,0.599-7.451,1.645c-3.634-7.354-11.189-12.423-19.947-12.423c-12.295,0-22.262,9.967-22.262,22.261
			c0,0.055,0.008,0.107,0.008,0.162c-8.778,1.122-15.568,8.604-15.568,17.687c0,9.857,7.991,17.848,17.848,17.848l63.74,0.347
			c7.611,0,13.781-6.17,13.781-13.782C185.692,101.786,180.23,95.904,173.244,95.233z"/>
		<g>
			<path style="fill:none;stroke:#0F1109;stroke-width:1.034;stroke-linecap:round;stroke-miterlimit:10;" d="M365.769,171.77
				c0-3.204-2.597-5.801-5.801-5.801c-3.204,0-5.801,2.597-5.801,5.801c0,3.204,2.597,5.801,5.801,5.801
				C363.172,177.571,365.769,174.974,365.769,171.77z"/>
			<path style="fill:none;stroke:#0F1109;stroke-width:1.034;stroke-linecap:round;stroke-miterlimit:10;" d="M47.192,294.291
				c0-3.204-2.597-5.801-5.801-5.801c-3.204,0-5.801,2.597-5.801,5.801c0,3.204,2.597,5.801,5.801,5.801
				C44.595,300.092,47.192,297.495,47.192,294.291z"/>
			<path style="fill:none;stroke:#0F1109;stroke-width:1.034;stroke-linecap:round;stroke-miterlimit:10;" d="M208.594,75.399
				c0-3.204-2.597-5.801-5.801-5.801c-3.204,0-5.801,2.597-5.801,5.801c0,3.204,2.597,5.801,5.801,5.801
				C205.997,81.2,208.594,78.603,208.594,75.399z"/>
			<path style="fill:#EFCF56;" d="M331.508,57.954c-0.737,2.67-1.335,3.267-4.005,4.005c2.67,0.737,3.267,1.335,4.005,4.005
				c0.737-2.67,1.335-3.267,4.005-4.005C332.843,61.221,332.245,60.624,331.508,57.954z"/>
			<path style="fill:#EFCF56;" d="M330.529,80.166c-1.442,5.222-2.611,6.391-7.833,7.833c5.222,1.442,6.391,2.611,7.833,7.833
				c1.442-5.222,2.611-6.391,7.833-7.833C333.139,86.557,331.97,85.388,330.529,80.166z"/>
			<path style="fill:#EFCF56;" d="M304.934,67.973c-1.122,4.064-2.032,4.974-6.096,6.096c4.064,1.122,4.974,2.032,6.096,6.096
				c1.122-4.064,2.032-4.974,6.096-6.096C306.966,72.947,306.056,72.037,304.934,67.973z"/>
			<path style="fill:#EFCF56;" d="M41.391,116.633c-1.122,4.064-2.032,4.974-6.096,6.096c4.064,1.122,4.974,2.032,6.096,6.096
				c1.122-4.064,2.032-4.974,6.096-6.096C43.423,121.607,42.513,120.697,41.391,116.633z"/>
			<path style="fill:#FFFFFF;" d="M217.321,266.112c-0.818,2.962-1.481,3.625-4.443,4.443c2.962,0.818,3.625,1.481,4.443,4.443
				c0.818-2.962,1.481-3.625,4.443-4.443C218.802,269.737,218.139,269.074,217.321,266.112z"/>
			<path style="fill:#FFFFFF;" d="M243.514,434.529c-0.818,2.962-1.481,3.625-4.443,4.443c2.962,0.818,3.625,1.481,4.443,4.443
				c0.818-2.962,1.481-3.625,4.443-4.443C244.995,438.154,244.332,437.491,243.514,434.529z"/>
			<path style="fill:#FFFFFF;" d="M420.371,202.363c-0.818,2.962-1.481,3.625-4.443,4.443c2.962,0.818,3.625,1.481,4.443,4.443
				c0.818-2.962,1.481-3.625,4.443-4.443C421.852,205.988,421.189,205.325,420.371,202.363z"/>
			<path style="fill:#FFFFFF;" d="M401.24,184.098c-1.223,4.427-2.213,5.418-6.64,6.64c4.427,1.222,5.418,2.213,6.64,6.64
				c1.222-4.427,2.213-5.418,6.64-6.64C403.453,189.516,402.462,188.525,401.24,184.098z"/>
			<path style="fill:#FFFFFF;" d="M61.261,255.336c-1.223,4.427-2.214,5.418-6.64,6.64c4.427,1.222,5.418,2.214,6.64,6.64
				c1.222-4.427,2.213-5.418,6.64-6.64C63.475,260.754,62.484,259.763,61.261,255.336z"/>
			<path style="fill:#FFFFFF;" d="M80.848,163.72c-0.818,2.962-1.481,3.625-4.443,4.443c2.962,0.818,3.625,1.481,4.443,4.443
				c0.818-2.962,1.481-3.625,4.443-4.443C82.329,167.345,81.666,166.682,80.848,163.72z"/>
		</g>
		<g>
			<path style="fill:none;stroke:#43434D;stroke-width:1.2855;stroke-linecap:round;stroke-miterlimit:10;" d="M48.775,88.278
				c2.284,0,2.284,3.795,4.567,3.795c2.284,0,2.284-3.795,4.568-3.795c2.284,0,2.284,3.795,4.567,3.795
				c2.284,0,2.284-3.795,4.569-3.795c2.285,0,2.285,3.795,4.569,3.795c2.284,0,2.284-3.795,4.569-3.795
				c2.282,0,2.282,3.795,4.564,3.795c2.284,0,2.284-3.795,4.568-3.795c2.283,0,2.283,3.795,4.566,3.795
				c2.284,0,2.284-3.795,4.568-3.795c2.285,0,2.285,3.795,4.57,3.795c2.285,0,2.285-3.795,4.57-3.795
				c2.285,0,2.285,3.795,4.57,3.795c2.284,0,2.284-3.795,4.569-3.795c2.285,0,2.285,3.795,4.569,3.795
				c2.287,0,2.287-3.795,4.573-3.795c2.288,0,2.288,3.795,4.576,3.795c2.288,0,2.288-3.795,4.576-3.795"/>
			<path style="fill:none;stroke:#43434D;stroke-width:1.2855;stroke-linecap:round;stroke-miterlimit:10;" d="M239.834,218.033
				c2.389,0,2.389,3.795,4.777,3.795c2.39,0,2.39-3.795,4.78-3.795c2.39,0,2.39,3.795,4.779,3.795c2.39,0,2.39-3.795,4.78-3.795
				c2.39,0,2.39,3.795,4.781,3.795c2.389,0,2.389-3.795,4.778-3.795c2.391,0,2.391,3.795,4.782,3.795
				c2.393,0,2.393-3.795,4.786-3.795s2.393,3.795,4.785,3.795"/>
			<path style="fill:none;stroke:#43434D;stroke-width:1.2855;stroke-linecap:round;stroke-miterlimit:10;" d="M452.088,286.593
				c2.389,0,2.389,3.795,4.777,3.795c2.39,0,2.39-3.795,4.78-3.795c2.39,0,2.39,3.795,4.779,3.795c2.39,0,2.39-3.795,4.78-3.795
				c2.39,0,2.39,3.795,4.781,3.795"/>
			<path style="fill:none;stroke:#43434D;stroke-width:1.2855;stroke-linecap:round;stroke-miterlimit:10;" d="M443.339,294.712
				c2.389,0,2.389,3.795,4.777,3.795c2.39,0,2.39-3.795,4.78-3.795c2.39,0,2.39,3.795,4.779,3.795c2.39,0,2.39-3.795,4.78-3.795
				c2.39,0,2.39,3.795,4.781,3.795"/>
			<path style="fill:none;stroke:#43434D;stroke-width:1.2855;stroke-linecap:round;stroke-miterlimit:10;" d="M262.308,435.177
				c2.389,0,2.389,3.795,4.777,3.795c2.39,0,2.39-3.795,4.78-3.795c2.39,0,2.39,3.795,4.779,3.795c2.39,0,2.39-3.795,4.78-3.795
				c2.39,0,2.39,3.795,4.781,3.795"/>
			<path style="fill:none;stroke:#43434D;stroke-width:1.2855;stroke-linecap:round;stroke-miterlimit:10;" d="M221.154,225.712
				c2.389,0,2.389,3.795,4.777,3.795c2.39,0,2.39-3.795,4.779-3.795s2.39,3.795,4.779,3.795c2.39,0,2.39-3.795,4.78-3.795
				c2.39,0,2.39,3.795,4.781,3.795c2.389,0,2.389-3.795,4.778-3.795c2.391,0,2.391,3.795,4.782,3.795
				c2.393,0,2.393-3.795,4.786-3.795c2.393,0,2.393,3.795,4.786,3.795"/>
			<path style="fill:none;stroke:#43434D;stroke-width:1.2855;stroke-linecap:round;stroke-miterlimit:10;" d="M348.637,131.865
				c2.284,0,2.284,3.794,4.567,3.794c2.284,0,2.284-3.794,4.569-3.794c2.284,0,2.284,3.794,4.567,3.794
				c2.284,0,2.284-3.794,4.569-3.794c2.285,0,2.285,3.794,4.569,3.794c2.284,0,2.284-3.794,4.569-3.794
				c2.282,0,2.282,3.794,4.564,3.794c2.284,0,2.284-3.794,4.568-3.794c2.283,0,2.283,3.794,4.566,3.794
				c2.284,0,2.284-3.794,4.568-3.794c2.285,0,2.285,3.794,4.57,3.794c2.285,0,2.285-3.794,4.57-3.794
				c2.285,0,2.285,3.794,4.57,3.794c2.284,0,2.284-3.794,4.569-3.794c2.285,0,2.285,3.794,4.569,3.794
				c2.287,0,2.287-3.794,4.573-3.794c2.288,0,2.288,3.794,4.576,3.794c2.288,0,2.288-3.794,4.576-3.794"/>
			<path style="fill:none;stroke:#43434D;stroke-width:1.2855;stroke-linecap:round;stroke-miterlimit:10;" d="M63.827,102.794
				c2.284,0,2.284,3.795,4.567,3.795c2.284,0,2.284-3.795,4.569-3.795c2.284,0,2.284,3.795,4.567,3.795
				c2.284,0,2.284-3.795,4.568-3.795c2.285,0,2.285,3.795,4.569,3.795c2.284,0,2.284-3.795,4.568-3.795
				c2.282,0,2.282,3.795,4.564,3.795c2.284,0,2.284-3.795,4.568-3.795c2.283,0,2.283,3.795,4.566,3.795
				c2.284,0,2.284-3.795,4.568-3.795c2.285,0,2.285,3.795,4.57,3.795c2.285,0,2.285-3.795,4.57-3.795
				c2.285,0,2.285,3.795,4.57,3.795c2.284,0,2.284-3.795,4.569-3.795c2.285,0,2.285,3.795,4.569,3.795
				c2.287,0,2.287-3.795,4.573-3.795c2.288,0,2.288,3.795,4.576,3.795c2.288,0,2.288-3.795,4.577-3.795"/>
		</g>
		<g>
			
				<ellipse transform="matrix(0.9724 -0.2335 0.2335 0.9724 -24.8649 61.6553)" style="fill:#FFFFFF;" cx="247.962" cy="135.842" rx="37.577" ry="37.577"/>
			
				<ellipse transform="matrix(0.7071 -0.7071 0.7071 0.7071 -65.9334 198.2823)" style="fill:#FFFFFF;" cx="206.381" cy="178.73" rx="12.905" ry="12.905"/>
			<g>
				<g>
					<path style="fill:#EFCF56;" d="M263.995,137.177c2.267-9.012-3.728-18.165-13.205-19.462
						c-7.232-0.99-14.338,3.295-16.848,10.149c-1.878,5.129-0.949,10.451,1.876,14.487c1.712,2.444,2.387,5.464,1.659,8.358
						l-0.424,1.685l12.922,3.25l0.406-1.615c0.737-2.93,2.783-5.302,5.477-6.67C259.773,145.371,262.839,141.77,263.995,137.177z"/>
					<path style="fill:none;stroke:#FFFFFF;stroke-width:1.2636;stroke-miterlimit:10;" d="M240.262,138.192
						c0.917,0.594,2.062,0.785,3.146,0.644c1.084-0.141,2.109-0.598,3.019-1.204c1.035-0.69,1.946-1.593,2.532-2.69
						c0.587-1.097,0.832-2.396,0.561-3.611c-0.102-0.455-0.281-0.906-0.609-1.238c-0.327-0.331-0.824-0.521-1.272-0.395
						c-0.383,0.108-0.672,0.419-0.905,0.742c-1.037,1.435-1.332,3.364-0.823,5.06c0.509,1.696,1.795,3.13,3.403,3.869
						c1.608,0.74,3.51,0.789,5.174,0.186"/>
					<polyline style="fill:none;stroke:#43434D;stroke-width:1.1774;stroke-linecap:round;stroke-miterlimit:10;" points="
						243.162,138.132 241.842,155.387 244.593,156.079 251.379,139.608 					"/>
					<g>
						<path style="fill:#837FEE;" d="M249.099,157.212l-12.015-3.023c-0.929-0.234-1.493-1.176-1.259-2.106l0,0
							c0.234-0.929,1.177-1.493,2.106-1.259l12.015,3.022c0.929,0.234,1.493,1.176,1.259,2.106l0,0
							C250.971,156.882,250.028,157.446,249.099,157.212z"/>
						<path style="fill:#837FEE;" d="M248.252,160.577l-12.015-3.022c-0.929-0.234-1.493-1.176-1.259-2.106l0,0
							c0.234-0.929,1.176-1.493,2.106-1.259l12.015,3.023c0.929,0.234,1.493,1.176,1.259,2.105l0,0
							C250.124,160.247,249.182,160.811,248.252,160.577z"/>
						<path style="fill:#837FEE;" d="M247.406,163.942l-12.015-3.022c-0.929-0.234-1.493-1.176-1.259-2.106l0,0
							c0.234-0.929,1.176-1.493,2.106-1.259l12.015,3.022c0.929,0.234,1.493,1.176,1.259,2.106l0,0
							C249.278,163.612,248.335,164.176,247.406,163.942z"/>
					</g>
				</g>
				<g>
					
						<line style="fill:none;stroke:#EFCF56;stroke-width:1.9434;stroke-linecap:round;stroke-miterlimit:10;" x1="268.077" y1="127.565" x2="277.701" y2="124.481"/>
					
						<line style="fill:none;stroke:#EFCF56;stroke-width:1.9434;stroke-linecap:round;stroke-miterlimit:10;" x1="269.306" y1="138.806" x2="279.207" y2="139.92"/>
					
						<line style="fill:none;stroke:#EFCF56;stroke-width:1.9434;stroke-linecap:round;stroke-miterlimit:10;" x1="265.316" y1="147.516" x2="271.909" y2="155.527"/>
				</g>
				<g>
					
						<line style="fill:none;stroke:#EFCF56;stroke-width:1.9434;stroke-linecap:round;stroke-miterlimit:10;" x1="231.343" y1="119.977" x2="222.891" y2="114.437"/>
					
						<line style="fill:none;stroke:#EFCF56;stroke-width:1.9434;stroke-linecap:round;stroke-miterlimit:10;" x1="227.16" y1="130.483" x2="217.321" y2="128.915"/>
					
						<line style="fill:none;stroke:#EFCF56;stroke-width:1.9434;stroke-linecap:round;stroke-miterlimit:10;" x1="228.682" y1="139.942" x2="220.19" y2="145.903"/>
				</g>
			</g>
		</g>
		<g>
			<g>
				<path style="fill:#424A5B;" d="M275.062,362.686H417.78c2.034,0,3.76-1.491,4.056-3.503l15.59-105.945
					c0.364-2.475-1.554-4.696-4.056-4.696H290.653c-2.034,0-3.76,1.491-4.056,3.503l-15.59,105.945
					C270.642,360.464,272.561,362.686,275.062,362.686z"/>
				<polygon style="fill:#424A5B;" points="219.681,398.872 370.686,398.872 420.529,361.533 269.525,361.533 				"/>
				<polygon style="fill:#63697D;" points="237.943,391.628 271.391,367.567 401.021,367.567 367.574,391.628 				"/>
				<polygon style="fill:#D5D7FB;" points="414.412,354.687 428.855,256.541 294.019,256.541 279.577,354.687 				"/>
			</g>
			<g>
				<path style="fill:#FFFFFF;" d="M309.317,217.852c0.672-4.559,4.583-7.935,9.19-7.935h96.871h3.008
					c4.157,0,7.344,3.691,6.738,7.803l-0.019,0.131l-8.039,54.606l-0.112-0.224l-12.142,82.45H289.176L309.317,217.852z"/>
				<g>
					
						<line style="fill:none;stroke:#43434D;stroke-width:1.2503;stroke-linecap:round;stroke-miterlimit:10;" x1="387.942" y1="224.801" x2="341.687" y2="224.801"/>
					
						<line style="fill:none;stroke:#43434D;stroke-width:1.2503;stroke-linecap:round;stroke-miterlimit:10;" x1="356.876" y1="242.493" x2="316.045" y2="242.493"/>
					
						<line style="fill:none;stroke:#43434D;stroke-width:1.2503;stroke-linecap:round;stroke-miterlimit:10;" x1="400.965" y1="242.493" x2="363.218" y2="242.493"/>
					
						<line style="fill:none;stroke:#43434D;stroke-width:1.2503;stroke-linecap:round;stroke-miterlimit:10;" x1="335.174" y1="251.339" x2="314.959" y2="251.339"/>
					
						<line style="fill:none;stroke:#43434D;stroke-width:1.2503;stroke-linecap:round;stroke-miterlimit:10;" x1="409.651" y1="251.339" x2="346.286" y2="251.339"/>
					
						<line style="fill:none;stroke:#43434D;stroke-width:1.2503;stroke-linecap:round;stroke-miterlimit:10;" x1="381.794" y1="260.185" x2="313.873" y2="260.185"/>
					
						<line style="fill:none;stroke:#43434D;stroke-width:1.2503;stroke-linecap:round;stroke-miterlimit:10;" x1="408.565" y1="260.185" x2="390.178" y2="260.185"/>
					
						<line style="fill:none;stroke:#43434D;stroke-width:1.2503;stroke-linecap:round;stroke-miterlimit:10;" x1="407.479" y1="269.031" x2="333.095" y2="269.031"/>
					
						<line style="fill:none;stroke:#43434D;stroke-width:1.2503;stroke-linecap:round;stroke-miterlimit:10;" x1="354.705" y1="277.877" x2="311.702" y2="277.877"/>
					
						<line style="fill:none;stroke:#43434D;stroke-width:1.2503;stroke-linecap:round;stroke-miterlimit:10;" x1="394.421" y1="277.877" x2="360.882" y2="277.877"/>
					
						<line style="fill:none;stroke:#43434D;stroke-width:1.2503;stroke-linecap:round;stroke-miterlimit:10;" x1="320.369" y1="286.723" x2="310.616" y2="286.723"/>
					
						<line style="fill:none;stroke:#43434D;stroke-width:1.2503;stroke-linecap:round;stroke-miterlimit:10;" x1="405.308" y1="286.723" x2="325.067" y2="286.723"/>
					
						<line style="fill:none;stroke:#43434D;stroke-width:1.2503;stroke-linecap:round;stroke-miterlimit:10;" x1="333.203" y1="295.569" x2="309.53" y2="295.569"/>
					
						<line style="fill:none;stroke:#43434D;stroke-width:1.2503;stroke-linecap:round;stroke-miterlimit:10;" x1="372.123" y1="295.569" x2="339.024" y2="295.569"/>
					
						<line style="fill:none;stroke:#43434D;stroke-width:1.2503;stroke-linecap:round;stroke-miterlimit:10;" x1="404.222" y1="295.569" x2="377.969" y2="295.569"/>
					
						<line style="fill:none;stroke:#43434D;stroke-width:1.2503;stroke-linecap:round;stroke-miterlimit:10;" x1="403.136" y1="304.415" x2="329.414" y2="304.415"/>
					
						<line style="fill:none;stroke:#43434D;stroke-width:1.2503;stroke-linecap:round;stroke-miterlimit:10;" x1="344.866" y1="313.261" x2="307.359" y2="313.261"/>
					
						<line style="fill:none;stroke:#43434D;stroke-width:1.2503;stroke-linecap:round;stroke-miterlimit:10;" x1="394.421" y1="313.261" x2="351.448" y2="313.261"/>
					
						<line style="fill:none;stroke:#43434D;stroke-width:1.2503;stroke-linecap:round;stroke-miterlimit:10;" x1="323.384" y1="322.107" x2="306.273" y2="322.107"/>
					
						<line style="fill:none;stroke:#43434D;stroke-width:1.2503;stroke-linecap:round;stroke-miterlimit:10;" x1="372.934" y1="322.107" x2="327.341" y2="322.107"/>
					
						<line style="fill:none;stroke:#43434D;stroke-width:1.2503;stroke-linecap:round;stroke-miterlimit:10;" x1="400.965" y1="322.107" x2="379.349" y2="322.107"/>
					
						<line style="fill:none;stroke:#43434D;stroke-width:1.2503;stroke-linecap:round;stroke-miterlimit:10;" x1="381.794" y1="330.953" x2="304.501" y2="330.953"/>
				</g>
			</g>
		</g>
		<g>
			<g>
				<g>
					<g>
						<g>
							<path style="fill:#E8AA91;" d="M231.805,363.48c5.072-3.65,9.302-8.462,12.27-13.96c8.214-1.906,20.39-4.818,27.01-10.417
								c3.284-2.778,4.456-6.165,4.523-10.539c-1.372,1.997,4.369,5.434,6.791,5.364c2.422-0.07,2.285-2.162,2.354-4.584
								c0.198-6.877,0.304-10.456-3.237-13.869c1.239-3.753-2.919-7.58-5.98-10.08c-2.368-2.857-1.358-2.588-5.815-5.413
								c-2.595-1.644-6.328-1.43-9.823-0.039c-3.473-0.213-15.495,1.49-18.671,2.91c-7.776,3.474-11.622,8.956-16.34,14.223
								c-10.874,12.138-19.429,18.976-32.782,28.318C201.537,355.239,218.231,362.212,231.805,363.48z"/>
							<path style="fill:none;stroke:#43434D;stroke-width:1.2855;stroke-linecap:round;stroke-miterlimit:10;" d="M280.122,315.664
								c-3.145-0.505-6.411-0.231-9.428,0.792"/>
							<path style="fill:none;stroke:#43434D;stroke-width:1.2855;stroke-linecap:round;stroke-miterlimit:10;" d="M275.537,305.395
								c-5.079-1.105-8.841,0.019-12.046,2.123"/>
							<path style="fill:none;stroke:#43434D;stroke-width:1.2855;stroke-linecap:round;stroke-miterlimit:10;" d="M259.899,299.944
								c-3.03,0.891-5.469,2.622-7.028,4.354"/>
						</g>
						<path style="fill:none;stroke:#43434D;stroke-width:1.2855;stroke-linecap:round;stroke-miterlimit:10;" d="M284.198,319.914
							c1.444,3.851,1.132,8.107,0.801,12.206c-0.046,0.566-0.107,1.17-0.467,1.608c-0.354,0.43-0.928,0.61-1.478,0.698
							c-2.166,0.345-4.483-0.48-5.944-2.117s-2.018-4.032-1.43-6.145c-1.176,0-2.508-0.515-3.637-0.846
							c-1.452,3.159-4.129,5.998-7.023,7.924"/>
						<path style="fill:none;stroke:#43434D;stroke-width:1.2855;stroke-linecap:round;stroke-miterlimit:10;" d="M275.897,330.785
							c0.065,3.248-1.72,6.331-4.164,8.472c-2.444,2.141-5.492,3.462-8.56,4.533c-3.936,1.375-8.192,2.846-12.241,3.746"/>
					</g>
					<path style="fill:#78CD72;" d="M206.631,392.269l41.202-40.381l-26.521-37.78c0,0-57.206,30.042-69.683,59.802
						c18.713,6.197,37.318,12.749,55.748,19.879C206.894,392.803,206.631,392.269,206.631,392.269z"/>
				</g>
				<g>
					<path style="fill:#424A5B;" d="M183.035,209.579c-1.042,1.874-2.583,3.796-4.72,3.969c-2.514,0.203-4.491-2.091-5.688-4.312
						c-3.433-6.366-4.249-13.86-3.784-21.077c0.264-4.088,1.232-7.934,4.962-10.164c2.712-1.621,5.199-1.062,7.185,1.351
						c4.305,5.23,5.946,12.776,5.337,19.401C185.98,202.531,184.885,206.254,183.035,209.579z"/>
					<path style="fill:#E8AA91;" d="M125.042,217.209c1.589,9.794,3.327,19.964,9.032,28.082c5.705,8.118,16.627,13.49,25.778,9.654
						c6.048-2.535,10.012-8.385,12.94-14.253c8.614-17.26,11.214-37.451,7.253-56.33c-1.957-9.327-12.351-12.57-21.881-12.475
						c-9.53,0.094-18.449,5.943-23.663,13.921C129.288,193.786,123.516,207.802,125.042,217.209z"/>
					<path style="fill:#424A5B;" d="M107.203,250.707c1.694-2.006,3.179-4.106,4.429-5.762c5.703-7.555,10.036-16.396,13.01-25.152
						c3.008-8.853,7.318-20.131,7.352-29.482c7.774,4.29,16.261,7.701,25.133,8.076c8.871,0.375,18.2-2.655,23.923-9.444
						c6.641-7.878-9.898-18.68-15.156-21.901c-9.968-6.107-21.998-8.915-33.627-7.49c-6.764,0.828-13.634,3.179-18.293,8.152
						c-7.958,8.497-7.174,20.63-11.548,30.719c-2.313,5.335-6.194,10.228-11.532,12.534c-7.691,3.322-16.519,0.74-24.48-1.867
						c0.76,9.079,2.072,18.244,5.677,26.611c3.649,8.469,14.028,21.678,24.22,21.797
						C100.512,257.547,104.189,254.276,107.203,250.707z"/>
					<path style="fill:#E8AA91;" d="M121.813,212.517c-6.905,19.958-14.469,52.041-26.644,69.297
						c9.052,7.826,30.677,1.568,42.126,5.044c5.427-19.505,6.006-43.797,15.944-61.435c-2.788-0.533-4.515-3.075-6.741-4.837
						C140.165,215.57,128.147,217.532,121.813,212.517z"/>
					<path style="fill:#E8AA91;" d="M131.327,189.273c-3.036-2.848-7.365-4.834-11.442-4.432c-4.737,0.467-8.131,3.993-9.763,7.901
						c-2.556,6.12-1.206,14.262,4.858,18.925c4.913,3.777,12.327,4.431,17.162,1.513C140.589,208.081,138.38,195.89,131.327,189.273
						z"/>
					<path style="fill:none;stroke:#43434D;stroke-width:1.2855;stroke-linecap:round;stroke-miterlimit:10;" d="M175.49,205.306
						c-3.93-0.369-7.932,0.041-11.705,1.2"/>
					<path style="fill:#43434D;" d="M169.411,213.372c0.288-0.703,1.092-1.04,1.796-0.752c0.704,0.288,1.04,1.092,0.752,1.796
						c-0.288,0.704-1.092,1.04-1.796,0.752C169.46,214.879,169.123,214.075,169.411,213.372z"/>
					<g>
						<path style="fill:none;stroke:#43434D;stroke-width:1.2855;stroke-linecap:round;stroke-miterlimit:10;" d="M119.528,192.681
							c1.523,3.729,3.047,7.459,4.57,11.188"/>
						<path style="fill:none;stroke:#43434D;stroke-width:1.2855;stroke-linecap:round;stroke-miterlimit:10;" d="M127.746,194.81
							c-3.718,1.626-7.164,3.874-10.149,6.624"/>
					</g>
					<path style="fill:#E8AA91;" d="M175.56,227.222c1.937,0.752,4.263,0.388,5.878-0.919c1.615-1.307,2.455-3.507,2.123-5.558
						c-0.332-2.051-1.823-3.874-3.768-4.605C178.092,218.964,175.941,223.948,175.56,227.222z"/>
					<path style="opacity:0.3;fill:#222221;" d="M138.612,213.372c1.689-4.123,6.401-6.095,10.524-4.406
						c4.122,1.689,6.095,6.401,4.406,10.524c-1.689,4.123-6.401,6.095-10.524,4.406
						C138.896,222.206,136.923,217.495,138.612,213.372z"/>
					<path style="fill:none;stroke:#424A5B;stroke-width:1.2855;stroke-miterlimit:10;" d="M112.588,175.171
						c-2.2,3.36-4.079,6.928-5.611,10.64c-1.389,3.366-1.855,7.549-3.609,10.671c-3.451,6.144-9.899,10.509-16.886,11.43
						c-6.986,0.921-14.345-1.624-19.271-6.663"/>
					<path style="fill:none;stroke:#424A5B;stroke-width:1.2855;stroke-miterlimit:10;" d="M137.296,191.563
						c4.807,2.956,9.878,5.58,15.327,7.048c5.449,1.468,11.322,1.732,16.698,0.015c3.116-0.995,6.028-2.69,8.381-4.969
						c2.094-2.029,5.121-5.278,4.969-8.402c-0.072-1.487-0.981-2.906-2.302-3.594"/>
					<path style="fill:none;stroke:#43434D;stroke-width:1.2855;stroke-linecap:round;stroke-miterlimit:10;" d="M140.179,251.19
						c-7.237-3.416-13.264-9.334-16.812-16.508"/>
					<path style="fill:none;stroke:#43434D;stroke-width:1.2855;stroke-linecap:round;stroke-miterlimit:10;" d="M165.922,224.49
						c-0.205,3.035,1.653,6.104,4.437,7.329"/>
				</g>
				<g>
					<path style="fill:#E8AA91;" d="M283.193,401.418c6.156-1.069,12.063-3.552,17.134-7.203
						c12.302,2.799,27.146,2.095,37.518-5.087c-2.106,1.198-1.363,4.828,0.847,5.822c2.21,0.994,4.855-0.021,6.693-1.6
						c3.73-3.204,5.186-8.803,3.49-13.419c2.753-2.836,0.297-10.499-1.365-14.085c-1.662-3.586-0.612-4.786-3.86-7.038
						c-3.13-2.17-4.534-2.88-8.864-2.88c-3.031-1.708-13.171-4.833-16.648-4.943c-8.513-0.269-14.366,2.984-20.91,5.663
						c-15.082,6.173-25.764,8.59-41.856,11.165C259.559,380.79,271.534,394.351,283.193,401.418z"/>
					<path style="fill:none;stroke:#43434D;stroke-width:1.2855;stroke-linecap:round;stroke-miterlimit:10;" d="M347.537,379.492
						c-2.608-1.827-5.668-3.007-8.828-3.403"/>
					<path style="fill:none;stroke:#43434D;stroke-width:1.2855;stroke-linecap:round;stroke-miterlimit:10;" d="M340.426,385.661
						c-1.004,1.093-1.804,2.373-2.346,3.755"/>
					<path style="fill:none;stroke:#43434D;stroke-width:1.2855;stroke-linecap:round;stroke-miterlimit:10;" d="M347.509,365.847
						c-3.669-1.114-7.576-1.438-11.378-0.944"/>
					<path style="fill:none;stroke:#43434D;stroke-width:1.2855;stroke-linecap:round;stroke-miterlimit:10;" d="M334.785,355.93
						c-2.329,0.072-4.645,0.562-6.803,1.44"/>
				</g>
				<g>
					<path style="fill:#78CD72;" d="M300.715,400.03c0,0-63.621,39.294-93.731,27.865c-8.28-3.15-17.629-14.095-26.699-23.515
						c-1.19,5.23-2.22,25.01-2.89,34.14c-9.37-2.75-18.51-6.13-27.36-10.17c-18.99-8.66-36.56-20.33-51.69-35.18
						c-9.52-9.34-17.74-18.92-24.81-28.61c-6.81-9.32-12.57-18.76-17.39-28.19c2.04-69.29,43.84-73.74,43.84-73.74
						c1.73-0.09,3.48-0.14,5.21-0.14c12.16-0.06,24.34,1.99,35.94,6.5c17.8,6.92,34.25,19.64,47.24,39.49
						c4.17,6.37,8.12,12.49,11.8,18.24c1.91,2.99,3.74,5.88,5.5,8.64c7,11.08,12.67,20.26,16.41,26.38c3.21,5.25,5,8.24,5,8.24
						l2.98-0.67l53.29-12.05l1.59,3.91l13.84,34.1L300.715,400.03z"/>
					<g>
						<defs>
							<path id="SVGID_00000133524705128482074000000010241868273525171080_" d="M300.715,400.03c0,0-63.621,39.294-93.731,27.865
								c-8.28-3.15-17.629-14.095-26.699-23.515c-1.19,5.23-2.22,25.01-2.89,34.14c-9.37-2.75-18.51-6.13-27.36-10.17
								c-18.99-8.66-36.56-20.33-51.69-35.18c-9.52-9.34-17.74-18.92-24.81-28.61c-6.81-9.32-12.57-18.76-17.39-28.19
								c2.04-69.29,43.84-73.74,43.84-73.74c1.73-0.09,3.48-0.14,5.21-0.14c12.16-0.06,24.34,1.99,35.94,6.5
								c17.8,6.92,34.25,19.64,47.24,39.49c4.17,6.37,8.12,12.49,11.8,18.24c1.91,2.99,3.74,5.88,5.5,8.64
								c7,11.08,12.67,20.26,16.41,26.38c3.21,5.25,5,8.24,5,8.24l2.98-0.67l53.29-12.05l1.59,3.91l13.84,34.1L300.715,400.03z"/>
						</defs>
						<clipPath id="SVGID_00000062908511172937854230000011042240729625535908_">
							<use xlink:href="#SVGID_00000133524705128482074000000010241868273525171080_"  style="overflow:visible;"/>
						</clipPath>
						<g style="clip-path:url(#SVGID_00000062908511172937854230000011042240729625535908_);">
							<g>
								<path style="fill:none;stroke:#FFFFFF;stroke-width:1.2636;stroke-miterlimit:10;" d="M74.551,254.274
									c19.766,16.749,31.53,42.555,31.208,68.46c-0.135,10.845-2.374,21.875-8.04,31.122
									c-5.666,9.248-15.055,16.525-25.785,18.105c-10.73,1.581-22.536-3.284-27.781-12.777c-3.812-6.9-3.415-16.621,2.682-21.619
									c3.819-3.13,9.201-3.903,14.028-2.865c4.827,1.038,9.164,3.704,12.988,6.828c14.647,11.965,22.55,30.922,23.623,49.804
									c1.912,33.624-4.978,39.494-12.112,54.841"/>
								<path style="fill:none;stroke:#FFFFFF;stroke-width:1.2636;stroke-miterlimit:10;" d="M173.37,274.374
									c-12.529,8.871-23.567,20.934-27.497,35.773c-3.931,14.84,0.824,32.592,13.858,40.702
									c10.301,6.409,23.393,5.913,34.808,10.022c19.092,6.872,31.932,28,29.239,48.112c-0.694,5.183-2.376,10.373-5.751,14.367
									c-3.376,3.994-8.646,6.612-13.826,5.901c-8.466-1.163-13.732-11.39-11.208-19.554s11.04-13.511,19.565-14.1
									c8.525-0.589,16.902,2.856,23.953,7.685c12.423,8.508,21.649,21.573,25.513,36.125"/>
							</g>
						</g>
					</g>
					<path style="fill:none;stroke:#43434D;stroke-width:1.2855;stroke-linecap:round;stroke-miterlimit:10;" d="M206.984,427.895
						c-13.633-5.85-57.286-55.499-66.691-73.262"/>
				</g>
			</g>
		</g>
		<polyline style="fill:none;stroke:#43434D;stroke-width:1.2855;stroke-linecap:round;stroke-miterlimit:10;" points="
			200.175,326.72 227.085,369.98 268.271,360.671 		"/>
		
			<line style="fill:none;stroke:#43434D;stroke-width:1.2855;stroke-linecap:round;stroke-miterlimit:10;" x1="221.312" y1="314.108" x2="246.862" y2="350.505"/>
		
			<line style="fill:none;stroke:#43434D;stroke-width:1.2855;stroke-linecap:round;stroke-miterlimit:10;" x1="283.355" y1="357.26" x2="300.715" y2="400.03"/>
	</g>
</g>
</svg>
