<?xml version="1.0" encoding="utf-8"?>
<!-- Generator: Adobe Illustrator 27.5.0, SVG Export Plug-In . SVG Version: 6.00 Build 0)  -->
<svg version="1.1" xmlns="http://www.w3.org/2000/svg" xmlns:xlink="http://www.w3.org/1999/xlink" x="0px" y="0px"
	 viewBox="0 0 500 500" style="enable-background:new 0 0 500 500;" xml:space="preserve">
<g id="Background_Simple">
	<g>
		<path style="fill:#92E3A9;" d="M462.007,355.382c27.742-55.461,29.61-129.356,10.459-188.599
			c-16.489-51.008-53.181-89.911-95.561-113.078c-49.172-26.879-107.783-34.879-160.55-17.915
			c-13.883,4.463-27.396,8.55-40.483,15.88c-53.649,30.049-43.297,104.096-62.12,129.854c-15.836,21.671-46.118,15.281-65.21,31.887
			c-51.515,44.81-51.651,158.078,7.794,193.484C119.397,444.456,393.293,492.748,462.007,355.382z"/>
		<path style="opacity:0.8;fill:#FFFFFF;" d="M462.007,355.382c27.742-55.461,29.61-129.356,10.459-188.599
			c-16.489-51.008-53.181-89.911-95.561-113.078c-49.172-26.879-107.783-34.879-160.55-17.915
			c-13.883,4.463-27.396,8.55-40.483,15.88c-53.649,30.049-43.297,104.096-62.12,129.854c-15.836,21.671-46.118,15.281-65.21,31.887
			c-51.515,44.81-51.651,158.078,7.794,193.484C119.397,444.456,393.293,492.748,462.007,355.382z"/>
	</g>
</g>
<g id="Books">
	<g>
		<g>
			<path style="fill:#FFFFFF;" d="M281.871,411.43c0,0,3.382,3.902,0,8.585h61.507l1.821-4.682l-2.341-4.162L281.871,411.43z"/>
			<path style="fill:#263238;" d="M343.377,420.515h-61.506c-0.188,0-0.36-0.105-0.445-0.272c-0.085-0.167-0.07-0.368,0.04-0.52
				c3.1-4.292,0.154-7.816,0.027-7.965c-0.127-0.147-0.157-0.356-0.076-0.533c0.081-0.178,0.257-0.292,0.453-0.293l60.987-0.261
				c0.198-0.016,0.349,0.098,0.438,0.255l2.341,4.162c0.073,0.131,0.085,0.287,0.03,0.427l-1.821,4.683
				C343.769,420.388,343.583,420.515,343.377,420.515z M282.793,419.515h60.242l1.611-4.143l-2.081-3.7l-59.758,0.256
				C283.596,413.287,284.736,416.185,282.793,419.515z"/>
		</g>
		<g>
			<path style="fill:#92E3A9;" d="M343.378,419.803v-7.852h-57.752v-1.96h76.838c3.251,0,5.886,2.635,5.886,5.886
				s-2.635,5.886-5.886,5.886h-76.838v-1.96H343.378z"/>
			<path style="fill:#263238;" d="M362.464,422.263h-76.838c-0.276,0-0.5-0.224-0.5-0.5v-1.96c0-0.276,0.224-0.5,0.5-0.5h57.252
				v-6.852h-57.252c-0.276,0-0.5-0.224-0.5-0.5v-1.961c0-0.276,0.224-0.5,0.5-0.5h76.838c3.522,0,6.387,2.865,6.387,6.387
				C368.851,419.398,365.986,422.263,362.464,422.263z M286.126,421.263h76.338c2.971,0,5.387-2.416,5.387-5.386
				c0-2.971-2.416-5.387-5.387-5.387h-76.338v0.961h57.252c0.276,0,0.5,0.224,0.5,0.5v7.852c0,0.276-0.224,0.5-0.5,0.5h-57.252
				V421.263z"/>
		</g>
		<g>
			<path style="fill:#92E3A9;" d="M343.378,415.877L343.378,415.877c0-2.168-1.758-3.926-3.926-3.926h-59.922v-1.96h61.03
				c3.118,0,5.645,2.527,5.645,5.645l0,0c0,3.384-2.743,6.127-6.127,6.127h-60.549v-1.96h59.922
				C341.62,419.803,343.378,418.045,343.378,415.877z"/>
			<path style="fill:#263238;" d="M340.078,422.263h-60.549c-0.276,0-0.5-0.224-0.5-0.5v-1.96c0-0.276,0.224-0.5,0.5-0.5h59.922
				c1.889,0,3.426-1.537,3.426-3.426c0-1.889-1.537-3.426-3.426-3.426h-59.922c-0.276,0-0.5-0.224-0.5-0.5v-1.961
				c0-0.276,0.224-0.5,0.5-0.5h61.03c3.389,0,6.146,2.757,6.146,6.146C346.705,419.29,343.733,422.263,340.078,422.263z
				 M280.029,421.263h60.049c3.102,0,5.627-2.524,5.627-5.627c0-2.837-2.309-5.146-5.146-5.146h-60.53v0.961h59.422
				c2.44,0,4.426,1.985,4.426,4.426c0,2.44-1.985,4.426-4.426,4.426h-59.422V421.263z"/>
		</g>
	</g>
	<g>
		<g>
			<path style="fill:#FFFFFF;" d="M281.108,387.249c0,0,3.382,3.902,0,8.585h61.507l1.821-4.682l-2.341-4.162L281.108,387.249z"/>
			<path style="fill:#263238;" d="M342.615,396.333h-61.507c-0.188,0-0.36-0.105-0.445-0.273c-0.085-0.167-0.07-0.368,0.04-0.52
				c3.114-4.311,0.059-7.928,0.027-7.964c-0.128-0.147-0.158-0.357-0.077-0.534c0.081-0.178,0.258-0.292,0.453-0.293l60.987-0.26
				c0.144,0.007,0.35,0.097,0.438,0.255l2.341,4.162c0.073,0.131,0.085,0.287,0.03,0.427l-1.82,4.682
				C343.007,396.206,342.821,396.333,342.615,396.333z M282.03,395.333h60.243l1.61-4.143l-2.081-3.7l-59.758,0.255
				C282.834,389.105,283.973,392.005,282.03,395.333z"/>
		</g>
		<g>
			<path style="fill:#92E3A9;" d="M342.615,395.622v-7.852h-57.752v-1.96h76.838c3.251,0,5.886,2.635,5.886,5.886
				c0,3.251-2.635,5.886-5.886,5.886h-76.838v-1.96H342.615z"/>
			<path style="fill:#263238;" d="M361.701,398.082h-76.838c-0.276,0-0.5-0.224-0.5-0.5v-1.96c0-0.276,0.224-0.5,0.5-0.5h57.252
				v-6.853h-57.252c-0.276,0-0.5-0.224-0.5-0.5v-1.96c0-0.276,0.224-0.5,0.5-0.5h76.838c3.521,0,6.387,2.864,6.387,6.386
				C368.088,395.217,365.223,398.082,361.701,398.082z M285.363,397.082h76.338c2.971,0,5.387-2.416,5.387-5.387
				c0-2.97-2.416-5.386-5.387-5.386h-76.338v0.96h57.252c0.276,0,0.5,0.224,0.5,0.5v7.853c0,0.276-0.224,0.5-0.5,0.5h-57.252
				V397.082z"/>
		</g>
		<g>
			<path style="fill:#92E3A9;" d="M342.615,391.695L342.615,391.695c0-2.168-1.758-3.926-3.926-3.926h-59.922v-1.96h61.03
				c3.118,0,5.645,2.527,5.645,5.645l0,0c0,3.384-2.743,6.127-6.127,6.127h-60.548v-1.96h59.922
				C340.857,395.622,342.615,393.864,342.615,391.695z"/>
			<path style="fill:#263238;" d="M339.316,398.082h-60.548c-0.276,0-0.5-0.224-0.5-0.5v-1.96c0-0.276,0.224-0.5,0.5-0.5h59.921
				c1.89,0,3.427-1.537,3.427-3.427c0-1.889-1.537-3.426-3.427-3.426h-59.921c-0.276,0-0.5-0.224-0.5-0.5v-1.96
				c0-0.276,0.224-0.5,0.5-0.5h61.03c3.389,0,6.146,2.757,6.146,6.146C345.943,395.109,342.97,398.082,339.316,398.082z
				 M279.267,397.082h60.048c3.103,0,5.627-2.524,5.627-5.627c0-2.837-2.309-5.146-5.146-5.146h-60.53v0.96h59.421
				c2.441,0,4.427,1.985,4.427,4.426c0,2.441-1.985,4.427-4.427,4.427h-59.421V397.082z"/>
		</g>
	</g>
	<g>
		<g>
			<path style="fill:#FFFFFF;" d="M286.03,399.723c0,0,3.382,3.902,0,8.585h61.507l1.821-4.682l-2.341-4.162L286.03,399.723z"/>
			<path style="fill:#263238;" d="M347.537,408.808H286.03c-0.188,0-0.36-0.105-0.445-0.272c-0.085-0.167-0.07-0.368,0.04-0.521
				c3.114-4.311,0.059-7.929,0.027-7.965c-0.128-0.147-0.158-0.356-0.077-0.534c0.081-0.178,0.258-0.292,0.453-0.293l60.986-0.26
				c0.001,0,0.001,0,0.002,0c0.181,0,0.348,0.098,0.436,0.255l2.342,4.162c0.073,0.131,0.085,0.287,0.03,0.427l-1.821,4.683
				C347.929,408.681,347.743,408.808,347.537,408.808z M286.953,407.808h60.243l1.611-4.143l-2.082-3.7l-59.757,0.255
				C287.756,401.579,288.895,404.478,286.953,407.808z"/>
		</g>
		<g>
			<path style="fill:#263238;" d="M347.537,408.096v-7.852h-57.752v-1.96h76.838c3.251,0,5.886,2.635,5.886,5.886
				c0,3.251-2.635,5.886-5.886,5.886h-76.838v-1.96H347.537z"/>
			<path style="fill:#263238;" d="M366.624,410.556h-76.839c-0.276,0-0.5-0.224-0.5-0.5v-1.96c0-0.276,0.224-0.5,0.5-0.5h57.252
				v-6.853h-57.252c-0.276,0-0.5-0.224-0.5-0.5v-1.96c0-0.276,0.224-0.5,0.5-0.5h76.839c3.521,0,6.386,2.864,6.386,6.386
				C373.01,407.69,370.146,410.556,366.624,410.556z M290.285,409.556h76.339c2.97,0,5.386-2.416,5.386-5.387
				c0-2.97-2.416-5.386-5.386-5.386h-76.339v0.96h57.252c0.276,0,0.5,0.224,0.5,0.5v7.853c0,0.276-0.224,0.5-0.5,0.5h-57.252
				V409.556z"/>
		</g>
		<g>
			<path style="fill:#92E3A9;" d="M347.537,404.169L347.537,404.169c0-2.168-1.758-3.926-3.926-3.926h-59.922v-1.96h61.03
				c3.118,0,5.646,2.528,5.646,5.645l0,0c0,3.384-2.743,6.127-6.127,6.127h-60.549v-1.96h59.922
				C345.779,408.096,347.537,406.338,347.537,404.169z"/>
			<path style="fill:#263238;" d="M344.237,410.556h-60.548c-0.276,0-0.5-0.224-0.5-0.5v-1.96c0-0.276,0.224-0.5,0.5-0.5h59.922
				c1.889,0,3.426-1.537,3.426-3.427c0-1.889-1.537-3.426-3.426-3.426h-59.922c-0.276,0-0.5-0.224-0.5-0.5v-1.96
				c0-0.276,0.224-0.5,0.5-0.5h61.03c3.389,0,6.146,2.757,6.146,6.146C350.864,407.583,347.892,410.556,344.237,410.556z
				 M284.189,409.556h60.048c3.103,0,5.627-2.524,5.627-5.627c0-2.837-2.309-5.146-5.146-5.146h-60.53v0.96h59.422
				c2.44,0,4.426,1.985,4.426,4.426c0,2.441-1.985,4.427-4.426,4.427h-59.422V409.556z"/>
		</g>
	</g>
</g>
<g id="Table">
	<rect x="25.287" y="421.263" style="fill:#263238;" width="455.771" height="1"/>
</g>
<g id="Plant">
	<g>
		<g>
			<path style="fill:#92E3A9;" d="M393.14,364.962c0,0-0.217-5.635-2.601-9.537c-2.384-3.902-11.055-6.719-15.607-4.768
				c-4.552,1.951-6.719,3.251-6.719,3.251s6.719,1.951,12.789,6.069C387.071,364.095,393.14,364.962,393.14,364.962z"/>
			<path style="fill:#263238;" d="M393.14,365.462c-0.023,0-0.047-0.002-0.07-0.005c-0.253-0.036-6.253-0.932-12.348-5.066
				c-5.936-4.027-12.582-5.984-12.648-6.003c-0.19-0.056-0.331-0.219-0.357-0.416c-0.025-0.197,0.068-0.391,0.239-0.493
				c0.089-0.054,2.249-1.341,6.779-3.282c4.688-2.006,13.639,0.729,16.23,4.967c2.424,3.968,2.664,9.544,2.674,9.779
				c0.005,0.148-0.055,0.292-0.165,0.391C393.382,365.417,393.263,365.462,393.14,365.462z M369.465,353.787
				c2.182,0.744,7.211,2.65,11.817,5.775c4.793,3.252,9.638,4.452,11.313,4.792c-0.135-1.554-0.653-5.675-2.483-8.67
				c-2.338-3.825-10.736-6.391-14.982-4.568C372.391,352.289,370.512,353.231,369.465,353.787z"/>
		</g>
		<g>
			<path style="fill:#92E3A9;" d="M402.244,367.78c0,0-5.202-4.985-6.069-11.922c-0.867-6.936,6.503-17.774,6.503-17.774
				s3.685,6.719,5.852,14.523C410.697,360.41,402.244,367.78,402.244,367.78z"/>
			<path style="fill:#263238;" d="M402.244,368.279c-0.125,0-0.249-0.047-0.346-0.139c-0.218-0.209-5.341-5.189-6.22-12.22
				c-0.881-7.043,6.28-17.669,6.586-18.118c0.097-0.143,0.264-0.237,0.436-0.218c0.174,0.008,0.331,0.106,0.415,0.259
				c0.037,0.067,3.737,6.859,5.895,14.629c2.227,8.016-6.083,15.374-6.439,15.684C402.479,368.238,402.361,368.279,402.244,368.279z
				 M402.632,339.072c-1.582,2.499-6.67,11.054-5.961,16.724c0.709,5.67,4.453,10.064,5.591,11.283
				c1.54-1.481,7.596-7.825,5.786-14.339C406.334,346.57,403.636,341.028,402.632,339.072z"/>
		</g>
		<g>
			<path style="fill:#92E3A9;" d="M412.215,365.612c0,0-1.301-6.503,1.084-11.055c2.384-4.552,8.67-4.118,14.956-2.168
				c6.286,1.951,8.237,1.951,8.237,1.951s-7.37,4.986-13.656,7.586C416.55,364.528,412.215,365.612,412.215,365.612z"/>
			<path style="fill:#263238;" d="M412.215,366.112c-0.094,0-0.186-0.026-0.268-0.077c-0.115-0.073-0.196-0.19-0.223-0.325
				c-0.055-0.272-1.308-6.729,1.13-11.385c2.135-4.072,7.51-4.908,15.549-2.413c6.079,1.887,8.071,1.929,8.091,1.929
				c0.219,0.002,0.411,0.147,0.475,0.355c0.064,0.21-0.017,0.437-0.197,0.559c-0.074,0.05-7.484,5.044-13.744,7.634
				c-6.248,2.586-10.647,3.698-10.691,3.709C412.296,366.107,412.256,366.112,412.215,366.112z M420.476,351.504
				c-2.902,0-5.453,0.84-6.734,3.286c-1.889,3.605-1.362,8.582-1.123,10.196c1.332-0.368,5.091-1.478,10.026-3.521
				c4.725-1.955,10.133-5.313,12.435-6.796c-1.249-0.216-3.435-0.703-6.973-1.802C425.691,352.118,422.955,351.504,420.476,351.504z
				"/>
		</g>
		<g>
			<path style="fill:#263238;" d="M402.302,388.97c-0.31,0-0.561-0.251-0.561-0.561v-30.996c0-0.31,0.251-0.561,0.561-0.561
				c0.31,0,0.56,0.251,0.56,0.561v30.996C402.862,388.719,402.611,388.97,402.302,388.97z"/>
		</g>
		<g>
			<path style="fill:#263238;" d="M404.904,388.97c-0.026,0-0.051-0.002-0.078-0.006c-0.306-0.042-0.521-0.325-0.478-0.632
				c0.107-0.777,2.726-19.141,11.62-29.337c0.203-0.234,0.558-0.257,0.792-0.054c0.233,0.204,0.257,0.558,0.054,0.791
				c-8.672,9.942-11.329,28.566-11.355,28.754C405.419,388.767,405.179,388.97,404.904,388.97z"/>
		</g>
		<g>
			<path style="fill:#263238;" d="M399.701,388.536c-0.002,0-0.004,0-0.007,0c-0.31-0.004-0.557-0.258-0.554-0.567
				c0.002-0.177,0.083-17.821-10.411-26.217c-0.242-0.194-0.28-0.546-0.087-0.788c0.195-0.241,0.546-0.28,0.788-0.087
				c10.926,8.741,10.841,26.36,10.832,27.105C400.258,388.29,400.007,388.536,399.701,388.536z"/>
		</g>
		<g>
			<path style="fill:#263238;" d="M408.37,388.32c-0.048,0-0.097-0.006-0.145-0.019c-0.299-0.08-0.476-0.388-0.395-0.687
				c0.063-0.234,1.584-5.791,5.073-10.588c0.182-0.251,0.533-0.305,0.783-0.124c0.25,0.182,0.305,0.533,0.124,0.783
				c-3.368,4.631-4.882,10.165-4.897,10.22C408.844,388.155,408.618,388.32,408.37,388.32z"/>
			<g>
				<path style="fill:#92E3A9;" d="M411.781,379.701c0,0-0.217-6.069,2.384-6.936c2.601-0.867,4.986,1.301,6.936,2.601
					c1.951,1.301,4.118,2.601,4.118,6.503c0,3.902-1.517,11.055-1.517,11.055s-2.168-6.72-5.852-9.754
					C414.165,380.135,411.781,379.701,411.781,379.701z"/>
				<path style="fill:#263238;" d="M423.702,393.423c-0.216,0-0.409-0.14-0.476-0.347c-0.021-0.065-2.167-6.616-5.694-9.522
					c-3.515-2.894-5.819-3.357-5.843-3.362c-0.229-0.043-0.399-0.24-0.408-0.474c-0.023-0.659-0.147-6.471,2.726-7.429
					c2.455-0.813,4.688,0.769,6.482,2.041c0.306,0.217,0.602,0.428,0.89,0.619l0.202,0.134c1.939,1.289,4.139,2.749,4.139,6.784
					c0,3.91-1.466,10.864-1.528,11.158c-0.047,0.222-0.237,0.384-0.464,0.396C423.72,393.423,423.711,393.423,423.702,393.423z
					 M412.275,379.313c0.85,0.254,2.981,1.072,5.894,3.471c2.634,2.169,4.485,6.071,5.388,8.304
					c0.444-2.355,1.164-6.576,1.164-9.219c0-3.499-1.794-4.689-3.692-5.951l-0.203-0.135c-0.295-0.196-0.6-0.413-0.914-0.636
					c-1.693-1.201-3.611-2.564-5.587-1.907C412.611,373.81,412.269,377.521,412.275,379.313z"/>
			</g>
		</g>
		<g>
			<path style="fill:#263238;" d="M395.798,388.536c-0.237,0-0.458-0.151-0.534-0.389c-0.016-0.053-1.735-5.299-5.665-8.401
				c-0.243-0.192-0.285-0.544-0.093-0.787c0.193-0.242,0.545-0.284,0.787-0.093c4.205,3.319,5.966,8.712,6.039,8.939
				c0.094,0.294-0.069,0.61-0.363,0.704C395.912,388.528,395.855,388.536,395.798,388.536z"/>
			<g>
				<path style="fill:#92E3A9;" d="M393.14,381.652c0,0,0.867-3.902-1.301-6.72c-2.167-2.818-7.37-2.167-9.971,0.867
					c-2.601,3.035-6.286,12.138-6.286,12.138s5.202-4.118,11.271-4.118C392.923,383.82,393.14,381.652,393.14,381.652z"/>
				<path style="fill:#263238;" d="M375.583,388.438c-0.105,0-0.211-0.033-0.3-0.1c-0.182-0.137-0.249-0.378-0.164-0.588
					c0.152-0.375,3.746-9.215,6.369-12.275c1.556-1.814,4.029-2.867,6.45-2.838c1.821,0.049,3.348,0.756,4.298,1.991
					c2.221,2.888,1.473,6.748,1.396,7.11c-0.06,0.396-0.667,2.581-6.779,2.581c-5.816,0-10.909,3.971-10.96,4.011
					C375.803,388.401,375.693,388.438,375.583,388.438z M387.741,373.635c-2.047,0-4.187,0.966-5.493,2.49
					c-1.872,2.185-4.368,7.704-5.541,10.43c1.991-1.251,5.829-3.235,10.147-3.235c5.395,0,5.788-1.721,5.791-1.737
					c0.001-0.005,0.006-0.033,0.007-0.037c0.008-0.037,0.786-3.715-1.208-6.308c-0.763-0.992-2.018-1.561-3.531-1.601
					C387.856,373.636,387.798,373.635,387.741,373.635z"/>
			</g>
		</g>
		<g>
			<polygon style="fill:#FFFFFF;" points="410.413,421.763 393.113,421.763 384.463,393.152 419.063,393.152 			"/>
			<path style="fill:#263238;" d="M410.412,422.263h-17.3c-0.221,0-0.415-0.145-0.479-0.355l-8.649-28.61
				c-0.046-0.151-0.018-0.315,0.077-0.442c0.094-0.127,0.243-0.202,0.401-0.202h34.6c0.158,0,0.308,0.075,0.401,0.202
				c0.095,0.127,0.123,0.291,0.077,0.442l-8.65,28.61C410.827,422.118,410.633,422.263,410.412,422.263z M393.483,421.263h16.558
				l8.348-27.61h-33.252L393.483,421.263z"/>
		</g>
		<g>
			<rect x="384.366" y="388.408" style="fill:#FFFFFF;" width="34.793" height="4.744"/>
			<path style="fill:#263238;" d="M419.159,393.652h-34.793c-0.276,0-0.5-0.224-0.5-0.5v-4.744c0-0.276,0.224-0.5,0.5-0.5h34.793
				c0.276,0,0.5,0.224,0.5,0.5v4.744C419.659,393.429,419.436,393.652,419.159,393.652z M384.866,392.652h33.793v-3.744h-33.793
				V392.652z"/>
		</g>
	</g>
</g>
<g id="Blackboard">
	<g>
		<path style="fill:#263238;" d="M446.596,318.545H125.132v-7.112h321.464V318.545z M126.132,317.545h319.464v-5.112H126.132
			V317.545z"/>
		<path style="fill:#263238;" d="M446.596,315.369H125.132V120.51h321.464V315.369z M126.132,314.369h319.464V121.51H126.132
			V314.369z"/>
		<g>
			<rect x="132.248" y="127.828" style="fill:#808080;" width="307.231" height="180.224"/>
			<path style="fill:#263238;" d="M439.98,308.552H131.748V127.328H439.98V308.552z M132.748,307.552H438.98V128.328H132.748
				V307.552z"/>
		</g>
	</g>
	<g>
		<g>
			<g>
				<path style="fill:#E0E0E0;" d="M260.719,265.451c-0.598,0-1.125-0.171-1.582-0.514c-0.457-0.343-0.816-0.782-1.08-1.318
					c-0.264-0.536-0.396-1.103-0.396-1.7c0-0.949,0.158-1.749,0.475-2.399c0.316-0.65,0.751-1.2,1.305-1.648
					c0.554-0.448,1.194-0.839,1.924-1.173c0.729-0.333,1.498-0.659,2.307-0.976v-1.081c0-0.615-0.035-1.125-0.105-1.529
					c-0.07-0.404-0.215-0.708-0.435-0.91c-0.22-0.202-0.55-0.303-0.988-0.303c-0.387,0-0.699,0.088-0.936,0.264
					c-0.237,0.176-0.408,0.426-0.514,0.751s-0.158,0.708-0.158,1.146v0.765l-2.794-0.105c0.035-1.687,0.422-2.93,1.159-3.73
					c0.738-0.8,1.881-1.2,3.428-1.2c1.511,0,2.583,0.413,3.216,1.239c0.633,0.826,0.949,2.021,0.949,3.585v6.96
					c0,0.475,0.013,0.932,0.039,1.371c0.026,0.44,0.061,0.848,0.105,1.226c0.044,0.378,0.083,0.734,0.119,1.067h-2.584
					c-0.053-0.281-0.118-0.637-0.197-1.067s-0.137-0.822-0.172-1.173c-0.176,0.598-0.514,1.156-1.015,1.674
					C262.287,265.192,261.598,265.451,260.719,265.451z M261.826,263.026c0.28,0,0.544-0.079,0.791-0.237
					c0.245-0.158,0.465-0.338,0.658-0.541c0.193-0.202,0.325-0.364,0.396-0.487v-4.323c-0.439,0.246-0.853,0.492-1.238,0.738
					c-0.387,0.247-0.726,0.505-1.016,0.778c-0.29,0.272-0.518,0.58-0.684,0.923c-0.168,0.342-0.251,0.734-0.251,1.173
					c0,0.615,0.114,1.099,0.343,1.45C261.053,262.85,261.387,263.026,261.826,263.026z"/>
			</g>
			<g>
				<path style="fill:#E0E0E0;" d="M268.021,265.24l3.427-8.014l-3.348-7.223h2.689l2.241,4.824l1.977-4.824h2.769l-3.48,7.566
					l3.533,7.671h-2.69l-2.398-5.167l-2.057,5.167H268.021z"/>
			</g>
			<g>
				<path style="fill:#E0E0E0;" d="M280.068,253.826v-1.608l3.269-3.559c0.527-0.563,0.944-1.042,1.252-1.437
					c0.308-0.395,0.527-0.751,0.659-1.067c0.132-0.316,0.197-0.633,0.197-0.949c0-0.527-0.123-0.936-0.369-1.226
					c-0.246-0.29-0.624-0.435-1.133-0.435c-0.669,0-1.139,0.215-1.411,0.646c-0.273,0.431-0.408,1.059-0.408,1.885h-2.082v-0.369
					c0-0.773,0.131-1.472,0.395-2.096c0.264-0.624,0.682-1.12,1.253-1.489c0.57-0.369,1.322-0.554,2.254-0.554
					c1.142,0,2.038,0.313,2.689,0.936c0.65,0.624,0.976,1.48,0.976,2.57c0,0.879-0.207,1.648-0.62,2.307
					c-0.413,0.659-1.059,1.437-1.938,2.333l-2.188,2.267h4.877v1.845H280.068z"/>
			</g>
		</g>
		<g>
			<g>
				<path style="fill:#E0E0E0;" d="M315,265.451c-0.545,0-1.032-0.136-1.463-0.409c-0.431-0.272-0.804-0.575-1.12-0.909v1.107h-2.82
					v-21.353h2.82v7.329c0.334-0.387,0.733-0.721,1.199-1.002c0.466-0.281,1.023-0.422,1.674-0.422c0.791,0,1.419,0.207,1.885,0.62
					c0.466,0.413,0.814,0.932,1.042,1.555c0.228,0.624,0.377,1.257,0.448,1.898c0.069,0.642,0.104,1.191,0.104,1.648v3.691
					c0,1.072-0.104,2.087-0.315,3.044c-0.211,0.959-0.59,1.731-1.134,2.32C316.775,265.157,316.002,265.451,315,265.451z
					 M314.421,263.237c0.491,0,0.843-0.18,1.054-0.541c0.211-0.36,0.343-0.848,0.396-1.463c0.053-0.615,0.079-1.292,0.079-2.03
					v-3.691c0-0.633-0.035-1.217-0.105-1.753c-0.07-0.536-0.22-0.962-0.448-1.278c-0.229-0.316-0.589-0.475-1.08-0.475
					c-0.369,0-0.717,0.079-1.042,0.237c-0.325,0.158-0.61,0.334-0.857,0.527v9.78c0.246,0.194,0.54,0.356,0.883,0.488
					C313.643,263.171,314.016,263.237,314.421,263.237z"/>
			</g>
			<g>
				<path style="fill:#E0E0E0;" d="M320.035,265.24l3.427-8.014l-3.348-7.223h2.688l2.241,4.824l1.977-4.824h2.769l-3.48,7.566
					l3.533,7.671h-2.689l-2.398-5.167l-2.057,5.167H320.035z"/>
			</g>
		</g>
		<g>
			<g>
				<path style="fill:#E0E0E0;" d="M355.633,265.451c-1.248,0-2.192-0.251-2.834-0.752c-0.642-0.501-1.072-1.208-1.292-2.122
					c-0.22-0.914-0.329-1.977-0.329-3.19v-3.506c0-1.282,0.114-2.377,0.343-3.282c0.228-0.905,0.663-1.599,1.305-2.083
					s1.577-0.725,2.808-0.725c1.107,0,1.964,0.181,2.57,0.54c0.605,0.36,1.023,0.896,1.252,1.608
					c0.228,0.712,0.343,1.595,0.343,2.649v0.896h-2.558v-0.923c0-0.668-0.044-1.195-0.132-1.581
					c-0.088-0.386-0.246-0.668-0.475-0.844c-0.228-0.175-0.553-0.264-0.975-0.264c-0.457,0-0.809,0.105-1.055,0.316
					c-0.246,0.211-0.408,0.567-0.487,1.068c-0.079,0.501-0.119,1.182-0.119,2.043v4.797c0,1.301,0.123,2.171,0.369,2.61
					c0.246,0.439,0.686,0.659,1.318,0.659c0.475,0,0.821-0.11,1.041-0.33c0.22-0.22,0.36-0.531,0.422-0.936
					c0.061-0.404,0.092-0.861,0.092-1.371v-1.239h2.558v1.054c0,1.02-0.119,1.898-0.357,2.636c-0.237,0.738-0.659,1.301-1.265,1.687
					C357.57,265.257,356.722,265.451,355.633,265.451z"/>
			</g>
			<g>
				<path style="fill:#E0E0E0;" d="M368.339,253.22v-2.162h8.093v2.162H368.339z M368.339,257.885v-2.135h8.093v2.135H368.339z"/>
			</g>
			<g>
				<path style="fill:#E0E0E0;" d="M390.718,265.478c-1.212,0-2.21-0.273-2.991-0.817c-0.782-0.544-1.362-1.292-1.74-2.241
					c-0.378-0.949-0.566-2.03-0.566-3.242v-9.2c0-1.248,0.184-2.341,0.554-3.282c0.368-0.94,0.944-1.674,1.727-2.201
					c0.781-0.527,1.788-0.791,3.018-0.791c1.23,0,2.232,0.264,3.006,0.791c0.772,0.527,1.344,1.261,1.713,2.201
					c0.369,0.94,0.554,2.034,0.554,3.282v9.2c0,1.231-0.189,2.32-0.566,3.269c-0.378,0.949-0.954,1.692-1.727,2.228
					C392.924,265.21,391.931,265.478,390.718,265.478z M390.718,263.158c0.668,0,1.174-0.193,1.517-0.58
					c0.342-0.386,0.579-0.883,0.711-1.489c0.132-0.606,0.198-1.234,0.198-1.885v-9.253c0-0.685-0.061-1.331-0.185-1.938
					c-0.123-0.606-0.356-1.094-0.698-1.463c-0.343-0.369-0.857-0.554-1.543-0.554c-0.685,0-1.203,0.185-1.555,0.554
					c-0.351,0.369-0.589,0.856-0.712,1.463c-0.123,0.606-0.185,1.252-0.185,1.938v9.253c0,0.65,0.065,1.278,0.197,1.885
					c0.132,0.607,0.378,1.103,0.738,1.489C389.563,262.964,390.068,263.158,390.718,263.158z"/>
			</g>
		</g>
		<g>
			<g>
				<path style="fill:#E0E0E0;" d="M297.204,259.652v-4.297h-3.69v-2.135h3.69v-4.297h2.108v4.297h3.823v2.135h-3.823v4.297H297.204
					z"/>
			</g>
		</g>
		<g>
			<g>
				<path style="fill:#E0E0E0;" d="M340.377,259.652v-4.297h-3.69v-2.135h3.69v-4.297h2.108v4.297h3.823v2.135h-3.823v4.297H340.377
					z"/>
			</g>
		</g>
	</g>
	<g>
		<g>
			<g>
				<path style="fill:#E0E0E0;" d="M188.95,183.61l3.427-8.014l-3.348-7.223h2.689l2.241,4.824l1.977-4.824h2.768l-3.479,7.566
					l3.532,7.671h-2.689l-2.399-5.167l-2.056,5.167H188.95z"/>
			</g>
			<g>
				<path style="fill:#E0E0E0;" d="M206.426,171.59v-2.162h8.093v2.162H206.426z M206.426,176.255v-2.135h8.093v2.135H206.426z"/>
			</g>
			<g>
				<path style="fill:#E0E0E0;" d="M222.19,178.233v-2.135h12.627v2.135H222.19z"/>
			</g>
			<g>
				<path style="fill:#E0E0E0;" d="M241.882,183.821c-0.545,0-1.033-0.136-1.463-0.409c-0.431-0.272-0.804-0.575-1.12-0.909v1.107
					h-2.821v-21.353h2.821v7.329c0.333-0.387,0.733-0.721,1.199-1.002c0.466-0.281,1.024-0.422,1.674-0.422
					c0.79,0,1.419,0.207,1.885,0.62c0.465,0.413,0.813,0.932,1.041,1.555c0.229,0.624,0.378,1.257,0.448,1.898
					c0.07,0.642,0.105,1.191,0.105,1.648v3.691c0,1.072-0.105,2.087-0.316,3.044c-0.211,0.958-0.589,1.731-1.133,2.32
					C243.657,183.527,242.883,183.821,241.882,183.821z M241.302,181.607c0.492,0,0.844-0.18,1.055-0.541
					c0.21-0.36,0.342-0.848,0.395-1.463c0.053-0.615,0.079-1.292,0.079-2.03v-3.691c0-0.633-0.035-1.217-0.105-1.753
					c-0.07-0.536-0.22-0.962-0.448-1.278c-0.229-0.316-0.589-0.475-1.081-0.475c-0.369,0-0.716,0.079-1.041,0.237
					c-0.326,0.158-0.611,0.334-0.857,0.527v9.78c0.246,0.194,0.54,0.356,0.883,0.488
					C240.524,181.541,240.898,181.607,241.302,181.607z"/>
			</g>
		</g>
		<g>
			<g>
				<path style="fill:#E0E0E0;" d="M302.873,183.821c-0.545,0-1.032-0.136-1.463-0.409c-0.431-0.272-0.804-0.575-1.12-0.909v1.107
					h-2.82v-21.353h2.82v7.329c0.334-0.387,0.733-0.721,1.199-1.002c0.466-0.281,1.023-0.422,1.674-0.422
					c0.791,0,1.419,0.207,1.885,0.62c0.466,0.413,0.814,0.932,1.042,1.555c0.227,0.624,0.377,1.257,0.448,1.898
					c0.069,0.642,0.104,1.191,0.104,1.648v3.691c0,1.072-0.104,2.087-0.315,3.044c-0.211,0.958-0.59,1.731-1.134,2.32
					C304.648,183.527,303.875,183.821,302.873,183.821z M302.294,181.607c0.491,0,0.843-0.18,1.054-0.541
					c0.211-0.36,0.343-0.848,0.396-1.463c0.053-0.615,0.079-1.292,0.079-2.03v-3.691c0-0.633-0.035-1.217-0.105-1.753
					c-0.07-0.536-0.22-0.962-0.448-1.278c-0.228-0.316-0.589-0.475-1.08-0.475c-0.369,0-0.717,0.079-1.042,0.237
					s-0.61,0.334-0.856,0.527v9.78c0.246,0.194,0.54,0.356,0.883,0.488C301.515,181.541,301.888,181.607,302.294,181.607z"/>
			</g>
			<g>
				<path style="fill:#E0E0E0;" d="M309.807,172.196v-1.608l3.268-3.559c0.527-0.563,0.944-1.042,1.252-1.437
					c0.308-0.395,0.527-0.751,0.659-1.067c0.132-0.316,0.197-0.633,0.197-0.949c0-0.527-0.123-0.936-0.369-1.226
					c-0.246-0.29-0.624-0.435-1.133-0.435c-0.669,0-1.139,0.215-1.411,0.646c-0.272,0.431-0.408,1.059-0.408,1.885h-2.082v-0.369
					c0-0.773,0.131-1.472,0.395-2.096c0.264-0.623,0.682-1.12,1.253-1.489c0.57-0.369,1.322-0.554,2.254-0.554
					c1.142,0,2.038,0.313,2.689,0.936c0.65,0.624,0.975,1.48,0.975,2.57c0,0.879-0.207,1.648-0.62,2.307
					c-0.413,0.659-1.059,1.437-1.938,2.333l-2.188,2.267h4.877v1.845H309.807z"/>
			</g>
		</g>
		<g>
			<g>
				<path style="fill:#E0E0E0;" d="M350.676,183.61v-5.72h-6.194v-2.953l5.561-12.68h3.322v13.128h2.398v2.504h-2.398v5.72H350.676z
					 M347.196,175.386h3.479v-9.701L347.196,175.386z"/>
			</g>
			<g>
				<path style="fill:#E0E0E0;" d="M360.324,183.821c-0.598,0-1.125-0.171-1.582-0.514c-0.457-0.343-0.816-0.782-1.08-1.318
					c-0.264-0.536-0.396-1.102-0.396-1.7c0-0.949,0.158-1.749,0.475-2.399c0.316-0.65,0.751-1.2,1.305-1.648
					c0.554-0.448,1.194-0.839,1.924-1.173c0.73-0.334,1.498-0.659,2.307-0.976v-1.081c0-0.615-0.035-1.125-0.105-1.529
					s-0.215-0.708-0.435-0.91c-0.22-0.202-0.55-0.303-0.988-0.303c-0.387,0-0.699,0.088-0.936,0.264
					c-0.237,0.176-0.408,0.426-0.514,0.752c-0.105,0.325-0.158,0.707-0.158,1.146v0.765l-2.794-0.105
					c0.035-1.687,0.422-2.93,1.159-3.73c0.738-0.8,1.881-1.2,3.428-1.2c1.511,0,2.583,0.413,3.216,1.239
					c0.633,0.826,0.949,2.021,0.949,3.585v6.959c0,0.475,0.013,0.932,0.039,1.371c0.026,0.439,0.061,0.848,0.105,1.226
					c0.044,0.378,0.083,0.734,0.119,1.067h-2.584c-0.053-0.281-0.118-0.637-0.197-1.067c-0.079-0.431-0.137-0.822-0.172-1.173
					c-0.176,0.598-0.514,1.156-1.015,1.674C361.893,183.562,361.203,183.821,360.324,183.821z M361.432,181.396
					c0.28,0,0.544-0.079,0.791-0.237c0.245-0.158,0.465-0.338,0.658-0.54c0.193-0.202,0.325-0.364,0.396-0.487v-4.323
					c-0.439,0.246-0.853,0.492-1.238,0.738c-0.387,0.247-0.726,0.505-1.016,0.778c-0.29,0.272-0.519,0.58-0.685,0.923
					c-0.168,0.342-0.251,0.734-0.251,1.173c0,0.615,0.114,1.099,0.343,1.45C360.658,181.221,360.992,181.396,361.432,181.396z"/>
			</g>
			<g>
				<path style="fill:#E0E0E0;" d="M372.978,183.821c-1.248,0-2.192-0.251-2.834-0.751c-0.642-0.501-1.072-1.208-1.292-2.122
					c-0.22-0.914-0.329-1.977-0.329-3.189v-3.506c0-1.282,0.114-2.377,0.343-3.282c0.228-0.905,0.663-1.599,1.305-2.083
					s1.577-0.725,2.808-0.725c1.106,0,1.964,0.181,2.57,0.541c0.605,0.36,1.023,0.896,1.252,1.608
					c0.228,0.712,0.343,1.595,0.343,2.649v0.896h-2.558v-0.923c0-0.668-0.044-1.195-0.132-1.582
					c-0.088-0.386-0.246-0.668-0.475-0.844c-0.229-0.175-0.553-0.264-0.975-0.264c-0.457,0-0.809,0.105-1.055,0.316
					c-0.246,0.211-0.408,0.567-0.487,1.068c-0.079,0.501-0.119,1.182-0.119,2.043v4.797c0,1.301,0.123,2.171,0.369,2.61
					c0.246,0.439,0.686,0.659,1.318,0.659c0.475,0,0.821-0.11,1.041-0.33c0.22-0.22,0.36-0.531,0.422-0.936
					c0.061-0.404,0.092-0.861,0.092-1.371v-1.239h2.558v1.054c0,1.02-0.119,1.898-0.356,2.636c-0.237,0.738-0.659,1.301-1.265,1.687
					C374.915,183.627,374.066,183.821,372.978,183.821z"/>
			</g>
		</g>
		<g>
			<g>
				<path style="fill:#E0E0E0;" d="M271.166,217.345v-2.003l5.43-8.462c0.404-0.633,0.778-1.221,1.121-1.766
					c0.343-0.544,0.623-1.121,0.844-1.727c0.219-0.607,0.329-1.305,0.329-2.096c0-0.984-0.158-1.757-0.475-2.32
					s-0.87-0.844-1.661-0.844c-0.668,0-1.186,0.185-1.555,0.554c-0.369,0.369-0.624,0.852-0.765,1.45
					c-0.141,0.598-0.211,1.239-0.211,1.924v0.712h-2.82v-0.738c0-1.283,0.171-2.386,0.514-3.308
					c0.343-0.923,0.896-1.639,1.661-2.148c0.764-0.51,1.779-0.765,3.044-0.765c1.723,0,3.006,0.488,3.85,1.463
					c0.843,0.976,1.265,2.325,1.265,4.047c0,0.914-0.109,1.713-0.329,2.398c-0.22,0.686-0.506,1.327-0.856,1.925
					c-0.353,0.598-0.738,1.212-1.16,1.845l-4.903,7.486h6.748v2.373H271.166z"/>
			</g>
			<g>
				<path style="fill:#E0E0E0;" d="M286.85,217.556c-0.598,0-1.125-0.171-1.582-0.514c-0.457-0.343-0.816-0.782-1.08-1.318
					c-0.264-0.536-0.395-1.103-0.395-1.7c0-0.949,0.158-1.749,0.475-2.399c0.316-0.65,0.751-1.2,1.305-1.648
					c0.554-0.448,1.194-0.839,1.924-1.173c0.729-0.333,1.498-0.659,2.307-0.976v-1.081c0-0.615-0.035-1.124-0.105-1.529
					c-0.07-0.404-0.215-0.708-0.435-0.91c-0.22-0.202-0.55-0.303-0.988-0.303c-0.387,0-0.699,0.088-0.937,0.264
					c-0.237,0.176-0.408,0.426-0.514,0.751c-0.105,0.325-0.158,0.708-0.158,1.146v0.765l-2.794-0.105
					c0.035-1.687,0.422-2.93,1.159-3.73c0.738-0.8,1.881-1.2,3.428-1.2c1.511,0,2.583,0.413,3.216,1.239
					c0.633,0.826,0.949,2.021,0.949,3.585v6.96c0,0.475,0.013,0.932,0.039,1.371c0.026,0.44,0.062,0.848,0.105,1.226
					c0.044,0.378,0.083,0.734,0.119,1.067h-2.584c-0.053-0.281-0.118-0.637-0.197-1.067c-0.079-0.431-0.137-0.822-0.172-1.173
					c-0.176,0.598-0.514,1.156-1.015,1.674C288.419,217.296,287.729,217.556,286.85,217.556z M287.958,215.13
					c0.28,0,0.544-0.079,0.791-0.237c0.245-0.158,0.465-0.338,0.658-0.541c0.193-0.202,0.325-0.364,0.396-0.487v-4.323
					c-0.44,0.246-0.853,0.492-1.238,0.738c-0.387,0.247-0.726,0.505-1.016,0.778c-0.29,0.272-0.519,0.58-0.685,0.923
					c-0.168,0.342-0.251,0.734-0.251,1.173c0,0.615,0.114,1.099,0.343,1.45C287.184,214.955,287.518,215.13,287.958,215.13z"/>
			</g>
		</g>
		<g>
			<g>
				<path style="fill:#E0E0E0;" d="M257.012,171.097V166.8h-3.691v-2.135h3.691v-4.297h2.109v4.297h3.822v2.135h-3.822v4.297
					H257.012z"/>
			</g>
			<g>
				<path style="fill:#E0E0E0;" d="M251.832,177.917v-2.135h12.627v2.135H251.832z"/>
			</g>
		</g>
		<g>
			<g>
				<path style="fill:#E0E0E0;" d="M325.524,177.47v-2.135h12.627v2.135H325.524z"/>
			</g>
		</g>
		<g>
			<polygon style="fill:#E0E0E0;" points="279.113,183.62 270.485,165.214 272.296,164.365 279.074,178.825 289.744,155.059 
				376.822,155.059 376.822,157.059 291.038,157.059 			"/>
		</g>
		<g>
			<rect x="219.722" y="189.926" style="fill:#E0E0E0;" width="159.708" height="2"/>
		</g>
	</g>
</g>
<g id="Character">
	<g>
		<g>
			<path style="fill:#263238;" d="M202.313,212.926c0,0,11.461,2.588,11.831,10.537c0.37,7.949-7.764,12.756-7.764,12.756
				s-2.773-11.831-4.806-14.604c-2.033-2.773-3.882-5.916-3.882-5.916S199.355,212.001,202.313,212.926z"/>
			<path style="fill:#263238;" d="M206.048,236.995l-0.155-0.663c-0.027-0.118-2.773-11.763-4.723-14.422
				c-2.024-2.762-3.891-5.926-3.91-5.958l-0.131-0.223l0.106-0.236c0.637-1.415,2.542-3.869,5.208-3.051
				c0.709,0.163,11.822,2.852,12.201,10.997c0.379,8.156-7.666,13.007-8.009,13.209L206.048,236.995z M198.261,215.677
				c0.465,0.775,2.036,3.351,3.716,5.641c1.803,2.458,4.088,11.48,4.723,14.09c1.808-1.261,7.239-5.593,6.945-11.922
				c-0.348-7.482-11.331-10.048-11.442-10.073l-0.039-0.011C200.03,212.738,198.654,214.939,198.261,215.677z"/>
		</g>
		<g>
			<g>
				<path style="fill:#92E3A9;" d="M148.019,421.763h25.377l-8.343-36.653c0,0-7.676,2.67-10.679,10.345
					C151.37,403.132,148.019,421.763,148.019,421.763z"/>
				<path style="fill:#263238;" d="M174.023,422.263h-26.602l0.106-0.589c0.034-0.186,3.395-18.767,6.381-26.4
					c3.052-7.8,10.659-10.523,10.981-10.636l0.527-0.184L174.023,422.263z M148.619,421.263h24.151l-8.074-35.469
					c-1.749,0.757-7.423,3.626-9.856,9.845C152.186,402.417,149.217,418.036,148.619,421.263z"/>
			</g>
			<g>
				<path style="fill:#263238;" d="M170.825,410.47l-21.761,5.852c-0.646,3.222-1.045,5.441-1.045,5.441h0.064l23.853-6.414
					L170.825,410.47z"/>
				<path style="fill:#263238;" d="M152.745,400.475c-0.486,1.719-0.963,3.582-1.416,5.471l17.527-4.127l-1.11-4.876
					L152.745,400.475z"/>
			</g>
		</g>
		<g>
			<g>
				<path style="fill:#92E3A9;" d="M143.577,280.291c0,0-13.374,3.774-26.359,16.759c-12.985,12.985-28.989,51.335-35.632,67.641
					c-6.643,16.306-9.663,24.158-9.663,24.158l-22.346,32.915h98.442c0,0,11.475-28.687,15.4-31.405
					c3.926-2.718,16.306-13.589,18.118-19.628c1.812-6.039,1.812-50.731-0.906-59.186c-2.718-8.455-18.118-28.989-24.46-31.405
					C149.831,277.723,143.577,280.291,143.577,280.291z"/>
				<path style="fill:#263238;" d="M148.357,422.263H48.632l22.844-33.647c0.279-0.725,3.359-8.682,9.646-24.113
					c14.629-35.905,26.654-58.719,35.742-67.806c12.641-12.642,25.843-16.67,26.548-16.878c0.509-0.206,6.624-2.551,12.937-0.146
					c6.51,2.479,22.018,23.195,24.758,31.719c2.701,8.401,2.886,52.894,0.909,59.483c-1.881,6.271-14.684,17.384-18.313,19.896
					c-3.119,2.159-12.044,23.239-15.221,31.179L148.357,422.263z M50.52,421.263h97.161c1.328-3.299,11.63-28.668,15.454-31.315
					c3.561-2.466,16.112-13.321,17.924-19.36c1.888-6.294,1.668-50.891-0.903-58.89c-2.621-8.154-17.99-28.74-24.162-31.092
					c-6.087-2.316-12.167,0.122-12.227,0.148l-0.054,0.019c-0.132,0.037-13.409,3.897-26.141,16.631
					c-8.993,8.993-20.945,31.695-35.523,67.476c-6.565,16.116-9.629,24.07-9.659,24.149l-0.053,0.102L50.52,421.263z"/>
			</g>
			<g>
				<path style="fill:#263238;" d="M109.025,307.732c-0.874,1.361-1.75,2.784-2.624,4.262c2.79,1.795,6.245,3.602,10.509,5.216
					l1.77-4.676C114.716,311.034,111.543,309.363,109.025,307.732z"/>
				<path style="fill:#263238;" d="M133.938,361.178c11.715,5.777,26.396,11.689,43.58,15.997c1.274-1.532,2.358-3.027,3.112-4.389
					c-17.532-4.224-32.47-10.183-44.302-16.005c-18.656-9.18-32.344-19.253-40.061-25.59c-0.752,1.562-1.491,3.124-2.217,4.682
					C102.067,342.376,115.559,352.114,133.938,361.178z"/>
				<path style="fill:#263238;" d="M108.012,367.45c15.247,7.52,35.514,15.268,59.795,19.409c1.469-1.267,3.092-2.743,4.698-4.313
					c-25.359-3.84-46.447-11.788-62.104-19.493c-8.688-4.275-16.291-8.742-22.723-12.937c-0.697,1.619-1.365,3.187-2.001,4.692
					C92.037,358.909,99.499,363.252,108.012,367.45z"/>
				<path style="fill:#263238;" d="M151.214,414.049c0.657-1.548,1.385-3.236,2.151-4.979c-46.483-1.222-72.848-8.283-86.074-13.4
					l-2.938,4.328C77.595,405.359,104.004,412.684,151.214,414.049z"/>
				<path style="fill:#263238;" d="M79.271,370.39c-0.685,1.692-1.316,3.258-1.901,4.714c6.654,3.306,15.832,7.315,27.612,11.241
					c13.134,4.378,30.961,9.071,53.28,12.198c0.892-1.777,1.751-3.386,2.538-4.714C120.814,388.406,93.688,377.552,79.271,370.39z"
					/>
			</g>
		</g>
		<g>
			<path style="fill:#FFFFFF;" d="M177.874,318.062c0,0,0.839-1.889,2.099-1.469c1.259,0.42,4.617,7.975,4.617,7.975
				s-0.21-13.221-5.456-22.665c-5.247-9.444-6.925-11.962-6.925-11.962s-2.518,1.049-1.469,5.456
				C171.788,299.804,177.874,318.062,177.874,318.062z"/>
			<path style="fill:#263238;" d="M185.128,327.011l-0.996-2.24c-1.553-3.495-3.647-7.435-4.32-7.704
				c-0.801-0.267-1.476,1.185-1.482,1.199l-0.525,1.168l-0.405-1.214c-0.249-0.746-6.105-18.329-7.147-22.706
				c-1.135-4.767,1.645-5.985,1.763-6.035l0.38-0.158l0.229,0.343c0.069,0.104,1.749,2.643,6.946,11.996
				c5.247,9.445,5.517,22.767,5.519,22.9L185.128,327.011z M179.601,316.029c0.17,0,0.347,0.028,0.53,0.089
				c0.969,0.323,2.636,3.436,3.809,5.861c-0.349-4.301-1.5-13.097-5.244-19.834c-4.059-7.307-5.992-10.48-6.642-11.516
				c-0.559,0.462-1.526,1.724-0.83,4.651c0.891,3.741,5.504,17.739,6.791,21.62C178.416,316.426,178.958,316.029,179.601,316.029z"
				/>
		</g>
		<g>
			<g>
				<path style="fill:#FFFFFF;" d="M151.845,258.07c0,0-1.809,6.46-3.617,12.661c-1.809,6.201-4.651,9.56-4.651,9.56
					s-2.325,5.943,7.493,18.862c9.818,12.919,26.355,30.231,26.355,30.231s1.292-8.527-0.258-15.245
					c-1.55-6.718-4.651-16.795-4.651-16.795l7.493-16.278L151.845,258.07z"/>
				<path style="fill:#263238;" d="M177.767,330.465l-0.703-0.736c-0.166-0.174-16.669-17.48-26.392-30.273
					c-9.874-12.993-7.66-19.093-7.561-19.347l0.084-0.14c0.028-0.033,2.799-3.366,4.553-9.378
					c1.787-6.128,3.598-12.591,3.616-12.655l0.206-0.735l29.055,23.724l-7.576,16.456c0.427,1.398,3.182,10.484,4.604,16.646
					c1.554,6.733,0.319,15.079,0.265,15.432L177.767,330.465z M144.023,280.536c-0.19,0.66-1.501,6.542,7.445,18.314
					c8.525,11.217,22.296,25.933,25.594,29.424c0.28-2.46,0.815-8.833-0.382-14.022c-1.528-6.623-4.61-16.659-4.642-16.76
					l-0.056-0.183l7.411-16.1L152.12,258.94c-0.526,1.87-1.977,7.008-3.413,11.93C147.019,276.661,144.471,279.981,144.023,280.536z
					"/>
			</g>
			<g>
				<polygon style="fill:#263238;" points="163.237,275.568 173.535,294.266 178.955,283.427 160.256,271.774 				"/>
				<path style="fill:#263238;" d="M173.557,295.342l-10.738-19.497l-4.715-6.002l21.502,13.4L173.557,295.342z M162.41,273.704
					l1.266,1.622l9.838,17.865l4.79-9.581L162.41,273.704z"/>
			</g>
		</g>
		<g>
			<g>
				<path style="fill:#FFFFFF;" d="M201.389,214.589c0,0,6.47,15.344,6.655,18.486c0.185,3.143-1.294,6.655-0.555,12.571
					c0.74,5.916,2.403,14.604,1.109,18.487c-1.278,3.832-4.856,7.289-7.442,10.268c-4.866,5.605-10.217,12.811-18.569,12.065
					c-5.357-0.479-10.399-4.342-14.474-7.544c-10.352-8.134-15.344-13.31-17.007-16.822c-1.664-3.512-10.722-12.756-7.21-19.595
					s33.46-24.217,33.46-24.217S196.582,207.934,201.389,214.589z"/>
				<path style="fill:#263238;" d="M183.788,287.02c-0.408,0-0.822-0.017-1.245-0.056c-5.645-0.504-10.901-4.634-14.739-7.648
					c-9.885-7.767-15.335-13.17-17.15-17.002c-0.376-0.793-1.183-1.944-2.118-3.277c-3.148-4.488-7.904-11.272-5.085-16.761
					c3.539-6.891,32.426-23.709,33.654-24.421c0.814-0.439,19.683-10.489,24.689-3.558l0.056,0.099
					c0.265,0.63,6.505,15.46,6.693,18.651c0.075,1.266-0.105,2.547-0.312,4.031c-0.324,2.318-0.691,4.947-0.246,8.507
					c0.14,1.117,0.312,2.332,0.491,3.595c0.789,5.556,1.682,11.852,0.596,15.111c-1.086,3.259-3.755,6.221-6.11,8.834
					c-0.495,0.549-0.977,1.084-1.428,1.604c-0.402,0.463-0.807,0.936-1.217,1.416C195.944,281.259,191.017,287.02,183.788,287.02z
					 M195.808,212.837c-7.168,0-18.07,5.813-18.214,5.89c-0.284,0.165-29.846,17.373-33.252,24.005
					c-2.543,4.952,2.004,11.438,5.014,15.73c0.961,1.37,1.791,2.554,2.203,3.424c1.723,3.636,7.239,9.08,16.865,16.643
					c3.739,2.939,8.86,6.962,14.21,7.44c7.405,0.665,12.462-5.253,16.925-10.473c0.411-0.481,0.818-0.957,1.222-1.422
					c0.455-0.524,0.941-1.063,1.441-1.617c2.289-2.541,4.884-5.421,5.905-8.481c1.012-3.036,0.097-9.478-0.637-14.654
					c-0.18-1.269-0.354-2.49-0.494-3.612c-0.462-3.692-0.068-6.507,0.248-8.77c0.2-1.431,0.372-2.667,0.304-3.834
					c-0.172-2.931-6.174-17.268-6.594-18.268C199.876,213.391,198.02,212.837,195.808,212.837z"/>
			</g>
			<path style="fill:#263238;" d="M175.547,240.019l-0.817-0.576c4.605-6.525,11.968-3.907,12.043-3.878l-0.345,0.938
				C186.155,236.404,179.702,234.132,175.547,240.019z"/>
			<path style="fill:#263238;" d="M197.736,236.498l-0.831-0.557c0.024-0.038,2.519-3.646,8.379-1.106l-0.397,0.918
				C199.822,233.558,197.819,236.376,197.736,236.498z"/>
			<path style="fill:#263238;" d="M192.184,261.304l-0.077-0.996c2.36-0.183,7.897-2.003,8.882-3.314
				c0.297-0.397-0.25-1.096-1.244-2.297c-1.126-1.361-2.669-3.226-3.633-5.924c-1.885-5.278-0.258-10.283-0.188-10.494l0.949,0.316
				c-0.016,0.048-1.585,4.898,0.181,9.842c0.905,2.533,2.383,4.318,3.462,5.622c1.15,1.39,2.059,2.487,1.273,3.534
				C200.518,259.286,194.568,261.12,192.184,261.304z"/>
			<path style="fill:#263238;" d="M189.718,269.993c-7.911-0.377-12.57-6.594-12.765-6.858l0.805-0.593
				c0.045,0.061,4.583,6.099,12.007,6.453L189.718,269.993z"/>
			<path style="fill:#263238;" d="M181.331,247.587c0,1.889-0.786,3.42-1.756,3.42c-0.97,0-1.756-1.531-1.756-3.42
				c0-1.889,0.786-3.42,1.756-3.42C180.545,244.168,181.331,245.699,181.331,247.587z"/>
			<path style="fill:#263238;" d="M200.187,245.831c0,1.889-0.786,3.42-1.756,3.42c-0.97,0-1.756-1.531-1.756-3.42
				s0.786-3.42,1.756-3.42C199.401,242.411,200.187,243.943,200.187,245.831z"/>
		</g>
		<g>
			<path style="fill:#263238;" d="M199.355,191.112c-4.806-3.512-11.831-1.109-11.831-1.109s3.882-3.143,9.428-2.034
				c0,0-4.622-3.327-7.949-1.664c-3.327,1.664-5.546,3.697-6.84,4.991c-1.294,1.294-1.109,3.143-10.167,0.739
				c-9.058-2.403-25.696-0.739-34.569,11.462s-9.613,29.948-11.277,34.015c-1.664,4.067-8.873,12.386-3.512,21.999
				c0.703,1.262,1.547,2.113,2.484,2.649c1.936,1.986,4.93,3.218,8.424,5.839c6.145,4.609,11.591,6.832,14.683,2.732
				c3.092-4.1,0.372-8.877,0.065-12.564c-0.307-3.687,3.368-8.823,3.368-8.823s4.437,1.109,7.579-1.664
				c3.143-2.773,3.697-6.84,2.403-12.201c-1.294-5.361,5.546-4.067,15.344-3.512s12.94-8.873,14.05-11.646
				c1.109-2.773,6.655,0.37,12.201-5.916C208.783,208.119,204.162,194.624,199.355,191.112z"/>
			<path style="fill:#263238;" d="M144.014,273.371c-2.774,0-6.344-1.654-10.768-4.973c-1.501-1.126-2.929-2.005-4.189-2.78
				c-1.669-1.027-3.114-1.917-4.244-3.06c-1.034-0.607-1.912-1.551-2.611-2.805c-4.465-8.006-0.536-15.034,2.064-19.685
				c0.597-1.068,1.113-1.991,1.421-2.746c0.432-1.056,0.817-3.174,1.304-5.855c1.309-7.213,3.501-19.285,10.032-28.264
				c9.31-12.801,26.472-13.94,35.102-11.651c7.548,2.003,8.346,1.011,9.189-0.039c0.155-0.193,0.312-0.386,0.496-0.57
				c0.792-0.792,3.201-3.201,6.97-5.085c3.559-1.777,8.267,1.562,8.464,1.705l1.873,1.349l-2.263-0.453
				c-2.245-0.45-4.217-0.163-5.738,0.313c2.507-0.241,5.829-0.041,8.534,1.936l0,0c3.099,2.265,5.89,8.151,6.493,13.692
				c0.33,3.033,0.159,7.288-2.53,10.335c-3.413,3.869-6.928,4.309-9.253,4.601c-1.654,0.207-2.532,0.353-2.858,1.17l-0.182,0.464
				c-1.284,3.294-4.703,12.038-14.36,11.496c-1.318-0.075-2.584-0.163-3.783-0.246c-5.328-0.371-9.537-0.663-10.786,0.813
				c-0.431,0.51-0.516,1.271-0.261,2.329c1.417,5.87,0.604,9.903-2.559,12.693c-2.818,2.488-6.537,2.056-7.686,1.846
				c-0.724,1.082-3.344,5.225-3.094,8.224c0.081,0.977,0.343,2.048,0.619,3.182c0.75,3.077,1.6,6.565-0.783,9.725
				C147.452,272.59,145.92,273.371,144.014,273.371z M164.078,191.6c-8.607,0-19.538,2.967-26.247,12.192
				c-6.396,8.795-8.563,20.726-9.856,27.854c-0.498,2.739-0.89,4.903-1.362,6.056c-0.332,0.811-0.861,1.758-1.475,2.854
				c-2.491,4.457-6.257,11.192-2.064,18.711c0.623,1.116,1.395,1.943,2.295,2.459l0.11,0.085c1.051,1.077,2.464,1.947,4.101,2.955
				c1.279,0.787,2.728,1.679,4.265,2.831c7.024,5.269,11.467,6.168,13.983,2.832c2.098-2.781,1.342-5.885,0.61-8.887
				c-0.286-1.173-0.556-2.28-0.643-3.334c-0.319-3.827,3.305-8.94,3.459-9.156l0.197-0.276l0.33,0.081
				c0.042,0.011,4.226,1.008,7.127-1.554c2.854-2.518,3.569-6.238,2.249-11.708c-0.335-1.389-0.182-2.439,0.469-3.209
				c1.575-1.864,5.789-1.571,11.619-1.165c1.195,0.083,2.455,0.171,3.77,0.246c8.931,0.501,12.16-7.753,13.371-10.861l0.186-0.472
				c0.561-1.402,1.999-1.583,3.663-1.791c2.306-0.289,5.464-0.685,8.628-4.27c2.448-2.774,2.595-6.733,2.286-9.566
				c-0.566-5.204-3.241-10.911-6.088-12.992l0,0c-4.535-3.313-11.307-1.063-11.374-1.039l-2.66,0.906l2.184-1.768
				c0.14-0.114,3.004-2.385,7.346-2.385c0.023,0,0.046,0,0.069,0c-1.546-0.707-3.688-1.331-5.398-0.477
				c-3.624,1.812-5.947,4.134-6.71,4.898c-0.158,0.158-0.291,0.325-0.424,0.49c-1.238,1.539-2.616,2.397-10.226,0.379
				C169.724,191.951,167.038,191.6,164.078,191.6z"/>
		</g>
		<g>
			<path style="fill:#FFFFFF;" d="M153.694,251.192c0,0-6.1-8.689-9.798-8.689c-3.697,0-5.361,7.949-2.773,13.495
				c2.588,5.546,9.243,7.395,10.352,7.395c1.109,0,2.218-1.109,2.218-1.109"/>
			<path style="fill:#263238;" d="M151.476,263.894c-1.47,0-8.156-2.006-10.805-7.684c-2.02-4.327-1.492-9.636,0.185-12.27
				c0.807-1.267,1.858-1.936,3.041-1.936c3.912,0,9.951,8.538,10.207,8.901l-0.818,0.574c-1.656-2.357-6.57-8.476-9.388-8.476
				c-1.041,0-1.77,0.801-2.197,1.474c-1.499,2.354-1.972,7.347-0.123,11.31c2.594,5.56,9.228,7.106,9.899,7.106
				c0.735,0,1.596-0.695,1.865-0.964l0.706,0.708C153.996,262.689,152.777,263.894,151.476,263.894z"/>
		</g>
		<g>
			<path style="fill:#FFFFFF;" d="M145.136,274.831c0,0,2.099,7.555,9.654,19.517c7.555,11.962,19.097,22.875,19.097,22.875
				s-2.099,10.703-2.099,11.332c0,0.63-8.814-2.938-19.097-18.887c-10.283-15.949-14.27-25.183-13.431-27.911
				C140.099,279.028,145.136,274.831,145.136,274.831z"/>
			<path style="fill:#263238;" d="M171.748,329.108c-1.484,0-9.972-4.427-19.478-19.171c-9.553-14.816-14.469-25.142-13.488-28.329
				c0.873-2.837,5.824-6.986,6.034-7.161l0.594-0.495l0.208,0.745c0.021,0.075,2.175,7.636,9.594,19.384
				c7.436,11.772,18.903,22.67,19.018,22.778l0.2,0.189l-0.053,0.271c-0.798,4.069-2.071,10.72-2.089,11.239l-0.013,0.36l-0.4,0.175
				C171.841,329.103,171.798,329.108,171.748,329.108z M144.888,275.708c-1.32,1.169-4.526,4.167-5.15,6.195
				c-0.68,2.209,2.476,10.592,13.373,27.493c8.878,13.77,16.485,18.065,18.238,18.653c0.298-1.956,1.6-8.641,1.995-10.655
				c-1.571-1.516-12.019-11.764-18.977-22.78C148.193,284.841,145.62,277.906,144.888,275.708z"/>
		</g>
		<g>
			<path style="fill:#263238;" d="M122.637,259.511c0,0-17.052-6.26-24.733-1.344c-7.681,4.916-1.536,23.658,3.687,31.032
				c5.223,7.374-6.145,4.916-12.904,13.211c-6.759,8.296-3.38,13.519,3.38,17.513s15.055-4.301,18.435-10.754
				c3.38-6.452,7.374-7.374,15.977-10.754s17.513-13.211,14.133-19.664s-1.536-5.53-0.307-7.374
				c1.229-1.844-5.531-9.217-9.832-10.139C126.171,260.317,122.637,259.511,122.637,259.511z"/>
			<path style="fill:#263238;" d="M95.855,321.47c-1.432,0-2.784-0.373-4.042-1.116c-4.294-2.537-6.645-5.248-7.188-8.287
				c-0.538-3.015,0.664-6.276,3.674-9.972c2.988-3.668,6.761-5.25,9.792-6.522c2.201-0.923,3.94-1.652,4.27-2.806
				c0.222-0.774-0.164-1.847-1.178-3.279c-3.895-5.499-8.663-17.897-7.096-25.933c0.523-2.683,1.717-4.637,3.548-5.809
				c7.711-4.936,24.089,0.9,25.145,1.284c0.354,0.081,3.733,0.849,7.798,1.72c3.529,0.757,8.85,5.802,10.098,8.876
				c0.351,0.864,0.366,1.547,0.044,2.029c-0.297,0.446-0.63,0.752-0.897,0.997c-0.776,0.712-1.244,1.142,1.231,5.867
				c1.012,1.932,1.048,4.291,0.104,6.823c-1.986,5.325-8.083,11.018-14.497,13.539c-0.916,0.359-1.78,0.691-2.597,1.006
				c-6.782,2.607-10.187,3.916-13.119,9.515c-2.41,4.6-7.358,10.221-12.529,11.692C97.537,321.345,96.683,321.47,95.855,321.47z
				 M106.016,256.786c-2.969,0-5.772,0.478-7.842,1.802c-1.592,1.019-2.637,2.755-3.106,5.158
				c-1.457,7.471,3.055,19.691,6.931,25.163c1.218,1.72,1.638,3.032,1.323,4.133c-0.461,1.614-2.396,2.426-4.844,3.453
				c-2.929,1.229-6.574,2.758-9.404,6.23c-2.816,3.456-3.949,6.454-3.465,9.165c0.488,2.735,2.684,5.222,6.712,7.602
				c1.741,1.028,3.7,1.245,5.82,0.641c4.888-1.391,9.604-6.778,11.918-11.195c3.108-5.933,6.851-7.371,13.646-9.983
				c0.815-0.314,1.677-0.645,2.591-1.004c6.074-2.386,12.061-7.956,13.925-12.957c0.855-2.29,0.837-4.313-0.052-6.009
				c-2.587-4.94-2.335-5.862-1.021-7.069c0.251-0.23,0.511-0.469,0.741-0.814c0.12-0.18,0.068-0.59-0.139-1.098
				c-1.151-2.834-6.197-7.592-9.382-8.274c-4.305-0.923-7.842-1.73-7.842-1.73l-0.061-0.017
				C122.344,259.935,113.638,256.786,106.016,256.786z"/>
		</g>
		<g>
			<g>
				<path style="fill:#FFFFFF;" d="M290.21,276.005l2.17-5.685c0,0,1.379-0.966,2.621,0.69l-0.276,9.242l-1.797,7.833
					c0,0-0.686,1.823-3.169,1.961c-2.483,0.138-4.414-1.931-4.414-1.931L290.21,276.005z"/>
				<path style="fill:#263238;" d="M289.519,290.551c-2.552,0-4.457-2.008-4.539-2.097l-0.217-0.232l4.982-12.399l2.223-5.824
					l0.126-0.088c0.614-0.431,2.095-0.817,3.308,0.799l0.105,0.14l-0.281,9.417l-1.81,7.93c-0.052,0.15-0.852,2.194-3.628,2.348
					C289.696,290.548,289.608,290.551,289.519,290.551z M285.935,287.986c0.549,0.492,2.055,1.662,3.796,1.559
					c2.105-0.117,2.705-1.579,2.73-1.642l1.777-7.765l0.258-8.962c-0.72-0.856-1.414-0.661-1.712-0.515l-2.11,5.529L285.935,287.986
					z"/>
			</g>
			<g>
				<path style="fill:#92E3A9;" d="M118.728,340.835c0,0,42.276,38.652,59.186,48.315c16.91,9.663,24.46,5.737,24.46,5.737
					s46.111-36.475,61.602-57.374c11.767-15.875,16.269-21.347,18.383-21.649c2.114-0.302,18.722-9.965,19.628-11.173
					c0.906-1.208,0.604-15.099,0.604-15.099s3.02-3.322,2.718-4.832c-0.302-1.51-6.643-7.247-8.153-8.757
					c-1.51-1.51-1.812-3.624-3.02-1.51c-1.208,2.114-1.208,3.322-0.302,4.228c0.906,0.906,0.604,3.02,0.604,3.02l-0.906,2.416
					l-0.604,3.926c0,0-0.906,1.51-3.02,0.906c-2.114-0.604-3.624-2.416-3.624-2.416l3.926-10.569c0,0-3.322-1.208-3.926,1.208
					c-0.604,2.416,0.906,1.51-2.114,3.624c-3.02,2.114-6.039,4.53-6.039,7.549c0,3.02-5.133,18.722-5.133,18.722
					s-22.177,15.596-30.764,20.743c-5.963,3.574-44.088,22.648-44.088,22.648s-38.652-33.519-43.484-39.86
					c-4.831-6.341-12.683-13.891-27.479-8.757"/>
				<path style="fill:#263238;" d="M197.621,396.184c-4.036,0-10.573-1.238-19.955-6.599c-16.765-9.58-58.852-47.994-59.275-48.381
					l0.675-0.738c0.422,0.387,42.428,38.726,59.097,48.25c16.405,9.375,23.909,5.764,23.983,5.728
					c0.379-0.313,46.154-36.621,61.429-57.228c12.626-17.034,16.474-21.525,18.714-21.847c2.061-0.294,18.531-9.981,19.299-10.978
					c0.499-0.759,0.649-8.115,0.504-14.787l-0.004-0.199l0.134-0.147c1.184-1.303,2.771-3.528,2.598-4.397
					c-0.212-1.06-4.721-5.352-6.646-7.184c-0.588-0.56-1.072-1.02-1.37-1.318c-0.487-0.486-0.854-1.028-1.15-1.465
					c-0.209-0.308-0.494-0.728-0.63-0.791c0.004,0.018-0.156,0.123-0.452,0.641c-1.281,2.241-0.941,3.067-0.382,3.626
					c1.052,1.052,0.78,3.202,0.746,3.443l-0.027,0.105l-0.888,2.367l-0.662,4.055c-0.381,0.637-1.62,1.69-3.586,1.13
					c-2.236-0.639-3.804-2.498-3.87-2.576l-0.185-0.223l3.838-10.335c-0.606-0.139-1.512-0.24-2.117,0.084
					c-0.34,0.181-0.558,0.48-0.667,0.914c-0.181,0.724-0.152,1.103-0.132,1.381c0.068,0.92-0.185,1.134-2.18,2.53
					c-2.819,1.974-5.826,4.315-5.826,7.141c0,3.063-4.947,18.232-5.158,18.877l-0.051,0.158l-0.136,0.096
					c-0.222,0.156-22.291,15.666-30.795,20.763c-5.911,3.542-43.74,22.475-44.121,22.666l-0.299,0.149l-0.252-0.219
					c-1.58-1.37-38.746-33.625-43.554-39.936c-5.03-6.602-12.637-13.544-26.917-8.587l-0.328-0.945
					c15.06-5.222,23.215,2.593,28.041,8.927c4.543,5.962,39.813,36.657,43.161,39.566c3.595-1.801,38.156-19.124,43.756-22.479
					c8.123-4.869,28.716-19.308,30.597-20.628c0.536-1.651,5.057-15.66,5.057-18.408c0-3.305,3.228-5.842,6.253-7.959
					c1.785-1.25,1.782-1.286,1.756-1.638c-0.024-0.326-0.061-0.818,0.16-1.697c0.179-0.716,0.572-1.239,1.169-1.557
					c1.371-0.729,3.33-0.029,3.412,0l0.473,0.172l-3.995,10.755c0.452,0.472,1.662,1.611,3.186,2.047
					c1.475,0.422,2.219-0.371,2.406-0.615l0.612-3.911l0.886-2.362c0.069-0.56,0.107-1.968-0.469-2.544
					c-1.432-1.432-0.634-3.333,0.221-4.829c0.315-0.553,0.717-1.12,1.305-1.143c0.634-0.053,1.017,0.556,1.473,1.228
					c0.286,0.422,0.61,0.899,1.03,1.319c0.294,0.294,0.772,0.748,1.353,1.301c4.22,4.017,6.708,6.566,6.938,7.712
					c0.313,1.56-1.964,4.282-2.704,5.116c0.074,3.515,0.211,13.987-0.708,15.211c-0.941,1.255-17.6,11.031-19.957,11.368
					c-2.047,0.293-7.452,7.15-18.052,21.452c-15.353,20.712-61.232,57.104-61.694,57.469
					C202.506,395.377,200.878,396.184,197.621,396.184z"/>
			</g>
			<g>
				<path style="fill:#FFFFFF;" d="M255.043,319.498l12.441,13.305c9.184-12.262,12.986-16.668,14.875-16.938
					c2.114-0.302,18.722-9.965,19.628-11.173c0.906-1.208,0.604-15.099,0.604-15.099s3.02-3.322,2.718-4.832
					c-0.302-1.51-6.643-7.247-8.153-8.757c-1.51-1.51-1.812-3.624-3.02-1.51c-1.208,2.114-1.208,3.322-0.302,4.227
					c0.906,0.906,0.604,3.02,0.604,3.02l-0.906,2.416l-0.604,3.926c0,0-0.906,1.51-3.02,0.906c-2.114-0.604-3.624-2.416-3.624-2.416
					l3.926-10.569c0,0-3.322-1.208-3.926,1.208c-0.604,2.416,0.906,1.51-2.114,3.624c-3.02,2.114-6.039,4.53-6.039,7.549
					c0,3.02-5.133,18.722-5.133,18.722S263.859,313.534,255.043,319.498z"/>
				<path style="fill:#263238;" d="M267.526,333.58l-13.248-14.168l0.485-0.328c8.13-5.5,16.638-11.466,17.811-12.29
					c0.536-1.651,5.057-15.66,5.057-18.408c0-3.305,3.228-5.842,6.253-7.959c1.785-1.25,1.782-1.286,1.756-1.638
					c-0.024-0.326-0.061-0.818,0.16-1.697c0.179-0.716,0.572-1.239,1.169-1.557c1.371-0.728,3.33-0.029,3.413,0l0.473,0.172
					l-3.995,10.755c0.452,0.472,1.662,1.611,3.186,2.047c1.475,0.422,2.219-0.371,2.406-0.615l0.612-3.911l0.886-2.362
					c0.069-0.56,0.107-1.968-0.469-2.544c-1.432-1.432-0.634-3.333,0.221-4.829c0.315-0.553,0.717-1.12,1.305-1.143
					c0.634-0.053,1.017,0.556,1.473,1.228c0.286,0.422,0.61,0.899,1.03,1.319c0.295,0.294,0.773,0.75,1.355,1.304
					c4.219,4.016,6.706,6.563,6.935,7.709c0.313,1.56-1.964,4.282-2.704,5.116c0.074,3.515,0.211,13.987-0.708,15.211
					c-0.941,1.255-17.6,11.031-19.957,11.368c-1.879,0.268-6.756,6.343-14.545,16.743L267.526,333.58z M255.808,319.584
					l11.633,12.441c9.347-12.461,12.836-16.368,14.846-16.656c2.061-0.294,18.531-9.981,19.299-10.978
					c0.499-0.759,0.649-8.115,0.504-14.787l-0.004-0.199l0.134-0.147c1.184-1.303,2.771-3.528,2.598-4.397
					c-0.211-1.06-4.719-5.349-6.643-7.181c-0.589-0.561-1.075-1.023-1.373-1.321c-0.487-0.486-0.855-1.029-1.15-1.465
					c-0.209-0.308-0.494-0.728-0.63-0.791c0.004,0.018-0.156,0.123-0.452,0.641c-1.281,2.241-0.941,3.067-0.382,3.626
					c1.052,1.052,0.78,3.202,0.746,3.443l-0.027,0.105l-0.888,2.367l-0.662,4.055c-0.381,0.637-1.62,1.69-3.586,1.13
					c-2.236-0.638-3.804-2.498-3.87-2.576l-0.185-0.223l3.838-10.335c-0.605-0.139-1.512-0.24-2.118,0.084
					c-0.34,0.181-0.558,0.48-0.667,0.914c-0.181,0.724-0.152,1.103-0.132,1.381c0.068,0.92-0.185,1.134-2.18,2.53
					c-2.819,1.974-5.826,4.315-5.826,7.141c0,3.063-4.947,18.232-5.158,18.877l-0.051,0.158l-0.136,0.096
					C273.195,307.579,264.378,313.777,255.808,319.584z"/>
			</g>
			
				<rect x="298.707" y="290.905" transform="matrix(0.6424 -0.7664 0.7664 0.6424 -115.6612 334.9363)" style="fill:#263238;" width="4.728" height="1"/>
			<path style="fill:#263238;" d="M294.691,282.173l-0.507-0.861c0.125-0.074,3.085-1.783,5.121-0.216l-0.609,0.793
				C297.186,280.728,294.715,282.159,294.691,282.173z"/>
			<path style="fill:#263238;" d="M261.871,340.468l-15.85-15.85l9.105-5.764l13.022,13.926L261.871,340.468z M247.611,324.794
				l14.185,14.186l5.025-6.154l-11.86-12.684L247.611,324.794z"/>
			<g>
				<path style="fill:#263238;" d="M180.075,334.604c-1.249-1.112-2.515-2.243-3.782-3.379c-9.532,6.015-22.086,17.781-24.18,38.686
					c1.584,1.31,3.166,2.606,4.733,3.874C157.662,351.49,170.892,339.951,180.075,334.604z"/>
				<path style="fill:#263238;" d="M164.001,320.014c-1.318-1.232-2.555-2.402-3.673-3.479c-9.607,5.859-22.781,17.682-24.94,39.133
					c1.518,1.325,3.098,2.696,4.722,4.095C140.875,336.803,154.78,325.203,164.001,320.014z"/>
				<path style="fill:#263238;" d="M198.146,350.498c0,0-2.826-2.451-7.029-6.139c-9.416,6.717-20.388,18.841-21.617,39.209
					c1.724,1.25,3.355,2.387,4.865,3.382c0.105-20.786,10.822-32.596,19.826-38.856c-3.423,11.727-7.552,28.202-9.4,44.497
					c1.753,0.745,3.366,1.324,4.845,1.766c1.719-15.942,5.799-32.397,9.206-44.207C198.405,350.368,198.146,350.498,198.146,350.498
					z"/>
				<path style="fill:#263238;" d="M223.322,337.783c-1.509,0.77-3.031,1.544-4.546,2.314c4.92,7.745,9.972,17.826,13.138,29.94
					c1.386-1.231,2.78-2.48,4.174-3.742C232.83,354.86,228.047,345.288,223.322,337.783z"/>
				<path style="fill:#263238;" d="M251.577,351.548c1.24-1.258,2.439-2.502,3.592-3.728c-4.868-7.823-9.843-14.133-14.414-19.126
					c-1.166,0.646-2.74,1.487-4.585,2.457C240.817,336.115,246.257,342.848,251.577,351.548z"/>
				<path style="fill:#263238;" d="M215.772,383.93c-1.337-14.77-3.629-28.905-5.617-39.47c-1.665,0.84-3.233,1.63-4.649,2.343
					c2.058,11.114,4.378,25.852,5.579,41.018C212.521,386.638,214.092,385.335,215.772,383.93z"/>
				<path style="fill:#263238;" d="M149.785,305.313c-1.341-1.162-2.844-2.217-4.533-3.066c-9.615,5.653-23.404,17.451-25.72,39.321
					c0.902,0.819,2.529,2.292,4.694,4.232C125.104,321.511,140.707,309.983,149.785,305.313z"/>
			</g>
		</g>
	</g>
</g>
<g id="Speech_Bubble">
	<g>
		<g>
			<path style="fill:#263238;" d="M186.484,100.804h-64.571c-4.81,0-8.71,3.9-8.71,8.71v33.998c0,4.81,3.899,8.71,8.71,8.71h16.593
				l11.523,18.438l1.085-18.438h35.37c4.81,0,8.71-3.9,8.71-8.71v-33.998C195.194,104.704,191.295,100.804,186.484,100.804z"/>
			<path style="fill:#263238;" d="M150.437,172.254l-12.208-19.532h-16.315c-5.078,0-9.209-4.131-9.209-9.21v-33.998
				c0-5.079,4.131-9.21,9.209-9.21h64.571c5.079,0,9.21,4.131,9.21,9.21v33.998c0,5.079-4.131,9.21-9.21,9.21h-34.898
				L150.437,172.254z M121.914,101.305c-4.527,0-8.209,3.683-8.209,8.21v33.998c0,4.527,3.683,8.21,8.209,8.21h16.87l10.839,17.343
				l1.021-17.343h35.841c4.527,0,8.21-3.683,8.21-8.21v-33.998c0-4.527-3.683-8.21-8.21-8.21H121.914z"/>
		</g>
		<g>
			<path style="fill:#FFFFFF;" d="M183.705,98.025h-64.571c-4.81,0-8.71,3.9-8.71,8.71v33.998c0,4.81,3.9,8.71,8.71,8.71h16.593
				l11.523,18.438l1.085-18.438h35.37c4.81,0,8.71-3.9,8.71-8.71v-33.998C192.415,101.925,188.516,98.025,183.705,98.025z"/>
			<path style="fill:#263238;" d="M147.658,169.475l-12.208-19.532h-16.315c-5.079,0-9.21-4.131-9.21-9.21v-33.997
				c0-5.079,4.131-9.21,9.21-9.21h64.571c5.079,0,9.21,4.131,9.21,9.21v33.997c0,5.079-4.131,9.21-9.21,9.21h-34.898
				L147.658,169.475z M119.134,98.525c-4.527,0-8.21,3.683-8.21,8.21v33.997c0,4.527,3.683,8.21,8.21,8.21h16.87l10.839,17.343
				l1.021-17.343h35.841c4.527,0,8.21-3.683,8.21-8.21v-33.997c0-4.527-3.683-8.21-8.21-8.21H119.134z"/>
		</g>
		<circle style="fill:#263238;" cx="137.176" cy="123.064" r="3.822"/>
		<circle style="fill:#263238;" cx="153.852" cy="123.064" r="3.822"/>
		<path style="fill:#263238;" d="M174.349,123.064c0,2.111-1.711,3.822-3.822,3.822c-2.111,0-3.822-1.711-3.822-3.822
			c0-2.111,1.711-3.822,3.822-3.822C172.638,119.242,174.349,120.953,174.349,123.064z"/>
	</g>
</g>
<g id="Clock">
	<g>
		<path style="fill:#263238;" d="M69.332,198.825c-20.083,0-36.422-16.339-36.422-36.422c0-20.077,16.339-36.411,36.422-36.411
			c20.077,0,36.411,16.334,36.411,36.411C105.743,182.486,89.409,198.825,69.332,198.825z M69.332,126.992
			c-19.532,0-35.422,15.885-35.422,35.411c0,19.532,15.89,35.422,35.422,35.422c19.526,0,35.411-15.89,35.411-35.422
			C104.743,142.877,88.858,126.992,69.332,126.992z M69.332,194.827c-17.879,0-32.424-14.545-32.424-32.424
			c0-17.879,14.545-32.425,32.424-32.425c17.879,0,32.425,14.546,32.425,32.425C101.757,180.281,87.211,194.827,69.332,194.827z
			 M69.332,130.977c-17.328,0-31.424,14.097-31.424,31.425c0,17.328,14.097,31.424,31.424,31.424
			c17.328,0,31.425-14.097,31.425-31.424C100.757,145.075,86.66,130.977,69.332,130.977z"/>
		
			<rect x="78.407" y="159.023" transform="matrix(0.255 -0.9669 0.9669 0.255 -100.9072 199.331)" style="fill:#263238;" width="1" height="12.257"/>
		
			<rect x="59.564" y="136.081" transform="matrix(0.8217 -0.5699 0.5699 0.8217 -74.0498 60.7441)" style="fill:#263238;" width="1" height="25.293"/>
		<path style="fill:#263238;" d="M69.327,166.843c-2.446,0-4.436-1.99-4.436-4.436s1.99-4.436,4.436-4.436
			c2.446,0,4.436,1.99,4.436,4.436S71.773,166.843,69.327,166.843z M69.327,158.972c-1.895,0-3.436,1.541-3.436,3.436
			c0,1.895,1.541,3.436,3.436,3.436c1.895,0,3.436-1.542,3.436-3.436C72.763,160.513,71.221,158.972,69.327,158.972z"/>
	</g>
</g>
</svg>
